SplineFontDB: 3.2
FontName: Fitenkajti
FullName: Fitenkajti
FamilyName: Fitenkajti
Weight: Regular
Copyright: Kinbvise, 2022, Dcijusi
FontLog: "1353.1 (20220624): +i9WPk1H6AAoA-1353.2 (20220628): +TxhTFltXV4tbV5HNAAoA-1370.0 (20220628): +iGVcD1GZj4WX8wAK-1641.0 (20220726): +ZvRlsIHz-U+-F067F+/wyIZVknUZmPhZfz"
Version: 1692.0
ItalicAngle: 0
UnderlinePosition: -200
UnderlineWidth: 50
Ascent: 800
Descent: 200
InvalidEm: 0
sfntRevision: 0x00010000
LayerCount: 2
Layer: 0 0 "Back" 1
Layer: 1 0 "Fore" 0
XUID: [1021 662 207978590 315]
StyleMap: 0x0000
FSType: 0
OS2Version: 4
OS2_WeightWidthSlopeOnly: 0
OS2_UseTypoMetrics: 1
CreationTime: 1654248262
ModificationTime: 1659756104
PfmFamily: 65
TTFWeight: 400
TTFWidth: 5
LineGap: 90
VLineGap: 0
Panose: 2 0 5 3 0 0 0 0 0 0
OS2TypoAscent: 800
OS2TypoAOffset: 0
OS2TypoDescent: -200
OS2TypoDOffset: 0
OS2TypoLinegap: 90
OS2WinAscent: 773
OS2WinAOffset: 0
OS2WinDescent: 172
OS2WinDOffset: 0
HheadAscent: 773
HheadAOffset: 0
HheadDescent: -172
HheadDOffset: 0
OS2SubXSize: 650
OS2SubYSize: 699
OS2SubXOff: 0
OS2SubYOff: 140
OS2SupXSize: 650
OS2SupYSize: 699
OS2SupXOff: 0
OS2SupYOff: 479
OS2StrikeYSize: 49
OS2StrikeYPos: 258
OS2Vendor: 'PfEd'
OS2CodePages: 00000001.00000000
OS2UnicodeRanges: 00000000.02000000.04000000.00000000
MarkAttachClasses: 1
DEI: 91125
LangName: 1033 "" "" "" "" "" "Version 1692.0"
Encoding: UnicodeFull
Compacted: 1
UnicodeInterp: none
NameList: AGL For New Fonts
DisplaySize: -72
AntiAlias: 1
FitToEm: 0
WinInfo: 1225 25 9
BeginPrivate: 5
BlueShift 1 0
StdHW 4 [41]
StdVW 4 [40]
StemSnapH 4 [41]
StemSnapV 4 [40]
EndPrivate
TeXData: 1 0 0 346030 173015 115343 0 1048576 115343 783286 444596 497025 792723 393216 433062 380633 303038 157286 324010 404750 52429 2506097 1059062 262144
BeginChars: 1114113 1698

StartChar: .notdef
Encoding: 1114112 -1 0
Width: 1000
GlyphClass: 1
Flags: HMW
HStem: 0 50<241 341 341 341> 483 50<241 341 241 391>
VStem: 191 50<50 483 483 483> 341 50<50 50 50 483>
LayerCount: 2
Fore
SplineSet
809 50 m 1
 809 639 l 1
 191 639 l 1
 191 50 l 1
 809 50 l 1
863 0 m 1
 137 0 l 1
 137 689 l 1
 863 689 l 1
 863 0 l 1
EndSplineSet
EndChar

StartChar: hli
Encoding: 983277 983277 1
Width: 1000
GlyphClass: 1
Flags: HMW
LayerCount: 2
Fore
SplineSet
793 123 m 1
 728 105 752 118 675 103 c 0
 671 103 601 89 597 89 c 0
 573 89 556 109 556 135 c 0
 556 145 558 154 565 171 c 0
 592 242 600 296 624 346 c 0
 630 360 636 369 645 380 c 1
 487 364 396 334 279 334 c 0
 259 334 205 335 193 336 c 0
 134 341 92 365 92 393 c 0
 92 407 104 415 123 415 c 0
 124 415 124 415 125 415 c 0
 185 415 206 395 266 395 c 2
 308 395 l 2
 348 395 322 392 494 419 c 1
 492 428 490 435 489 441 c 0
 498 462 499 463 501 477 c 0
 501 478 537 637 537 639 c 1
 489 633 445 630 399 630 c 0
 351 630 310 636 278 648 c 0
 250 657 237 672 237 695 c 0
 237 714 248 727 264 727 c 0
 323 727 356 693 415 693 c 0
 422 693 429 693 436 693 c 0
 502 693 656 710 674 719 c 0
 680 722 683 731 703 732 c 0
 704 732 703 732 704 732 c 0
 731 732 745 721 745 700 c 0
 745 674 736 666 698 660 c 0
 631 647 626 647 602 645 c 1
 606 625 604 637 604 633 c 0
 604 609 574 523 567 468 c 0
 565 451 562 438 558 428 c 1
 568 429 578 432 589 433 c 0
 667 444 676 444 802 447 c 0
 809 447 815 447 819 447 c 0
 836 447 845 445 852 439 c 2
 877 418 l 1
 863 418 l 1
 865 412 866 408 866 404 c 0
 866 387 844 376 812 376 c 0
 772 376 764 385 724 385 c 0
 712 385 701 385 675 383 c 1
 676 382 678 381 679 380 c 0
 688 372 692 361 692 347 c 0
 692 327 665 282 641 187 c 0
 639 178 637 171 635 164 c 1
 658 168 671 173 694 176 c 0
 709 178 726 178 743 179 c 1
 763 187 780 191 793 191 c 0
 812 191 836 189 846 187 c 0
 849 187 851 188 854 188 c 0
 871 188 885 180 892 166 c 0
 900 150 902 154 905 141 c 1
 909 135 911 127 911 120 c 0
 911 103 906 92 862 22 c 0
 789 -95 801 -75 790 -92 c 0
 765 -131 753 -142 737 -142 c 0
 720 -142 710 -130 710 -110 c 0
 710 -102 713 -92 716 -87 c 0
 815 74 815 74 838 116 c 1
 836 118 836 118 793 123 c 1
187 -83 m 0
 165 -83 140 -62 140 -44 c 0
 140 -25 154 -10 173 -10 c 0
 177 -10 180 -10 182 -10 c 0
 214 -10 356 177 358 179 c 0
 396 227 432 264 464 290 c 0
 477 300 485 307 492 314 c 0
 509 329 518 334 532 334 c 0
 546 334 555 325 555 312 c 0
 555 293 536 270 486 225 c 0
 445 188 441 184 382 107 c 0
 289 -15 260 -46 210 -75 c 0
 200 -81 193 -83 187 -83 c 0
180 -37 m 1
 189 -18 l 1
 187 -16 l 1
 169 -26 l 1
 169 -27 l 1
 179 -37 l 1
 180 -37 l 1
165 -57 m 1
 172 -52 l 1
 170 -50 l 1
 165 -57 l 1
EndSplineSet
EndChar

StartChar: tf`j
Encoding: 983278 983278 2
Width: 1000
GlyphClass: 1
Flags: HMW
LayerCount: 2
Fore
SplineSet
761 444 m 0
 736 436 708 429 698 429 c 0
 684 429 662 432 646 437 c 0
 645 437 644 438 643 438 c 1
 676 418 711 394 712 394 c 0
 719 384 722 374 722 363 c 0
 722 346 711 335 692 335 c 0
 677 335 684 338 656 345 c 0
 644 347 636 354 630 365 c 0
 627 373 609 389 587 400 c 0
 569 410 550 418 532 427 c 0
 500 447 500 447 500 447 c 1
 492 447 485 445 477 445 c 0
 460 445 434 460 417 460 c 0
 401 460 338 383 166 309 c 0
 140 297 123 292 110 292 c 0
 94 292 84 300 84 313 c 0
 84 327 95 338 129 357 c 0
 250 417 250 417 304 458 c 0
 363 502 438 566 513 636 c 1
 554 677 l 2
 568 694 578 709 586 731 c 0
 587 732 587 732 588 733 c 0
 588 734 588 734 588 735 c 0
 588 746 597 755 610 755 c 0
 626 755 639 738 639 717 c 0
 639 683 610 640 545 579 c 0
 513 549 485 523 458 500 c 1
 468 498 468 498 471 498 c 0
 481 498 493 501 503 501 c 0
 511 501 599 463 626 448 c 1
 622 452 620 457 620 464 c 0
 620 476 628 486 638 486 c 0
 640 486 640 485 642 485 c 0
 650 489 652 489 659 489 c 0
 660 489 660 489 661 489 c 0
 671 489 683 488 693 488 c 0
 707 488 720 499 770 506 c 0
 777 506 874 530 881 530 c 2
 915 506 l 1
 919 486 917 498 917 494 c 0
 917 457 898 383 891 315 c 0
 882 245 873 228 864 169 c 0
 864 168 855 129 844 65 c 0
 833 9 816 -15 785 -15 c 0
 766 -15 753 -11 687 19 c 0
 675 29 670 38 670 49 c 0
 670 65 685 78 704 78 c 0
 721 78 749 58 776 50 c 1
 784 72 799 192 807 222 c 0
 816 253 824 294 829 334 c 0
 834 378 849 442 851 457 c 1
 787 447 809 444 771 444 c 0
 768 444 764 444 761 444 c 0
327 289 m 0
 327 302 322 329 318 337 c 2
 313 337 l 1
 313 354 l 2
 313 365 322 374 334 374 c 0
 363 374 388 333 388 285 c 0
 388 247 363 18 354 -32 c 1
 357 -30 477 63 481 66 c 0
 537 109 564 134 593 168 c 0
 615 193 638 220 638 221 c 0
 654 240 662 245 672 245 c 0
 685 245 695 234 695 219 c 0
 695 198 646 134 585 77 c 0
 526 21 382 -92 348 -109 c 0
 340 -112 340 -118 323 -118 c 0
 299 -118 284 -103 284 -79 c 0
 284 -48 291 -32 307 107 c 2
 321 228 l 2
 325 267 327 286 327 289 c 0
EndSplineSet
EndChar

StartChar: hla
Encoding: 983279 983279 3
Width: 1000
GlyphClass: 1
Flags: HMW
LayerCount: 2
Fore
SplineSet
490 474 m 1
 494 477 505 483 507 483 c 0
 519 495 545 631 545 632 c 1
 499 629 473 619 442 619 c 0
 396 619 362 633 362 652 c 0
 362 662 369 669 383 674 c 0
 397 679 387 672 462 685 c 0
 502 693 561 697 628 697 c 0
 690 697 730 695 744 692 c 0
 758 689 771 674 771 662 c 0
 771 655 770 652 764 643 c 0
 759 633 755 630 743 630 c 0
 731 630 733 632 678 633 c 1
 636 633 l 2
 626 633 618 634 608 634 c 0
 602 634 597 634 593 634 c 1
 593 632 l 2
 593 602 578 510 565 466 c 1
 586 470 602 474 636 481 c 0
 661 487 671 488 686 488 c 0
 687 488 698 488 698 488 c 2
 728 488 759 498 789 498 c 0
 804 498 806 497 825 489 c 1
 841 514 l 1
 841 470 l 2
 841 444 827 429 803 429 c 0
 802 429 800 429 799 429 c 0
 789 425 755 419 745 419 c 0
 735 419 737 422 727 422 c 0
 721 422 712 421 706 421 c 0
 703 421 694 421 685 422 c 2
 668 422 641 410 572 400 c 1
 528 386 509 382 450 372 c 1
 462 370 468 364 468 353 c 0
 468 341 462 329 446 303 c 2
 433 284 421 266 417 258 c 1
 428 259 438 263 475 271 c 0
 497 276 520 280 564 289 c 0
 602 296 622 302 632 304 c 0
 660 311 676 313 707 313 c 0
 770 313 818 303 833 285 c 0
 839 279 843 268 843 255 c 0
 843 241 837 229 811 194 c 0
 766 128 691 31 665 6 c 0
 651 -8 641 -14 630 -14 c 0
 620 -14 614 -8 614 2 c 0
 614 27 637 64 769 244 c 1
 744 247 731 248 708 248 c 0
 679 248 668 247 645 241 c 0
 638 239 424 195 422 195 c 0
 377 195 349 214 349 244 c 0
 349 275 406 359 433 369 c 1
 431 369 269 338 251 338 c 0
 194 338 137 360 137 382 c 0
 137 394 157 405 180 405 c 0
 196 405 229 400 245 400 c 0
 273 400 378 431 459 439 c 0
 465 440 471 440 475 441 c 0
 475 443 474 444 474 446 c 0
 474 456 481 468 490 474 c 1
295 -101 m 0
 236 -101 183 -77 183 -50 c 0
 183 -41 191 -35 203 -35 c 0
 225 -35 248 -43 270 -43 c 0
 288 -43 322 -38 352 -36 c 0
 362 -36 572 -26 582 -26 c 0
 584 -26 595 -26 608 -27 c 2
 627 -27 633 -25 652 -25 c 0
 672 -25 698 -28 718 -28 c 0
 763 -28 843 -43 853 -53 c 0
 856 -56 857 -59 857 -62 c 0
 857 -63 857 -64 857 -65 c 0
 862 -73 863 -76 863 -81 c 0
 863 -96 847 -108 826 -108 c 0
 772 -108 696 -92 642 -92 c 2
 585 -92 l 2
 546 -92 522 -97 483 -97 c 2
 482 -97 l 2
 461 -97 451 -98 430 -98 c 0
 424 -98 414 -98 404 -98 c 0
 356 -98 343 -101 295 -101 c 0
EndSplineSet
EndChar

StartChar: hl
Encoding: 983280 983280 4
Width: 1000
GlyphClass: 1
Flags: HMW
LayerCount: 2
Fore
SplineSet
235 422 m 0
 287 422 387 442 500 452 c 0
 501 452 503 452 504 452 c 0
 506 460 507 488 507 511 c 0
 507 525 507 539 507 553 c 0
 507 588 508 625 509 643 c 1
 466 639 448 638 415 638 c 0
 322 638 268 653 249 685 c 0
 245 691 244 695 244 700 c 0
 244 712 254 720 267 720 c 0
 287 720 312 706 362 704 c 0
 374 704 385 703 397 703 c 0
 466 703 606 719 675 719 c 0
 685 719 726 718 736 718 c 0
 738 718 740 718 741 718 c 0
 752 718 759 717 776 711 c 1
 784 683 782 691 782 683 c 0
 782 660 774 651 754 651 c 0
 753 651 753 651 752 651 c 0
 738 651 699 652 685 652 c 0
 651 652 597 650 567 648 c 1
 570 631 572 579 572 531 c 0
 572 508 571 475 570 457 c 1
 645 454 728 445 800 430 c 0
 836 422 843 419 843 407 c 0
 846 401 848 396 848 391 c 0
 848 382 843 375 835 369 c 1
 833 359 l 1
 825 359 l 1
 825 357 l 1
 816 359 l 1
 804 359 l 1
 804 361 l 1
 724 377 646 387 569 390 c 1
 516 387 497 385 420 376 c 1
 441 371 456 351 456 327 c 0
 456 297 406 213 338 127 c 1
 342 128 484 173 720 208 c 0
 758 213 773 215 786 215 c 0
 826 215 854 188 854 149 c 0
 854 117 825 67 732 -62 c 0
 697 -110 671 -129 644 -129 c 0
 631 -129 623 -121 623 -110 c 0
 623 -98 630 -87 651 -64 c 0
 686 -27 787 129 787 147 c 1
 785 147 782 148 780 148 c 0
 729 148 482 101 385 72 c 0
 380 71 316 52 277 52 c 0
 271 52 269 52 266 53 c 1
 263 46 l 1
 243 67 l 1
 238 82 237 84 237 90 c 0
 237 101 253 125 287 166 c 0
 321 206 394 319 394 331 c 0
 394 335 391 339 391 343 c 0
 385 349 383 353 383 359 c 0
 383 365 386 369 392 373 c 1
 383 372 374 370 363 369 c 0
 322 363 283 360 252 360 c 0
 215 360 191 365 173 378 c 0
 152 395 147 401 147 412 c 0
 147 422 156 429 170 429 c 0
 199 429 206 422 235 422 c 0
260 109 m 1
 264 93 l 1
 266 92 l 1
 264 97 262 104 260 109 c 1
EndSplineSet
EndChar

StartChar: hlo
Encoding: 983281 983281 5
Width: 1000
GlyphClass: 1
Flags: HMW
LayerCount: 2
Fore
SplineSet
498 499 m 1
 504 500 509 500 515 501 c 1
 513 509 l 1
 509 509 l 1
 498 499 l 1
536 589 m 0
 536 580 530 514 529 507 c 0
 529 505 528 505 528 503 c 1
 560 507 592 509 625 509 c 0
 627 509 635 509 641 509 c 0
 683 509 757 503 806 495 c 0
 848 489 860 480 860 457 c 0
 860 436 844 419 825 419 c 0
 811 419 812 424 795 427 c 0
 781 430 679 443 671 443 c 2
 670 443 l 2
 575 443 516 437 452 422 c 0
 393 408 236 378 221 378 c 0
 163 378 141 385 141 404 c 0
 141 420 160 433 190 438 c 0
 252 447 283 455 389 474 c 0
 412 481 438 487 467 493 c 1
 466 511 466 512 466 519 c 0
 466 557 475 576 475 614 c 0
 475 616 475 621 475 627 c 1
 392 617 361 614 327 614 c 0
 273 614 245 626 245 650 c 0
 245 661 253 668 265 668 c 0
 266 668 266 668 267 668 c 0
 371 668 551 713 655 713 c 0
 670 713 677 710 683 702 c 0
 687 698 691 688 691 683 c 0
 691 676 689 671 684 665 c 1
 684 665 684 664 684 663 c 0
 684 662 684 662 685 648 c 1
 670 648 670 648 668 648 c 0
 655 648 651 646 638 646 c 0
 637 646 631 646 631 646 c 2
 621 646 564 637 531 634 c 1
 534 619 536 606 536 589 c 0
491 157 m 0
 418 157 331 110 258 110 c 0
 250 110 242 112 237 115 c 2
 187 139 l 1
 224 139 l 1
 222 143 221 147 221 151 c 0
 221 159 224 164 237 181 c 0
 264 215 307 286 333 312 c 1
 339 329 340 334 349 378 c 1
 353 372 l 1
 359 378 370 383 377 383 c 0
 394 383 404 368 404 343 c 0
 404 319 396 292 385 275 c 0
 372 256 381 275 346 223 c 0
 344 220 333 204 318 184 c 1
 343 191 376 204 426 214 c 0
 456 220 476 222 494 222 c 0
 541 222 572 200 572 168 c 0
 572 141 554 106 523 72 c 0
 499 46 476 23 406 -53 c 0
 339 -127 307 -149 269 -149 c 0
 255 -149 245 -141 245 -130 c 0
 245 -117 257 -103 286 -83 c 0
 314 -64 371 13 449 91 c 0
 483 124 498 142 503 156 c 1
 499 156 495 157 491 157 c 0
483 -113 m 0
 483 -53 703 131 763 308 c 0
 763 310 763 311 764 312 c 0
 763 316 763 316 763 318 c 0
 763 333 773 343 787 343 c 2
 788 343 l 2
 809 343 826 325 826 304 c 0
 826 299 825 295 822 286 c 0
 822 257 762 151 706 81 c 0
 659 21 684 56 557 -100 c 0
 530 -133 522 -139 509 -139 c 0
 495 -139 483 -127 483 -113 c 0
EndSplineSet
EndChar

StartChar: h`hr`r
Encoding: 983282 983282 6
Width: 1000
GlyphClass: 1
Flags: HMW
LayerCount: 2
Fore
SplineSet
855 342 m 0
 855 372 804 382 804 412 c 0
 804 431 811 450 829 477 c 2
 834 485 842 496 847 504 c 1
 806 492 791 489 779 489 c 0
 759 489 721 506 705 522 c 0
 699 525 694 532 694 539 c 0
 694 552 705 562 719 562 c 0
 736 562 755 548 772 548 c 0
 804 548 864 576 896 576 c 0
 920 576 936 564 936 547 c 0
 936 521 867 441 867 415 c 2
 867 414 l 1
 870 411 887 403 901 386 c 0
 911 374 915 363 915 346 c 0
 915 301 905 260 882 211 c 0
 847 136 809 86 784 39 c 0
 764 2 744 -23 720 -41 c 0
 708 -41 674 -66 662 -66 c 0
 651 -66 642 -57 642 -47 c 0
 642 -36 646 -31 684 6 c 0
 709 31 709 31 728 66 c 0
 767 139 811 202 836 264 c 0
 836 279 855 327 855 342 c 0
109 93 m 0
 83 93 63 110 63 133 c 0
 63 144 72 152 85 152 c 1
 85 156 l 1
 105 154 l 1
 122 154 154 173 160 175 c 1
 161 255 170 335 184 399 c 2
 190 427 195 447 195 448 c 0
 196 450 197 457 201 464 c 1
 152 468 135 473 119 488 c 0
 110 497 106 505 106 514 c 0
 106 527 115 536 126 536 c 0
 160 536 168 527 202 527 c 0
 240 527 247 535 285 535 c 0
 299 535 308 533 316 526 c 1
 319 503 l 1
 317 497 317 494 317 491 c 0
 317 490 317 488 317 486 c 0
 317 476 289 463 267 463 c 0
 261 463 257 464 251 464 c 0
 250 464 249 464 247 464 c 1
 248 462 249 461 251 452 c 1
 256 454 258 454 260 454 c 0
 270 454 274 450 284 450 c 0
 296 450 470 488 472 488 c 1
 477 536 486 578 505 634 c 1
 477 631 452 629 435 629 c 0
 373 629 321 657 321 691 c 0
 321 702 329 711 339 711 c 0
 341 711 344 710 346 710 c 0
 347 710 347 710 349 710 c 0
 379 710 398 692 428 692 c 0
 503 692 629 730 631 730 c 2
 661 730 l 1
 660 722 660 717 661 716 c 2
 661 715 661 714 662 713 c 1
 666 707 668 701 668 695 c 0
 668 691 668 691 663 681 c 0
 657 669 654 668 633 663 c 0
 625 661 625 661 570 646 c 1
 568 609 546 561 539 494 c 1
 582 497 593 503 610 503 c 0
 618 503 619 503 638 501 c 0
 642 502 651 502 659 503 c 1
 676 503 718 496 737 490 c 1
 767 459 l 2
 768 458 768 456 768 452 c 0
 768 448 767 444 766 442 c 1
 766 431 753 423 736 423 c 0
 712 423 672 435 648 435 c 1
 627 436 611 437 609 437 c 0
 601 437 574 430 520 426 c 1
 510 416 498 410 486 410 c 0
 479 410 472 417 465 417 c 2
 465 417 463 417 462 417 c 0
 454 417 445 416 391 406 c 0
 352 394 331 390 307 390 c 0
 281 390 263 396 250 410 c 1
 208 126 225 267 224 197 c 1
 236 200 247 202 257 202 c 0
 260 202 263 201 266 201 c 0
 268 202 270 204 272 205 c 0
 311 197 324 187 324 163 c 0
 324 156 323 151 317 142 c 0
 302 134 307 130 294 130 c 0
 280 130 273 136 259 136 c 0
 252 136 154 100 147 100 c 0
 131 95 119 93 109 93 c 0
313 347 m 0
 313 358 325 365 341 365 c 2
 359 365 l 2
 418 365 607 421 666 421 c 0
 688 421 703 408 703 388 c 0
 703 383 703 382 702 380 c 2
 690 359 l 1
 663 345 643 330 616 304 c 0
 592 283 593 284 583 276 c 1
 621 279 621 279 633 279 c 0
 704 279 736 258 736 212 c 0
 736 130 538 -49 387 -104 c 0
 344 -118 310 -127 296 -127 c 0
 278 -127 264 -115 264 -101 c 0
 264 -87 273 -79 297 -69 c 0
 396 -36 396 -36 441 -8 c 0
 524 43 611 117 656 175 c 0
 670 193 675 202 675 213 c 0
 675 214 675 213 675 214 c 0
 667 218 658 219 634 219 c 0
 582 219 567 215 515 215 c 0
 474 215 462 223 462 247 c 0
 462 264 470 274 496 292 c 0
 519 308 537 322 554 336 c 1
 536 336 407 307 389 307 c 0
 345 307 313 324 313 347 c 0
EndSplineSet
EndChar

StartChar: hpt
Encoding: 983283 983283 7
Width: 1000
GlyphClass: 1
Flags: HMW
LayerCount: 2
Fore
SplineSet
213 374 m 0
 144 374 108 390 108 420 c 0
 108 433 115 440 130 440 c 0
 131 440 131 440 132 440 c 0
 140 440 190 438 198 438 c 0
 241 438 165 429 441 466 c 1
 449 506 457 548 469 614 c 1
 443 611 417 605 359 600 c 1
 305 603 253 629 253 653 c 0
 253 664 264 671 282 671 c 0
 303 671 332 660 353 660 c 0
 359 660 345 658 391 665 c 0
 397 665 573 695 579 695 c 0
 606 695 617 692 628 681 c 0
 633 676 634 674 634 669 c 0
 634 664 633 661 628 655 c 1
 688 651 l 1
 611 632 l 2
 592 627 584 632 524 621 c 0
 524 619 524 618 524 615 c 0
 524 603 512 504 508 477 c 1
 528 480 550 481 575 481 c 0
 676 481 721 476 795 456 c 0
 812 451 818 448 830 441 c 1
 835 423 835 422 835 415 c 0
 835 394 816 380 786 380 c 0
 760 380 760 393 741 400 c 0
 718 409 685 412 590 415 c 0
 585 415 580 415 576 415 c 0
 515 415 274 374 213 374 c 0
432 -98 m 1
 432 -42 446 240 446 296 c 2
 446 297 l 2
 446 317 442 323 442 343 c 2
 442 347 l 1
 451 360 l 1
 460 361 460 361 462 361 c 0
 488 361 507 338 510 303 c 0
 510 297 510 290 510 283 c 0
 510 266 500 -11 500 -28 c 0
 500 -29 500 -30 500 -31 c 1
 501 -30 502 -30 504 -30 c 0
 527 -18 561 45 582 116 c 0
 627 275 627 275 629 282 c 0
 637 321 639 324 655 337 c 1
 685 337 700 327 700 306 c 0
 700 293 677 214 650 132 c 1
 652 132 653 133 655 133 c 0
 661 133 661 133 710 102 c 0
 739 84 760 67 805 25 c 1
 890 -68 l 1
 890 -69 l 2
 890 -72 889 -75 888 -79 c 1
 907 -85 l 1
 865 -101 865 -101 856 -101 c 0
 843 -101 833 -96 831 -87 c 1
 818 -71 820 -89 746 -5 c 0
 694 52 657 78 643 104 c 0
 642 105 642 107 641 108 c 1
 622 54 601 9 578 -27 c 0
 557 -60 540 -73 519 -73 c 0
 513 -73 507 -71 502 -68 c 1
 502 -75 501 -79 484 -118 c 1
 479 -105 l 1
 474 -107 472 -108 467 -108 c 0
 457 -108 448 -104 442 -97 c 1
 432 -98 l 1
163 208 m 0
 163 262 148 241 148 295 c 0
 148 307 160 317 173 317 c 0
 196 317 216 293 222 259 c 0
 225 239 226 225 226 196 c 0
 226 190 226 185 226 179 c 0
 226 138 217 71 205 28 c 1
 264 44 289 49 314 49 c 0
 318 49 320 49 323 49 c 0
 324 66 324 80 324 114 c 0
 324 188 323 209 316 286 c 0
 316 290 315 295 315 299 c 0
 315 320 328 341 340 341 c 0
 378 341 389 288 389 109 c 0
 389 89 389 68 389 48 c 0
 389 2 390 -15 391 -17 c 0
 395 -23 397 -32 397 -41 c 0
 395 -75 390 -90 379 -94 c 1
 386 -102 l 1
 341 -99 349 -100 344 -97 c 1
 337 -112 l 1
 333 -86 l 1
 320 -70 l 1
 330 -69 l 1
 327 -51 326 -33 324 -15 c 1
 318 -17 315 -17 312 -17 c 0
 307 -17 305 -17 303 -16 c 0
 275 -21 271 -22 208 -39 c 2
 189 -44 175 -48 174 -48 c 1
 175 -61 l 1
 151 -45 146 -42 140 -37 c 1
 135 -43 l 1
 134 -33 133 -24 132 -22 c 2
 132 -21 133 -20 133 -19 c 0
 132 -8 131 -8 131 -5 c 0
 131 19 152 78 152 102 c 1
 161 143 163 167 163 208 c 0
686 317 m 1
 670 316 l 1
 670 314 l 1
 676 306 l 1
 686 317 l 1
EndSplineSet
EndChar

StartChar: h`kf
Encoding: 983284 983284 8
Width: 1000
GlyphClass: 1
Flags: HMW
LayerCount: 2
Fore
SplineSet
491 299 m 0
 477 299 458 303 444 303 c 0
 422 305 409 308 404 312 c 0
 394 315 378 320 351 328 c 1
 368 329 381 330 390 331 c 1
 388 336 388 338 388 340 c 0
 388 352 396 364 418 385 c 0
 471 436 621 659 630 699 c 0
 638 738 639 740 654 740 c 0
 674 740 689 723 689 701 c 0
 689 661 673 627 609 533 c 0
 575 487 535 416 488 364 c 1
 489 364 489 364 490 364 c 0
 525 364 524 372 590 378 c 0
 618 378 720 387 748 387 c 0
 818 387 824 385 830 357 c 0
 830 355 831 352 831 350 c 0
 831 333 815 320 794 320 c 2
 794 320 775 320 763 320 c 0
 720 320 633 316 578 312 c 0
 526 300 516 299 491 299 c 0
802 380 m 1
 797 370 l 1
 808 358 l 1
 802 380 l 1
151 443 m 0
 151 460 161 473 174 473 c 0
 176 473 179 473 190 472 c 1
 188 463 l 1
 201 448 202 447 214 447 c 0
 240 447 312 465 338 465 c 0
 346 465 350 464 361 460 c 1
 367 443 367 442 367 434 c 0
 367 417 360 407 344 405 c 0
 343 405 341 405 335 403 c 0
 333 388 332 382 325 344 c 0
 311 265 309 185 298 141 c 1
 312 145 323 149 339 154 c 0
 359 161 369 163 379 163 c 0
 402 163 408 157 420 123 c 1
 403 100 398 97 387 97 c 0
 385 97 383 98 381 98 c 0
 343 98 223 43 185 43 c 0
 157 43 135 55 135 71 c 0
 135 85 151 96 183 103 c 0
 200 107 211 110 222 114 c 0
 222 115 222 115 222 116 c 0
 222 126 225 135 230 142 c 0
 244 159 245 279 276 392 c 0
 276 393 277 394 277 395 c 1
 265 395 234 390 222 390 c 0
 179 390 151 411 151 443 c 0
386 124 m 1
 372 106 l 1
 375 104 l 1
 391 119 l 1
 386 124 l 1
533 -131 m 0
 502 -131 486 -109 486 -68 c 0
 486 -49 487 -36 490 -13 c 0
 490 29 518 246 526 261 c 0
 528 268 535 273 543 273 c 0
 563 273 578 254 578 230 c 0
 578 220 552 -48 552 -58 c 1
 608 -32 634 -12 681 41 c 0
 777 149 777 150 790 170 c 0
 823 220 831 228 847 228 c 0
 858 228 865 218 865 203 c 0
 865 168 841 127 783 61 c 0
 685 -51 669 -67 633 -89 c 0
 588 -115 550 -131 533 -131 c 0
EndSplineSet
EndChar

StartChar: h`kfa
Encoding: 983285 983285 9
Width: 1000
GlyphClass: 1
Flags: HMW
LayerCount: 2
Fore
SplineSet
627 729 m 0
 627 741 634 750 645 750 c 0
 649 750 650 750 652 749 c 0
 676 749 692 734 697 709 c 1
 698 707 l 1
 692 679 682 661 636 604 c 0
 598 555 538 487 503 450 c 0
 484 430 480 426 450 393 c 1
 480 398 579 422 682 438 c 0
 726 444 755 447 785 447 c 0
 804 447 813 446 823 441 c 2
 857 423 l 1
 838 420 l 1
 839 418 839 416 839 412 c 1
 838 393 827 379 811 379 c 0
 800 379 791 381 780 381 c 0
 688 381 470 328 459 327 c 0
 435 325 369 319 368 319 c 0
 353 319 347 324 344 340 c 1
 335 333 l 1
 338 361 l 2
 339 369 342 375 351 384 c 0
 457 490 589 642 633 710 c 1
 629 716 627 722 627 729 c 0
553 15 m 0
 517 15 498 42 498 96 c 0
 498 132 506 199 506 235 c 0
 506 262 502 278 502 305 c 0
 502 328 509 338 524 338 c 0
 551 338 570 293 570 230 c 0
 570 196 563 130 563 96 c 0
 563 92 564 88 564 84 c 1
 608 91 748 218 782 218 c 0
 796 218 807 207 807 193 c 0
 807 171 796 160 703 92 c 0
 619 31 588 15 553 15 c 0
274 122 m 0
 267 122 137 100 130 100 c 0
 108 100 89 111 89 125 c 0
 89 143 120 159 179 171 c 0
 242 182 l 1
 230 188 224 198 224 212 c 0
 224 219 227 226 232 230 c 0
 233 233 234 331 256 440 c 1
 234 437 215 435 209 435 c 0
 176 435 148 451 148 471 c 0
 148 484 163 494 185 494 c 0
 189 494 192 494 197 494 c 0
 212 494 360 529 375 529 c 0
 398 529 412 517 412 496 c 0
 412 474 402 466 368 460 c 0
 362 459 336 455 317 451 c 0
 317 449 317 447 317 445 c 0
 317 424 305 370 301 281 c 0
 298 216 295 199 285 189 c 1
 321 196 363 208 384 208 c 0
 425 208 441 203 450 188 c 0
 454 184 457 176 457 170 c 0
 457 160 454 154 444 146 c 0
 441 140 435 137 427 137 c 0
 415 137 404 142 392 142 c 0
 375 142 357 135 274 122 c 0
430 197 m 1
 428 197 427 197 425 197 c 1
 426 178 l 1
 431 181 l 1
 430 197 l 1
433 -80 m 0
 452 -80 595 -60 614 -60 c 2
 615 -60 l 2
 667 -60 715 -52 767 -52 c 0
 877 -52 911 -61 911 -91 c 0
 911 -111 894 -127 874 -127 c 0
 810 -127 811 -119 747 -119 c 0
 700 -119 479 -146 432 -146 c 0
 377 -146 326 -121 326 -95 c 0
 326 -81 341 -72 362 -72 c 0
 393 -72 402 -80 433 -80 c 0
EndSplineSet
EndChar

StartChar: h`kfo
Encoding: 983286 983286 10
Width: 1000
GlyphClass: 1
Flags: HMW
LayerCount: 2
Fore
SplineSet
230 421 m 0
 185 421 149 442 149 467 c 0
 149 480 157 489 169 489 c 0
 189 489 202 478 222 478 c 0
 246 478 273 485 331 507 c 1
 350 502 358 498 371 486 c 1
 372 479 372 479 372 476 c 0
 372 458 362 451 318 436 c 1
 318 434 310 378 300 240 c 0
 299 223 299 217 298 212 c 1
 478 248 366 229 410 231 c 1
 424 245 428 247 438 247 c 0
 449 247 459 241 464 230 c 1
 465 245 466 254 466 263 c 0
 466 291 454 284 454 312 c 0
 451 315 449 319 449 324 c 0
 449 328 449 329 450 331 c 1
 432 327 423 326 418 326 c 0
 406 326 399 328 389 333 c 0
 385 333 385 334 381 334 c 1
 376 339 376 339 375 341 c 1
 311 374 l 1
 368 362 l 1
 368 390 444 457 527 563 c 0
 543 584 621 688 626 696 c 1
 623 704 623 704 623 708 c 0
 623 720 635 728 652 728 c 1
 671 728 684 712 684 689 c 0
 684 678 680 667 669 649 c 0
 640 605 533 467 479 406 c 1
 507 414 517 417 534 423 c 0
 566 439 733 479 768 479 c 0
 782 479 788 478 814 473 c 1
 813 466 812 461 812 462 c 2
 812 456 819 447 819 441 c 0
 819 434 817 428 811 424 c 1
 820 413 l 1
 785 414 783 414 773 414 c 0
 743 414 697 403 588 370 c 0
 568 364 543 357 485 340 c 1
 513 329 529 298 529 257 c 0
 529 221 516 42 516 6 c 1
 586 71 l 2
 608 91 616 100 628 113 c 0
 637 117 643 119 649 119 c 0
 665 119 674 108 674 90 c 0
 674 78 670 72 641 42 c 0
 603 2 562 -38 490 -104 c 1
 491 -88 l 1
 490 -88 489 -88 487 -88 c 0
 485 -88 475 -88 462 -87 c 1
 455 -75 453 -67 453 -54 c 0
 453 -48 453 -45 454 -43 c 0
 453 -41 453 -39 453 -36 c 0
 453 -35 453 -35 453 -35 c 1
 451 -20 450 -21 450 -8 c 0
 450 12 457 58 460 137 c 0
 461 154 461 169 462 182 c 1
 456 172 444 166 432 165 c 0
 425 164 419 166 404 165 c 0
 360 163 245 132 183 107 c 0
 159 97 143 93 126 93 c 0
 93 93 57 111 57 127 c 0
 57 141 76 154 98 154 c 0
 104 154 106 153 112 153 c 0
 140 153 178 175 243 196 c 1
 242 198 241 201 241 203 c 0
 238 207 237 212 237 239 c 0
 237 285 240 309 261 423 c 1
 247 422 238 421 230 421 c 0
883 334 m 0
 883 346 893 354 909 354 c 0
 930 354 944 338 944 314 c 0
 944 292 902 197 885 180 c 0
 861 151 688 -57 684 -61 c 0
 671 -73 659 -86 646 -98 c 0
 620 -117 602 -126 592 -126 c 0
 581 -126 572 -117 572 -107 c 0
 572 -96 582 -81 606 -54 c 0
 693 43 639 -12 832 216 c 1
 863 269 876 292 889 320 c 0
 889 324 883 330 883 334 c 0
EndSplineSet
EndChar

StartChar: h`kf`d
Encoding: 983287 983287 11
Width: 1000
GlyphClass: 1
Flags: HMW
LayerCount: 2
Fore
SplineSet
714 276 m 1
 666 183 588 88 559 88 c 0
 548 88 539 96 539 106 c 0
 539 136 587 179 641 270 c 1
 623 266 621 266 615 266 c 0
 594 266 575 280 575 295 c 0
 575 306 582 311 608 317 c 0
 613 318 613 318 674 335 c 1
 680 349 683 355 686 361 c 1
 676 361 l 2
 656 361 656 361 569 341 c 0
 444 312 382 271 348 271 c 0
 333 271 315 287 315 299 c 0
 315 300 315 300 315 301 c 0
 312 302 310 307 310 311 c 0
 310 322 315 318 344 373 c 0
 345 375 392 453 464 588 c 0
 497 651 502 661 506 683 c 0
 503 689 503 689 503 692 c 0
 503 704 515 713 530 713 c 0
 550 713 564 697 564 672 c 0
 564 644 559 631 493 502 c 0
 465 449 434 396 413 360 c 1
 468 382 474 384 573 409 c 0
 636 424 648 426 670 426 c 0
 688 426 699 422 707 414 c 1
 708 413 708 413 708 412 c 1
 740 486 750 514 756 540 c 0
 758 549 760 553 764 558 c 0
 764 559 759 541 769 576 c 1
 798 576 l 1
 798 569 l 1
 805 564 809 554 809 540 c 0
 809 504 801 479 750 356 c 1
 754 356 810 374 814 374 c 0
 817 374 818 374 819 374 c 0
 821 374 827 375 829 375 c 0
 846 375 863 360 863 346 c 0
 863 343 862 341 859 336 c 1
 865 335 l 1
 843 316 l 2
 833 308 803 308 763 295 c 1
 798 280 853 228 874 191 c 0
 874 183 903 126 903 118 c 0
 903 105 890 93 874 91 c 2
 799 83 l 1
 844 104 l 1
 824 127 826 182 742 247 c 0
 724 260 717 268 714 276 c 1
213 380 m 2
 170 380 140 398 140 424 c 0
 140 435 150 443 164 443 c 0
 175 443 195 440 206 440 c 0
 220 440 299 464 313 464 c 0
 325 464 340 448 340 434 c 0
 340 426 337 420 331 414 c 0
 325 402 323 401 278 391 c 1
 279 382 280 376 280 369 c 0
 280 323 272 245 259 173 c 1
 279 177 281 177 284 177 c 0
 289 177 293 176 326 163 c 1
 312 159 l 1
 314 155 315 150 315 145 c 0
 315 130 310 124 291 117 c 0
 270 117 165 81 144 81 c 0
 131 81 123 82 104 86 c 1
 100 100 99 105 99 113 c 0
 99 123 101 129 107 134 c 1
 103 142 l 1
 128 141 128 141 131 141 c 0
 147 141 178 157 194 157 c 1
 194 165 201 201 212 297 c 0
 218 353 220 367 222 380 c 1
 219 380 213 380 213 380 c 2
410 -113 m 0
 371 -113 352 -89 352 -39 c 0
 352 9 376 178 376 226 c 0
 376 240 368 242 368 256 c 0
 368 257 368 256 370 273 c 1
 382 272 l 1
 385 273 389 274 390 274 c 0
 422 274 436 251 436 200 c 0
 436 149 417 10 417 -41 c 0
 417 -42 417 -43 417 -44 c 1
 505 14 577 68 670 145 c 0
 687 162 687 162 688 163 c 0
 695 168 701 170 707 170 c 0
 723 170 735 158 735 142 c 0
 735 123 726 111 678 71 c 0
 623 24 544 -36 482 -79 c 0
 439 -108 429 -113 410 -113 c 0
EndSplineSet
EndChar

StartChar: h`gr
Encoding: 983288 983288 12
Width: 1000
GlyphClass: 1
Flags: HMW
LayerCount: 2
Fore
SplineSet
643 654 m 0
 643 661 674 724 674 731 c 0
 674 743 666 747 666 759 c 0
 666 773 678 786 690 786 c 0
 693 786 698 784 701 781 c 0
 718 780 731 755 731 723 c 0
 731 706 726 687 713 661 c 0
 707 648 697 623 691 606 c 1
 741 617 787 625 806 625 c 0
 828 625 844 613 844 596 c 0
 844 580 830 567 806 562 c 0
 800 562 738 550 678 537 c 0
 673 536 668 535 663 534 c 1
 626 452 619 436 609 421 c 0
 592 394 589 388 584 379 c 1
 635 382 657 384 690 389 c 0
 709 391 715 392 730 392 c 0
 735 392 740 392 745 392 c 0
 779 405 817 402 833 405 c 0
 835 405 839 406 841 406 c 0
 852 406 860 404 867 398 c 1
 873 373 l 2
 873 372 872 370 872 369 c 0
 873 367 873 366 873 363 c 0
 873 352 859 342 840 339 c 0
 816 336 812 341 772 331 c 0
 756 327 750 326 741 326 c 0
 734 326 730 326 715 328 c 0
 649 314 634 321 540 308 c 0
 536 307 533 307 528 307 c 2
 521 307 l 2
 515 307 514 308 504 319 c 0
 497 325 493 332 493 341 c 0
 493 342 493 344 493 345 c 1
 491 345 l 1
 498 358 507 374 512 385 c 2
 513 386 568 478 589 526 c 1
 586 526 584 526 581 526 c 0
 508 526 443 553 443 584 c 0
 443 597 451 604 465 604 c 0
 504 604 534 590 573 590 c 0
 588 590 603 591 618 593 c 0
 618 594 638 644 643 654 c 0
797 122 m 0
 784 122 701 110 688 110 c 0
 673 110 664 110 661 111 c 0
 640 113 622 131 622 151 c 0
 622 165 631 183 657 222 c 1
 641 222 593 216 577 216 c 0
 518 216 471 238 471 266 c 0
 471 274 472 275 485 290 c 1
 494 281 l 2
 496 280 570 271 574 271 c 0
 594 271 727 305 747 305 c 0
 764 305 774 290 774 266 c 0
 774 262 774 261 773 253 c 1
 740 229 722 210 697 170 c 1
 778 182 799 185 801 185 c 0
 804 185 807 185 809 185 c 0
 866 178 876 172 876 141 c 0
 876 100 820 24 743 -38 c 0
 673 -95 504 -159 421 -159 c 0
 401 -159 387 -149 387 -135 c 0
 387 -117 400 -109 446 -99 c 0
 549 -78 649 -35 704 12 c 0
 753 55 786 92 804 121 c 1
 802 121 799 122 797 122 c 0
247 114 m 0
 182 114 126 131 126 151 c 0
 126 165 138 175 158 176 c 0
 165 176 173 177 180 177 c 0
 194 177 204 176 218 176 c 0
 246 176 286 180 333 188 c 1
 331 193 331 195 331 197 c 0
 331 201 331 202 332 204 c 0
 332 206 332 207 332 208 c 0
 332 215 335 212 337 233 c 0
 338 241 339 255 345 292 c 2
 353 339 361 387 364 406 c 1
 291 408 245 429 245 459 c 0
 245 470 253 476 266 476 c 0
 294 476 331 465 359 465 c 0
 382 465 411 472 434 472 c 0
 459 472 472 463 472 445 c 0
 472 425 465 419 419 407 c 1
 406 262 401 218 391 199 c 1
 397 200 441 208 444 208 c 0
 471 208 488 204 491 196 c 0
 500 194 507 183 507 171 c 0
 507 170 507 168 507 166 c 1
 518 163 l 1
 505 149 l 2
 499 142 489 137 479 137 c 0
 469 137 461 143 451 143 c 0
 414 143 284 114 247 114 c 0
EndSplineSet
EndChar

StartChar: h`gr`k
Encoding: 983289 983289 13
Width: 1000
GlyphClass: 1
Flags: HMW
LayerCount: 2
Fore
SplineSet
405 521 m 1
 354 525 293 557 293 579 c 0
 293 591 306 600 323 600 c 0
 348 600 378 585 396 583 c 0
 401 583 406 582 411 582 c 0
 424 582 430 582 436 583 c 1
 461 631 492 722 492 747 c 0
 492 749 492 751 492 754 c 0
 492 765 501 773 514 773 c 0
 535 773 548 758 548 734 c 0
 548 701 534 643 516 600 c 1
 539 607 587 617 601 617 c 0
 618 617 631 604 631 588 c 0
 631 573 618 559 597 553 c 0
 564 543 578 553 506 529 c 0
 494 525 486 523 478 522 c 1
 472 511 472 510 457 481 c 0
 451 469 440 450 431 435 c 1
 436 437 438 437 441 439 c 0
 474 453 517 466 556 475 c 1
 564 485 576 491 587 491 c 0
 588 491 590 491 591 491 c 0
 635 491 651 482 651 457 c 0
 651 437 637 428 589 418 c 0
 532 408 406 355 375 355 c 0
 373 355 370 356 368 356 c 0
 367 356 366 356 365 356 c 0
 352 356 330 377 330 389 c 0
 328 392 328 393 328 395 c 1
 315 396 l 1
 337 416 l 2
 344 422 351 425 358 426 c 1
 362 440 368 454 377 469 c 0
 383 479 390 491 405 521 c 1
543 276 m 1
 456 253 439 250 403 250 c 0
 336 250 280 273 280 301 c 0
 280 311 288 317 301 317 c 0
 330 317 352 310 381 310 c 0
 453 310 567 364 639 364 c 0
 649 364 656 361 662 355 c 0
 664 353 664 353 666 352 c 0
 671 349 675 342 675 334 c 0
 675 328 674 324 671 320 c 1
 679 316 l 1
 597 241 570 214 562 200 c 1
 567 200 l 2
 634 200 660 187 666 152 c 1
 704 247 806 448 807 451 c 0
 809 457 810 463 814 470 c 1
 814 471 l 2
 814 483 824 491 837 491 c 0
 853 491 862 479 862 460 c 0
 862 443 859 432 851 415 c 0
 850 413 775 249 743 174 c 1
 791 178 830 193 859 193 c 0
 869 193 879 191 895 187 c 0
 897 187 900 188 902 188 c 0
 917 188 928 181 934 169 c 1
 954 159 l 1
 947 156 l 1
 939 143 l 2
 930 128 917 122 893 122 c 0
 892 122 889 123 888 123 c 0
 884 123 864 129 860 129 c 0
 852 129 846 125 811 120 c 0
 803 120 712 105 704 105 c 0
 687 105 674 112 666 125 c 1
 630 17 394 -147 275 -147 c 0
 248 -147 238 -141 238 -126 c 0
 238 -112 256 -101 297 -88 c 0
 407 -54 566 63 604 138 c 1
 559 138 l 1
 523 139 493 164 493 193 c 0
 493 212 502 231 526 259 c 0
 532 265 537 270 543 276 c 1
147 106 m 0
 98 106 61 129 61 158 c 0
 61 170 72 178 90 178 c 0
 110 178 114 169 134 169 c 0
 143 169 154 170 165 172 c 1
 159 176 155 183 152 196 c 1
 174 255 176 268 188 385 c 1
 143 391 98 425 98 454 c 0
 98 464 106 472 117 472 c 0
 154 472 165 440 202 440 c 0
 210 440 211 440 228 447 c 1
 246 455 267 461 278 461 c 0
 284 461 279 462 299 455 c 1
 305 436 305 438 305 430 c 0
 305 406 287 395 239 388 c 1
 235 293 l 2
 233 232 227 210 206 182 c 1
 283 200 271 198 287 199 c 0
 294 200 327 203 331 205 c 0
 335 206 339 208 345 208 c 0
 361 208 380 196 389 181 c 1
 393 178 l 1
 391 177 l 1
 393 173 393 170 394 166 c 0
 388 142 377 132 357 132 c 0
 349 132 339 139 331 139 c 0
 330 139 327 138 322 137 c 0
 296 130 268 131 214 116 c 0
 189 109 170 106 147 106 c 0
EndSplineSet
EndChar

StartChar: hs
Encoding: 983290 983290 14
Width: 1000
GlyphClass: 1
Flags: HMW
LayerCount: 2
Fore
SplineSet
502 402 m 1
 558 405 707 417 709 417 c 0
 751 417 798 408 834 392 c 2
 864 379 l 1
 850 374 l 1
 851 373 851 372 857 364 c 1
 852 356 852 357 852 356 c 1
 860 356 l 1
 839 336 l 2
 835 332 828 330 822 330 c 0
 805 330 776 348 711 351 c 1
 507 337 440 330 399 320 c 0
 377 315 333 302 332 302 c 0
 298 299 264 295 228 290 c 1
 200 294 191 297 146 312 c 1
 146 338 l 1
 171 348 177 350 204 351 c 0
 221 351 231 352 308 365 c 0
 358 373 367 384 437 394 c 1
 442 438 475 562 487 578 c 1
 473 574 425 570 400 570 c 0
 338 570 289 594 289 624 c 0
 289 636 298 646 309 646 c 0
 338 646 356 630 385 630 c 0
 402 630 497 645 540 651 c 1
 604 668 632 675 642 675 c 0
 658 675 675 657 675 640 c 0
 675 618 635 603 523 584 c 1
 529 576 533 562 533 548 c 0
 533 519 509 449 502 402 c 1
308 188 m 0
 240 188 203 203 203 231 c 0
 203 244 212 249 233 249 c 0
 243 249 259 249 273 249 c 0
 357 249 520 274 637 306 c 0
 673 315 702 320 718 320 c 0
 735 320 750 316 767 307 c 1
 781 293 788 279 788 264 c 0
 788 207 741 74 677 -52 c 0
 633 -140 607 -173 583 -173 c 0
 571 -173 564 -165 564 -151 c 0
 564 -136 571 -119 589 -88 c 0
 644 8 722 207 722 254 c 1
 721 254 720 254 719 254 c 0
 675 254 629 226 445 200 c 0
 391 192 347 188 308 188 c 0
EndSplineSet
EndChar

StartChar: hsa
Encoding: 983291 983291 15
Width: 1000
GlyphClass: 1
Flags: HMW
LayerCount: 2
Fore
SplineSet
685 -45 m 2
 677 -45 l 2
 645 -45 617 -43 585 -43 c 0
 447 -43 426 -67 316 -78 c 0
 270 -82 260 -90 240 -90 c 0
 201 -90 128 -46 128 -22 c 0
 128 -9 140 1 154 1 c 0
 174 1 176 -8 223 -20 c 0
 229 -22 235 -24 241 -26 c 0
 277 -17 302 -12 318 -12 c 0
 322 -12 324 -12 326 -12 c 0
 414 -12 487 23 575 23 c 0
 752 23 869 2 869 -29 c 0
 869 -30 868 -30 868 -31 c 0
 871 -35 873 -41 873 -46 c 0
 873 -60 859 -74 844 -74 c 0
 843 -74 841 -74 839 -74 c 0
 827 -74 813 -60 736 -51 c 0
 702 -48 686 -45 685 -45 c 2
286 325 m 0
 326 325 348 301 388 301 c 0
 408 301 422 304 452 313 c 0
 516 334 521 330 594 351 c 0
 624 359 628 360 663 360 c 0
 664 360 665 360 666 360 c 0
 694 360 685 365 713 365 c 0
 752 365 783 339 783 305 c 0
 783 241 702 82 669 82 c 0
 657 82 650 91 650 106 c 0
 650 144 692 195 718 297 c 1
 716 297 714 297 713 298 c 0
 703 295 695 294 680 294 c 0
 675 294 662 294 650 295 c 2
 625 295 621 286 534 268 c 0
 494 259 454 248 453 248 c 0
 433 243 416 241 400 241 c 0
 334 241 267 273 267 304 c 0
 267 305 266 307 268 310 c 0
 268 318 277 325 286 325 c 0
817 431 m 1
 809 421 l 1
 812 413 l 1
 816 411 l 1
 818 412 l 1
 826 429 l 1
 819 432 l 1
 817 431 l 1
454 603 m 0
 385 603 333 629 333 662 c 0
 333 674 341 681 356 681 c 0
 392 681 410 664 446 664 c 0
 502 664 618 701 674 701 c 0
 692 701 706 689 706 673 c 0
 706 668 704 663 700 656 c 0
 698 646 687 641 658 634 c 0
 615 623 606 621 586 617 c 0
 586 615 586 613 586 610 c 0
 586 578 571 518 571 486 c 0
 571 484 571 482 571 480 c 0
 571 476 570 471 570 467 c 1
 630 472 677 474 720 474 c 0
 745 474 759 474 810 471 c 0
 841 468 848 465 852 449 c 0
 855 439 855 439 855 436 c 0
 855 422 837 405 823 405 c 2
 819 405 l 2
 785 405 754 408 720 408 c 0
 568 408 457 368 305 368 c 0
 232 368 161 396 161 424 c 0
 161 436 171 443 189 443 c 0
 193 443 289 432 290 432 c 0
 348 433 392 439 512 459 c 1
 508 475 506 486 506 499 c 0
 506 524 517 580 528 608 c 1
 498 605 473 603 454 603 c 0
EndSplineSet
EndChar

StartChar: |hf
Encoding: 983292 983292 16
Width: 1000
GlyphClass: 1
Flags: HMW
LayerCount: 2
Fore
SplineSet
496 597 m 0
 405 597 316 636 316 676 c 0
 316 687 323 695 332 695 c 0
 390 695 431 660 489 660 c 0
 533 660 594 672 638 672 c 0
 642 672 642 672 658 671 c 1
 658 664 l 1
 666 660 670 652 670 642 c 0
 670 615 657 610 574 601 c 1
 574 600 l 2
 574 598 549 460 548 455 c 1
 661 473 693 476 741 476 c 2
 771 476 l 2
 814 476 832 468 832 449 c 2
 832 445 l 2
 832 441 833 440 833 436 c 0
 833 434 833 435 831 428 c 1
 805 405 l 1
 798 405 793 405 730 411 c 1
 672 407 642 403 564 391 c 0
 527 385 498 380 477 377 c 1
 483 372 489 366 495 359 c 1
 501 335 504 314 504 289 c 0
 504 199 479 79 471 -19 c 1
 522 0 648 99 748 199 c 0
 766 216 775 221 786 221 c 0
 801 221 813 209 813 194 c 0
 813 155 625 -13 515 -71 c 0
 489 -85 469 -91 448 -91 c 1
 440 -91 429 -87 422 -81 c 1
 410 -63 l 1
 407 -55 405 -46 405 -36 c 0
 405 49 438 200 438 285 c 0
 438 309 436 319 436 343 c 0
 436 355 438 366 441 373 c 1
 436 372 432 372 426 372 c 0
 356 372 287 382 259 396 c 1
 259 385 259 375 259 364 c 0
 259 285 257 258 248 189 c 0
 241 143 235 88 236 80 c 0
 236 74 233 58 231 50 c 1
 216 23 l 1
 210 19 206 17 201 17 c 0
 183 17 167 35 167 54 c 0
 167 135 194 279 194 360 c 0
 194 409 192 435 188 449 c 0
 186 457 182 464 181 470 c 0
 181 472 180 475 180 477 c 0
 180 489 191 498 207 498 c 0
 229 498 244 483 253 450 c 0
 256 450 258 451 261 451 c 0
 346 451 328 438 413 438 c 0
 434 438 448 439 473 443 c 1
 473 444 l 2
 473 450 476 456 480 460 c 0
 490 468 483 495 513 598 c 1
 507 598 502 597 496 597 c 0
501 443 m 1
 510 454 l 1
 498 467 l 1
 497 467 l 1
 488 455 l 1
 500 443 l 1
 501 443 l 1
EndSplineSet
EndChar

StartChar: |hfo
Encoding: 983293 983293 17
Width: 1000
GlyphClass: 1
Flags: HMW
LayerCount: 2
Fore
SplineSet
420 689 m 0
 504 689 605 720 689 720 c 0
 700 720 703 720 716 716 c 1
 723 686 724 696 724 685 c 0
 724 666 710 658 673 655 c 0
 650 653 629 651 598 645 c 1
 605 638 609 625 609 609 c 0
 609 607 601 499 601 497 c 1
 663 506 723 511 781 511 c 1
 834 508 837 507 840 493 c 0
 842 485 847 482 847 472 c 0
 847 463 842 456 833 452 c 1
 829 445 824 442 817 442 c 2
 804 443 784 444 769 444 c 0
 661 444 477 402 369 402 c 0
 319 402 297 406 280 417 c 0
 267 426 260 437 260 449 c 0
 260 462 272 470 292 470 c 0
 320 470 321 466 349 466 c 0
 401 466 461 473 523 487 c 0
 529 489 533 490 533 491 c 1
 544 509 535 604 561 639 c 1
 517 631 478 627 429 625 c 0
 425 625 423 625 422 625 c 0
 369 625 361 627 300 664 c 1
 292 679 290 683 290 691 c 0
 290 703 300 712 315 712 c 0
 326 712 347 705 371 693 c 1
 392 690 404 689 420 689 c 0
155 132 m 0
 155 255 170 306 170 429 c 0
 170 457 169 466 162 489 c 1
 158 502 156 513 156 514 c 0
 154 520 154 523 154 525 c 1
 154 534 161 541 172 541 c 0
 209 541 234 494 234 425 c 0
 234 339 234 339 224 242 c 1
 221 148 221 145 221 130 c 0
 221 119 221 111 221 104 c 1
 230 100 235 90 235 76 c 0
 235 60 232 45 226 30 c 0
 226 28 226 26 226 24 c 0
 226 7 210 -6 189 -6 c 0
 175 -6 166 2 160 18 c 1
 160 24 l 2
 160 71 155 85 155 132 c 0
770 365 m 0
 787 365 802 349 802 330 c 0
 802 281 733 166 646 69 c 0
 559 -29 518 -67 498 -67 c 0
 488 -67 480 -59 480 -49 c 0
 480 -31 549 62 602 115 c 0
 708 238 742 333 744 335 c 0
 744 336 745 337 746 341 c 0
 746 346 748 352 750 355 c 1
 754 367 l 1
 757 361 l 1
 764 364 766 365 770 365 c 0
327 351 m 0
 360 351 366 323 366 166 c 0
 366 136 361 32 361 2 c 1
 389 24 420 51 448 77 c 0
 497 122 508 130 524 130 c 0
 535 130 543 122 543 112 c 0
 543 81 469 4 355 -85 c 0
 351 -86 348 -86 341 -86 c 0
 329 -86 320 -82 308 -73 c 1
 299 -51 297 -41 297 -10 c 0
 297 127 303 140 303 277 c 0
 303 281 303 298 303 298 c 2
 303 336 310 351 327 351 c 0
352 -43 m 1
 349 -42 l 1
 338 -50 l 1
 338 -51 l 1
 347 -60 l 2
 348 -60 349 -59 350 -59 c 2
 352 -43 l 1
EndSplineSet
EndChar

StartChar: hem
Encoding: 983294 983294 18
Width: 1000
GlyphClass: 1
Flags: HMW
LayerCount: 2
Fore
SplineSet
821 385 m 0
 808 385 786 392 725 395 c 1
 708 392 700 391 657 385 c 0
 655 385 521 366 518 365 c 0
 513 365 437 356 432 356 c 0
 414 356 397 363 379 378 c 0
 377 383 377 385 377 391 c 0
 377 398 379 404 383 409 c 1
 375 415 l 1
 386 417 396 418 400 418 c 2
 401 418 400 418 401 418 c 0
 408 419 408 419 410 419 c 0
 416 419 419 416 425 416 c 0
 429 416 509 428 560 437 c 0
 560 490 574 615 584 645 c 1
 430 650 414 653 373 683 c 0
 367 687 363 692 363 698 c 0
 363 701 364 703 364 706 c 2
 366 719 l 1
 469 699 469 699 482 699 c 0
 558 699 647 707 659 714 c 0
 666 718 673 720 684 720 c 0
 698 720 708 717 722 708 c 1
 729 692 729 692 729 685 c 0
 729 669 717 656 701 654 c 0
 692 653 687 655 671 653 c 0
 647 650 644 650 633 649 c 1
 635 642 635 635 635 617 c 0
 635 576 626 486 625 448 c 1
 646 450 701 456 702 456 c 0
 721 458 734 459 747 459 c 0
 767 459 796 456 815 453 c 0
 820 455 824 456 829 456 c 0
 850 456 867 441 867 422 c 0
 867 400 848 385 821 385 c 0
332 201 m 0
 373 186 381 183 514 113 c 1
 562 156 597 201 622 251 c 1
 549 240 436 203 392 203 c 0
 330 203 229 228 211 248 c 0
 209 250 209 250 202 256 c 0
 198 259 195 264 195 270 c 0
 195 281 206 289 222 289 c 0
 241 289 252 274 364 266 c 1
 359 278 354 286 337 313 c 0
 286 394 270 415 204 484 c 0
 150 541 147 545 147 557 c 0
 147 567 154 574 163 574 c 2
 164 574 l 2
 191 574 290 481 350 399 c 0
 351 398 404 321 414 310 c 0
 418 305 424 295 426 290 c 0
 427 287 427 283 428 280 c 0
 428 277 426 275 425 272 c 1
 549 303 549 303 552 303 c 0
 593 313 628 319 648 319 c 0
 672 319 699 297 699 277 c 0
 699 237 639 142 572 78 c 1
 601 57 621 41 659 12 c 0
 685 -8 700 -18 717 -28 c 2
 733 -38 745 -46 747 -47 c 0
 755 -51 765 -56 773 -60 c 0
 785 -67 789 -70 816 -91 c 1
 802 -95 l 1
 803 -97 803 -98 803 -101 c 0
 803 -111 797 -120 785 -129 c 0
 781 -130 779 -130 772 -130 c 0
 760 -130 750 -126 742 -118 c 1
 723 -111 707 -104 698 -97 c 0
 675 -81 634 -56 584 -15 c 0
 580 -11 529 28 520 34 c 1
 423 -37 318 -73 204 -73 c 0
 156 -73 134 -63 134 -40 c 0
 134 -34 136 -28 140 -24 c 0
 170 9 291 -44 457 71 c 1
 436 82 422 91 384 113 c 0
 341 139 326 146 280 162 c 0
 279 162 239 177 229 180 c 0
 210 186 193 201 193 212 c 0
 193 219 200 226 209 226 c 0
 217 226 222 223 230 223 c 0
 233 223 238 223 243 223 c 0
 255 223 320 201 332 201 c 0
669 287 m 1
 675 299 l 1
 669 301 l 1
 665 300 l 1
 669 287 l 1
EndSplineSet
EndChar

StartChar: hmi
Encoding: 983295 983295 19
Width: 1000
GlyphClass: 1
Flags: HMW
LayerCount: 2
Fore
SplineSet
256 320 m 0
 189 320 153 336 153 365 c 0
 153 375 161 384 171 384 c 0
 211 384 199 374 239 374 c 0
 248 374 294 379 508 406 c 1
 500 412 494 426 493 438 c 1
 493 447 498 455 508 459 c 0
 508 461 509 464 509 466 c 0
 511 482 535 593 538 598 c 1
 469 581 454 573 421 573 c 2
 375 573 l 2
 339 573 297 598 297 620 c 0
 297 631 306 637 307 639 c 2
 314 651 l 1
 325 645 332 640 331 640 c 1
 344 639 343 631 386 631 c 0
 390 631 393 631 396 631 c 0
 470 631 488 657 602 679 c 0
 631 684 683 699 703 699 c 0
 718 699 724 694 736 677 c 1
 736 673 l 2
 736 651 723 635 702 631 c 0
 683 627 676 620 663 620 c 0
 658 620 654 621 650 623 c 0
 627 618 607 614 589 610 c 1
 589 608 l 1
 592 597 592 595 592 589 c 0
 592 566 587 531 578 498 c 0
 574 456 565 425 553 411 c 1
 584 415 605 418 606 418 c 0
 637 422 695 427 717 431 c 0
 814 444 849 451 850 451 c 0
 855 451 862 449 872 445 c 1
 892 425 l 1
 891 425 l 1
 892 425 894 422 897 418 c 1
 887 403 886 401 881 395 c 0
 878 382 862 368 840 359 c 0
 838 359 835 358 833 358 c 0
 821 358 812 365 809 376 c 1
 794 373 771 371 745 370 c 0
 692 360 700 365 619 354 c 0
 567 354 308 320 256 320 c 0
289 -12 m 0
 289 10 301 17 339 17 c 0
 346 17 366 17 388 16 c 2
 457 16 525 44 596 100 c 1
 574 121 548 141 517 161 c 0
 494 166 470 177 459 188 c 0
 447 197 444 201 444 209 c 0
 444 220 452 227 464 227 c 0
 475 227 490 221 515 216 c 0
 542 210 605 171 641 139 c 1
 707 199 741 237 763 273 c 1
 641 242 590 233 537 233 c 0
 486 233 445 252 445 275 c 0
 445 283 450 289 458 292 c 0
 467 292 472 297 481 297 c 0
 488 297 494 295 501 292 c 0
 507 291 519 291 530 291 c 1
 566 291 776 347 812 347 c 0
 828 347 837 337 846 314 c 1
 830 244 792 190 692 98 c 1
 744 58 836 -5 860 -18 c 0
 897 -40 899 -41 911 -58 c 1
 905 -70 906 -67 906 -73 c 0
 906 -77 905 -81 903 -85 c 1
 945 -101 l 1
 876 -100 l 2
 868 -100 866 -99 845 -86 c 0
 716 -3 687 18 643 56 c 1
 569 -8 476 -46 395 -46 c 0
 375 -46 337 -43 321 -40 c 0
 301 -36 289 -26 289 -12 c 0
112 -54 m 1
 100 6 94 -7 94 8 c 0
 94 17 101 24 111 24 c 0
 117 24 123 22 131 17 c 1
 219 127 347 234 390 234 c 0
 400 234 407 227 407 217 c 0
 407 202 374 162 336 133 c 0
 287 93 264 70 184 -22 c 1
 152 -53 l 1
 149 -50 l 1
 143 -52 140 -52 137 -52 c 0
 131 -52 125 -50 120 -47 c 1
 112 -54 l 1
142 -19 m 1
 158 -7 l 1
 147 3 l 1
 143 3 l 1
 138 -17 l 1
 142 -19 l 1
150 -30 m 1
 159 -22 l 1
 150 -14 l 1
 142 -22 l 1
 150 -30 l 1
123 -43 m 1
 136 -30 l 1
 126 -21 l 1
 123 -22 l 1
 117 -39 l 1
 123 -43 l 1
EndSplineSet
EndChar

StartChar: |gr
Encoding: 983296 983296 20
Width: 1000
GlyphClass: 1
Flags: HMW
LayerCount: 2
Fore
SplineSet
430 215 m 0
 370 215 328 235 328 262 c 0
 328 272 336 279 349 279 c 0
 371 279 398 270 420 270 c 0
 496 270 643 342 719 342 c 0
 736 342 745 329 745 307 c 0
 745 301 745 298 742 288 c 1
 707 264 687 245 624 178 c 1
 678 181 695 182 715 182 c 0
 776 182 810 164 810 133 c 0
 810 107 783 77 721 36 c 0
 563 -79 483 -114 381 -114 c 0
 340 -114 329 -110 329 -94 c 0
 329 -77 353 -66 413 -54 c 0
 483 -40 557 -5 636 53 c 0
 717 112 717 112 729 122 c 1
 724 123 720 123 711 123 c 0
 695 123 600 115 584 115 c 0
 578 115 573 115 569 115 c 0
 544 117 527 132 527 152 c 0
 527 165 533 172 599 243 c 1
 541 225 482 215 430 215 c 0
234 573 m 0
 260 573 273 553 273 516 c 0
 273 447 259 347 257 181 c 0
 259 170 260 158 260 147 c 0
 260 134 260 127 258 117 c 0
 256 111 256 105 254 91 c 1
 224 78 222 77 212 77 c 0
 200 77 192 87 191 103 c 0
 191 107 190 114 190 118 c 0
 190 223 195 300 209 421 c 0
 216 485 219 510 219 519 c 0
 219 523 218 528 218 532 c 0
 212 535 207 542 207 550 c 0
 207 564 218 573 234 573 c 0
756 459 m 1
 769 455 777 443 777 428 c 0
 777 411 763 402 726 397 c 0
 655 387 490 310 401 310 c 0
 373 310 352 326 352 348 c 0
 352 358 363 380 384 416 c 0
 388 423 392 430 396 437 c 0
 438 509 450 517 482 566 c 1
 430 558 424 557 415 557 c 0
 361 557 314 588 314 624 c 0
 314 635 321 643 330 643 c 0
 358 643 381 611 409 611 c 0
 424 611 471 621 523 635 c 1
 585 727 592 735 616 743 c 0
 619 744 621 745 624 745 c 0
 633 745 640 736 640 724 c 0
 640 709 634 690 622 669 c 1
 641 675 649 678 659 680 c 1
 663 692 677 699 700 699 c 0
 727 699 736 696 752 680 c 0
 756 676 759 670 759 664 c 0
 759 658 758 656 752 647 c 0
 748 637 743 634 712 627 c 0
 650 612 639 609 569 586 c 1
 541 538 522 510 470 435 c 0
 443 384 447 391 439 378 c 1
 522 394 618 443 690 457 c 0
 700 460 702 460 704 460 c 0
 708 464 714 466 723 466 c 0
 733 466 737 465 757 461 c 1
 756 459 l 1
EndSplineSet
EndChar

StartChar: h`mk
Encoding: 983297 983297 21
Width: 1000
GlyphClass: 1
Flags: HMW
LayerCount: 2
Fore
SplineSet
333 296 m 1
 332 283 328 206 324 191 c 1
 326 191 386 195 388 195 c 0
 427 195 446 185 446 165 c 2
 446 164 l 2
 446 161 447 159 447 156 c 0
 447 148 442 139 434 135 c 1
 443 127 l 1
 481 182 590 350 593 358 c 0
 596 366 604 371 613 371 c 0
 628 371 643 355 643 339 c 0
 643 325 637 313 615 276 c 0
 575 210 546 165 459 36 c 1
 460 36 462 36 464 36 c 0
 509 36 604 42 643 47 c 0
 683 51 680 51 704 51 c 0
 743 51 746 46 785 46 c 0
 793 46 799 47 807 47 c 2
 807 47 807 47 824 46 c 0
 842 44 859 28 859 13 c 0
 859 12 859 12 858 -3 c 1
 853 -3 l 1
 847 -15 834 -21 816 -21 c 0
 809 -21 806 -20 799 -20 c 2
 799 -20 785 -20 784 -20 c 0
 746 -20 742 -15 704 -15 c 0
 639 -15 669 -24 580 -26 c 0
 570 -26 495 -29 485 -29 c 0
 411 -29 374 -14 374 15 c 0
 374 26 380 39 401 67 c 0
 414 86 428 105 442 126 c 1
 396 130 395 130 378 130 c 0
 341 130 217 112 180 112 c 0
 133 112 98 136 98 169 c 0
 98 179 105 185 115 185 c 0
 121 185 134 180 151 172 c 1
 170 172 170 172 263 186 c 0
 263 187 263 189 263 191 c 0
 263 204 265 224 281 369 c 1
 230 369 204 381 182 412 c 0
 177 421 174 428 174 436 c 0
 174 448 178 455 189 459 c 2
 202 464 l 1
 206 451 l 2
 211 437 241 421 264 421 c 0
 274 421 297 428 328 431 c 0
 341 432 341 432 350 437 c 1
 359 443 371 447 378 447 c 0
 394 447 408 432 408 415 c 0
 408 394 378 377 336 374 c 1
 336 350 l 1
 386 351 418 366 486 420 c 0
 537 460 587 503 607 523 c 1
 519 576 433 580 433 608 c 0
 433 621 447 630 468 630 c 0
 505 630 594 600 647 570 c 1
 659 586 675 608 690 632 c 1
 642 624 646 625 637 625 c 0
 556 625 500 641 500 665 c 0
 500 674 507 680 518 680 c 0
 550 680 588 677 620 677 c 0
 627 677 633 677 640 677 c 0
 748 698 714 692 722 692 c 0
 746 692 763 678 763 657 c 0
 763 640 738 594 700 538 c 1
 737 515 772 494 790 483 c 0
 874 433 904 406 904 382 c 0
 904 366 897 360 861 342 c 0
 855 339 849 338 838 338 c 0
 824 338 815 348 815 362 c 0
 815 369 815 372 817 376 c 0
 817 378 819 382 820 384 c 0
 813 389 812 389 785 409 c 0
 744 439 705 458 660 488 c 1
 636 460 618 444 528 372 c 0
 451 311 412 293 355 293 c 0
 347 293 341 294 333 296 c 1
831 13 m 1
 842 -2 l 1
 850 5 l 1
 839 19 l 1
 838 19 l 1
 831 13 l 1
EndSplineSet
EndChar

StartChar: hp
Encoding: 983298 983298 22
Width: 1000
GlyphClass: 1
Flags: HMW
LayerCount: 2
Fore
SplineSet
763 -54 m 1
 764 -48 l 1
 752 -37 l 1
 742 -42 l 1
 741 -48 l 1
 753 -60 l 1
 763 -54 l 1
285 -74 m 0
 230 -74 217 -70 217 -55 c 0
 209 -50 206 -44 206 -36 c 0
 206 -35 206 -34 206 -33 c 0
 206 38 227 88 227 159 c 0
 227 175 226 193 226 209 c 0
 226 224 226 230 228 260 c 0
 230 275 235 280 247 280 c 0
 271 280 275 272 284 211 c 0
 287 184 289 160 289 137 c 0
 289 90 284 39 274 -11 c 1
 327 -9 359 -6 387 2 c 0
 488 29 546 20 612 29 c 0
 624 31 629 31 634 31 c 0
 662 31 677 37 705 37 c 0
 709 37 712 37 716 37 c 1
 714 97 713 160 713 206 c 0
 713 286 718 309 737 309 c 0
 745 309 752 303 761 291 c 0
 773 273 776 255 779 154 c 0
 782 53 787 -27 787 -29 c 2
 787 -30 l 2
 787 -38 789 -42 789 -50 c 0
 789 -58 789 -62 788 -66 c 2
 769 -157 l 1
 765 -94 l 1
 765 -94 765 -94 764 -94 c 0
 763 -94 758 -93 752 -92 c 1
 747 -107 l 1
 732 -85 l 2
 726 -77 724 -66 722 -33 c 1
 714 -32 711 -29 706 -29 c 2
 706 -29 706 -29 705 -29 c 0
 697 -29 686 -30 676 -31 c 0
 674 -31 556 -44 505 -48 c 0
 448 -52 417 -57 382 -67 c 0
 351 -72 319 -74 285 -74 c 0
503 431 m 1
 502 430 502 430 502 427 c 1
 514 415 l 1
 516 415 l 1
 518 427 l 1
 503 431 l 1
206 299 m 0
 135 299 89 313 89 335 c 0
 89 350 113 364 139 364 c 2
 162 363 181 363 183 363 c 0
 231 363 384 372 460 380 c 1
 461 393 468 395 469 400 c 0
 467 403 466 408 466 415 c 2
 466 428 l 2
 466 440 468 455 468 467 c 0
 468 468 467 437 462 562 c 1
 436 557 407 555 377 555 c 0
 297 555 241 569 218 595 c 0
 213 602 213 603 213 608 c 0
 213 618 220 624 234 624 c 0
 274 624 307 614 347 614 c 0
 394 614 478 636 525 636 c 0
 546 640 562 643 569 647 c 0
 577 651 576 653 583 658 c 0
 592 665 606 669 623 669 c 0
 658 669 683 653 683 631 c 0
 683 612 666 595 646 595 c 0
 645 595 643 595 642 595 c 0
 641 595 570 574 523 569 c 1
 526 549 526 515 531 487 c 0
 532 483 532 479 532 473 c 2
 532 422 l 2
 532 414 532 411 531 409 c 0
 533 401 533 401 533 398 c 2
 533 393 533 388 532 385 c 1
 618 389 646 390 699 390 c 0
 765 390 826 384 877 373 c 0
 896 369 901 367 903 359 c 0
 908 354 911 347 911 339 c 0
 911 323 896 305 883 305 c 0
 881 305 880 304 878 304 c 0
 876 303 873 303 865 303 c 0
 855 303 851 304 841 310 c 0
 828 318 761 323 675 323 c 0
 530 323 351 299 206 299 c 0
EndSplineSet
EndChar

StartChar: hpe
Encoding: 983299 983299 23
Width: 1000
GlyphClass: 1
Flags: HMW
LayerCount: 2
Fore
SplineSet
493 659 m 0
 523 659 561 666 591 666 c 0
 602 666 612 664 621 661 c 1
 627 663 631 663 644 663 c 0
 671 663 694 658 710 649 c 2
 741 632 l 1
 729 629 l 1
 730 627 730 626 730 622 c 0
 730 616 726 609 726 603 c 0
 725 593 717 588 703 586 c 0
 691 585 684 583 678 583 c 0
 662 583 664 597 648 597 c 0
 640 597 630 596 622 596 c 0
 609 596 599 598 586 598 c 0
 574 598 548 596 535 594 c 1
 533 567 531 498 531 420 c 0
 531 414 532 409 532 403 c 1
 540 403 547 404 555 404 c 0
 664 404 729 398 812 379 c 0
 827 375 838 373 844 372 c 0
 862 368 874 363 885 356 c 2
 924 326 l 1
 926 326 l 1
 925 325 l 1
 911 319 942 333 877 303 c 0
 868 299 867 299 862 299 c 0
 850 299 853 303 828 308 c 2
 779 319 l 2
 719 332 647 338 554 338 c 0
 530 338 523 332 499 332 c 0
 497 332 418 333 416 333 c 0
 380 333 343 332 307 332 c 0
 220 332 188 334 162 343 c 0
 145 349 137 350 129 356 c 0
 126 359 125 361 124 361 c 0
 117 363 111 371 111 380 c 0
 111 393 123 402 139 402 c 0
 193 402 176 397 230 397 c 0
 280 397 384 399 434 399 c 0
 445 399 455 398 466 398 c 1
 466 416 l 2
 466 509 468 559 473 594 c 1
 429 594 385 582 341 582 c 0
 311 582 311 596 288 605 c 0
 279 609 276 611 275 615 c 0
 270 619 266 627 267 635 c 1
 267 648 277 655 294 655 c 0
 306 655 317 652 333 644 c 1
 382 653 434 659 462 659 c 0
 471 659 482 659 493 659 c 0
461 271 m 1
 447 271 l 1
 445 266 l 1
 445 263 l 1
 456 256 l 1
 461 257 l 1
 461 271 l 1
741 24 m 1
 741 66 738 89 738 131 c 0
 738 145 740 205 740 219 c 0
 740 225 739 237 738 247 c 1
 738 265 750 279 766 279 c 0
 771 279 776 278 783 274 c 1
 788 292 l 1
 805 237 804 240 805 227 c 0
 805 221 805 212 805 204 c 0
 805 180 804 153 804 129 c 0
 804 35 821 39 821 -55 c 0
 821 -82 811 -96 791 -96 c 0
 780 -96 772 -92 766 -84 c 1
 758 -101 l 1
 755 -39 755 -37 750 -19 c 1
 748 -24 745 -28 742 -33 c 1
 697 -42 670 -47 635 -53 c 0
 621 -58 622 -58 566 -80 c 0
 535 -93 518 -97 501 -97 c 0
 475 -97 450 -88 440 -76 c 0
 430 -63 428 -44 428 39 c 0
 428 40 428 116 428 118 c 0
 428 166 422 202 422 250 c 2
 422 260 l 1
 408 273 l 1
 432 276 l 1
 437 281 444 284 453 284 c 0
 467 284 476 275 482 251 c 0
 490 224 494 185 494 135 c 0
 494 107 492 45 492 17 c 0
 492 -6 493 -20 495 -32 c 0
 497 -32 498 -33 500 -33 c 0
 510 -33 522 -29 549 -17 c 0
 550 -17 611 8 616 9 c 0
 717 28 717 28 724 28 c 0
 729 28 733 27 741 24 c 1
765 -59 m 1
 783 -59 l 1
 782 -58 l 1
 765 -59 l 1
314 -91 m 1
 307 -83 235 -3 235 -3 c 0
 209 25 174 109 141 139 c 0
 121 158 113 169 113 179 c 0
 113 181 114 183 117 188 c 1
 113 198 l 1
 132 199 131 199 132 199 c 0
 146 199 174 180 198 154 c 0
 229 121 253 63 302 19 c 0
 309 12 316 6 323 -1 c 0
 353 -39 354 -40 354 -49 c 0
 351 -72 342 -83 326 -83 c 0
 322 -83 320 -83 318 -82 c 1
 314 -91 l 1
EndSplineSet
EndChar

StartChar: |htu
Encoding: 983300 983300 24
Width: 1000
GlyphClass: 1
Flags: HMW
LayerCount: 2
Fore
SplineSet
102 543 m 0
 102 575 106 582 123 582 c 0
 149 582 165 549 165 498 c 0
 165 412 145 303 145 217 c 0
 145 196 147 180 147 159 c 0
 147 150 145 104 145 95 c 0
 144 81 145 79 143 74 c 2
 134 57 l 1
 128 65 l 1
 123 62 118 60 113 60 c 0
 108 60 103 61 100 63 c 1
 86 36 l 1
 78 100 78 102 78 156 c 0
 78 272 102 385 102 501 c 0
 102 513 102 535 102 543 c 0
624 691 m 1
 617 686 584 677 539 669 c 1
 543 660 545 651 545 636 c 0
 545 598 535 508 533 435 c 1
 580 442 612 445 639 445 c 0
 645 445 649 445 655 445 c 0
 675 445 701 447 721 447 c 0
 729 447 732 447 742 445 c 2
 754 444 773 442 788 440 c 0
 795 439 802 438 802 438 c 2
 827 435 840 426 840 411 c 0
 840 407 839 403 836 399 c 0
 836 398 835 397 835 396 c 2
 844 394 l 1
 829 385 l 2
 828 384 826 382 825 381 c 1
 835 372 l 1
 795 370 795 370 784 370 c 0
 744 370 753 380 713 380 c 0
 710 380 656 379 653 379 c 0
 652 379 638 379 638 379 c 2
 593 379 550 367 505 367 c 2
 504 367 l 1
 506 360 506 361 506 359 c 0
 506 355 505 353 505 349 c 0
 505 348 505 347 505 346 c 0
 505 317 455 200 426 159 c 1
 451 147 471 131 504 95 c 2
 517 81 529 67 534 62 c 2
 558 35 l 1
 581 7 593 -16 603 -53 c 1
 595 -54 l 1
 594 -69 584 -79 570 -79 c 2
 569 -79 l 1
 567 -81 563 -82 562 -82 c 2
 561 -81 l 1
 549 -81 536 -66 529 -41 c 0
 524 -28 524 -27 485 18 c 0
 477 27 470 37 462 46 c 0
 428 87 409 105 391 112 c 0
 390 111 371 79 337 39 c 0
 294 -11 214 -48 148 -48 c 0
 125 -48 108 -38 108 -25 c 0
 108 -11 127 2 158 9 c 0
 209 19 260 46 288 80 c 0
 326 124 381 209 389 217 c 0
 414 251 437 338 456 363 c 1
 404 356 402 356 379 356 c 0
 369 356 360 356 351 356 c 0
 323 356 308 353 280 353 c 2
 262 353 l 2
 254 353 247 355 241 360 c 1
 213 365 178 385 178 397 c 0
 176 403 176 403 176 405 c 0
 176 414 193 426 205 426 c 0
 231 426 223 416 249 416 c 0
 259 416 343 422 353 422 c 0
 364 422 373 422 395 420 c 0
 418 424 442 427 465 431 c 1
 479 606 479 606 492 658 c 1
 420 642 420 642 382 642 c 0
 327 642 298 651 267 678 c 0
 251 692 244 703 244 713 c 0
 244 724 252 731 266 731 c 0
 303 731 320 703 357 703 c 0
 443 703 463 725 590 745 c 0
 598 746 603 747 607 747 c 0
 616 747 619 745 626 736 c 0
 627 734 627 734 630 731 c 0
 634 726 636 721 636 715 c 0
 636 707 631 697 624 691 c 1
594 279 m 0
 594 290 603 299 615 299 c 0
 624 299 665 281 681 271 c 0
 690 265 771 200 775 195 c 0
 841 114 902 18 919 -32 c 0
 921 -38 922 -41 922 -45 c 0
 922 -46 922 -46 922 -47 c 2
 932 -58 l 1
 921 -62 914 -65 914 -64 c 1
 905 -79 903 -80 894 -80 c 0
 887 -80 879 -77 872 -72 c 1
 864 -71 860 -66 851 -44 c 0
 833 -2 811 35 730 156 c 1
 716 170 696 184 682 198 c 2
 650 230 l 1
 619 247 610 254 604 262 c 0
 600 268 601 264 598 268 c 0
 595 271 594 275 594 279 c 0
875 -66 m 1
 884 -54 l 1
 873 -42 l 1
 871 -42 l 1
 861 -54 l 1
 873 -66 l 1
 875 -66 l 1
EndSplineSet
EndChar

StartChar: |hk
Encoding: 983301 983301 25
Width: 1000
GlyphClass: 1
Flags: HMW
LayerCount: 2
Fore
SplineSet
472 600 m 0
 427 600 391 624 391 654 c 0
 391 666 403 680 413 680 c 0
 416 680 417 680 424 677 c 0
 426 677 425 678 427 678 c 0
 453 678 442 663 468 663 c 0
 513 663 604 688 649 688 c 0
 694 688 703 682 715 647 c 1
 704 631 691 622 676 622 c 0
 668 622 662 623 654 623 c 0
 643 623 630 621 618 618 c 1
 618 581 598 534 592 464 c 1
 638 471 736 479 777 479 c 0
 815 479 829 475 839 462 c 1
 848 448 l 1
 843 447 l 2
 843 446 844 444 844 443 c 0
 844 427 826 412 808 412 c 2
 799 413 781 413 766 413 c 0
 723 413 588 398 569 391 c 0
 557 387 555 387 545 387 c 0
 464 385 434 355 365 355 c 0
 333 355 281 366 265 376 c 1
 260 316 250 252 229 125 c 1
 238 118 241 106 241 79 c 0
 241 51 231 4 221 -16 c 0
 216 -26 203 -36 193 -36 c 0
 183 -36 180 -27 170 -27 c 2
 157 -27 l 1
 157 51 l 2
 157 147 198 260 203 474 c 0
 203 476 203 487 204 502 c 2
 204 503 204 508 203 515 c 2
 203 530 212 539 226 539 c 0
 242 539 254 529 260 512 c 0
 263 505 260 540 267 429 c 1
 287 429 335 420 355 420 c 0
 401 420 419 443 525 453 c 1
 529 508 539 559 555 604 c 1
 547 604 480 600 472 600 c 0
797 -62 m 0
 754 -62 729 -38 686 -38 c 0
 673 -38 602 -43 580 -46 c 0
 461 -59 401 -83 305 -98 c 1
 271 -92 l 1
 263 -86 260 -79 260 -68 c 0
 260 -34 285 -35 377 121 c 0
 377 121 486 291 488 294 c 0
 510 328 525 343 539 343 c 0
 552 343 560 330 560 308 c 0
 560 285 540 245 509 207 c 1
 492 175 472 143 445 104 c 1
 423 65 397 25 366 -19 c 1
 466 6 531 17 606 23 c 0
 619 25 673 28 687 28 c 0
 727 28 761 22 794 10 c 0
 813 5 827 -12 827 -31 c 0
 827 -48 813 -62 797 -62 c 0
EndSplineSet
EndChar

StartChar: hc
Encoding: 983302 983302 26
Width: 1000
GlyphClass: 1
Flags: HMW
LayerCount: 2
Fore
SplineSet
184 353 m 1
 139 353 109 369 109 394 c 0
 109 410 118 422 130 422 c 0
 137 422 142 417 149 417 c 0
 164 415 166 415 174 415 c 0
 222 415 408 428 438 433 c 0
 442 441 450 446 459 446 c 0
 460 446 462 446 463 446 c 0
 466 447 468 448 471 449 c 0
 475 478 480 509 482 531 c 0
 489 579 493 597 501 610 c 1
 451 605 437 604 419 604 c 0
 358 604 319 626 319 661 c 0
 319 676 327 686 338 686 c 0
 373 686 377 669 412 669 c 0
 444 669 605 693 637 693 c 0
 650 693 660 689 671 679 c 1
 672 671 672 671 672 669 c 0
 672 653 669 646 656 625 c 1
 630 624 648 626 547 615 c 1
 552 608 554 599 554 589 c 0
 554 585 539 464 537 449 c 1
 586 455 619 458 654 458 c 0
 747 458 837 445 887 423 c 1
 888 407 890 400 890 395 c 0
 890 380 873 364 856 364 c 0
 851 364 848 365 840 368 c 0
 815 380 711 393 634 393 c 2
 633 393 l 2
 600 393 535 383 508 374 c 0
 497 370 495 370 485 370 c 0
 426 368 429 359 257 354 c 1
 211 354 l 2
 204 354 193 354 184 353 c 1
196 183 m 0
 196 193 204 201 215 201 c 0
 253 201 336 114 491 8 c 0
 524 -15 539 -23 550 -26 c 1
 550 -23 557 159 572 292 c 1
 588 315 594 320 604 320 c 0
 618 320 630 307 637 284 c 1
 629 215 625 170 622 103 c 0
 622 96 614 -50 614 -57 c 0
 614 -76 613 -77 597 -85 c 0
 592 -89 586 -91 580 -91 c 0
 572 -91 565 -93 557 -93 c 0
 524 -93 500 -82 439 -37 c 0
 390 -1 319 54 273 93 c 0
 216 142 196 166 196 183 c 0
EndSplineSet
EndChar

StartChar: hci
Encoding: 983303 983303 27
Width: 1000
GlyphClass: 1
Flags: HMW
LayerCount: 2
Fore
SplineSet
237 347 m 0
 175 347 126 375 126 411 c 0
 126 421 134 428 145 428 c 0
 171 428 209 411 235 411 c 0
 272 411 328 437 485 462 c 1
 490 531 494 560 504 579 c 1
 479 576 454 575 437 575 c 0
 372 575 330 591 319 621 c 0
 318 625 315 630 315 636 c 0
 315 646 323 653 335 653 c 0
 361 653 400 639 426 639 c 0
 464 639 586 656 624 656 c 0
 645 656 665 640 665 624 c 0
 665 598 657 593 601 588 c 0
 587 587 568 585 544 582 c 1
 550 569 554 550 554 529 c 0
 554 525 551 473 551 469 c 1
 593 473 707 477 772 477 c 0
 806 477 838 475 851 473 c 2
 886 466 l 1
 870 458 l 1
 873 453 875 447 875 441 c 0
 875 424 860 407 846 407 c 0
 812 407 798 411 764 411 c 0
 730 411 657 407 623 407 c 0
 409 399 309 347 237 347 c 0
668 195 m 2
 668 201 l 2
 668 245 678 355 684 370 c 0
 691 391 704 406 716 406 c 0
 729 406 737 393 746 360 c 1
 729 214 735 123 721 -12 c 0
 715 -74 713 -103 713 -136 c 0
 713 -148 707 -156 693 -159 c 1
 703 -169 l 1
 666 -164 l 2
 614 -157 575 -134 513 -75 c 0
 430 3 362 23 362 58 c 0
 362 69 369 75 380 75 c 0
 397 75 437 60 475 38 c 0
 554 -7 597 -77 647 -92 c 1
 651 -17 668 101 668 195 c 2
183 -113 m 0
 163 -113 141 -83 141 -57 c 0
 141 -47 150 -39 163 -39 c 0
 166 -39 166 -39 174 -41 c 0
 191 -11 205 14 235 69 c 0
 277 144 312 193 364 248 c 2
 419 306 l 2
 440 328 447 333 460 333 c 0
 475 333 485 322 485 307 c 0
 485 287 481 282 442 240 c 0
 351 142 335 119 268 -5 c 0
 216 -101 207 -113 183 -113 c 0
166 -68 m 1
 174 -76 l 2
 175 -76 176 -75 177 -75 c 2
 179 -71 l 1
 178 -68 l 1
 166 -68 l 1
EndSplineSet
EndChar

StartChar: kh
Encoding: 983304 983304 28
Width: 1000
GlyphClass: 1
Flags: HMW
LayerCount: 2
Fore
SplineSet
718 325 m 0
 684 325 528 307 458 295 c 0
 456 295 350 275 334 272 c 0
 321 272 308 273 295 273 c 0
 288 273 282 273 276 273 c 0
 253 273 253 273 221 280 c 1
 223 281 l 1
 211 286 203 298 203 311 c 0
 203 325 211 337 222 341 c 0
 229 343 247 368 293 414 c 0
 409 534 506 653 534 708 c 1
 525 728 515 727 515 740 c 0
 515 750 524 759 534 759 c 0
 535 759 535 759 536 759 c 0
 538 760 540 760 544 760 c 0
 567 760 592 729 592 702 c 0
 592 657 485 515 344 371 c 0
 330 356 319 347 312 339 c 1
 327 339 429 360 444 360 c 0
 522 373 615 384 697 390 c 0
 716 392 725 393 733 393 c 0
 771 393 787 389 797 375 c 2
 816 351 l 1
 802 353 l 1
 802 352 803 350 803 349 c 0
 803 336 799 333 767 325 c 0
 760 320 752 317 744 317 c 0
 735 317 729 319 722 325 c 0
 721 325 721 325 718 325 c 0
348 183 m 0
 282 183 233 203 233 230 c 0
 233 241 244 248 260 248 c 0
 284 248 299 242 323 242 c 0
 404 242 452 273 640 302 c 0
 654 304 657 304 673 308 c 0
 675 308 675 309 677 309 c 0
 682 309 688 305 690 301 c 1
 690 301 691 301 692 301 c 0
 703 298 711 288 711 277 c 0
 711 255 705 249 678 239 c 0
 661 234 651 225 636 225 c 0
 623 225 623 229 610 229 c 0
 599 229 563 224 542 219 c 1
 546 210 547 202 547 190 c 0
 547 157 538 121 533 40 c 1
 682 38 716 33 794 2 c 0
 812 -6 810 0 836 -15 c 0
 844 -15 854 -18 862 -24 c 0
 870 -21 871 -21 875 -21 c 0
 887 -21 903 -39 903 -53 c 0
 903 -55 903 -57 901 -62 c 1
 904 -63 l 1
 890 -84 889 -85 876 -91 c 0
 864 -96 863 -96 858 -96 c 0
 850 -96 842 -92 826 -81 c 0
 817 -80 810 -77 805 -73 c 1
 779 -70 759 -47 692 -36 c 0
 679 -36 626 -27 613 -27 c 2
 613 -27 594 -27 592 -27 c 0
 570 -27 550 -26 528 -26 c 0
 458 -26 341 -47 248 -76 c 0
 225 -83 192 -88 173 -88 c 0
 133 -86 98 -63 98 -40 c 0
 98 -28 109 -20 126 -20 c 0
 134 -20 142 -22 149 -26 c 0
 153 -26 160 -26 160 -26 c 2
 183 -26 187 -20 223 -14 c 0
 239 -11 240 -9 276 -0 c 0
 277 0 316 11 334 15 c 0
 374 24 451 37 466 37 c 1
 466 55 484 187 489 206 c 1
 408 187 381 183 348 183 c 0
EndSplineSet
EndChar

StartChar: |fp
Encoding: 983305 983305 29
Width: 1000
GlyphClass: 1
Flags: HMW
LayerCount: 2
Fore
SplineSet
438 386 m 0
 438 454 457 578 457 646 c 0
 457 680 450 695 450 729 c 0
 450 746 456 753 469 753 c 0
 503 753 523 711 523 639 c 0
 523 590 512 534 507 431 c 0
 507 424 507 424 506 416 c 1
 599 480 712 616 759 616 c 0
 771 616 779 608 779 596 c 0
 779 572 768 558 689 486 c 0
 548 359 538 351 482 329 c 1
 444 335 438 343 438 386 c 0
308 492 m 0
 308 457 286 299 274 96 c 1
 281 92 284 84 284 74 c 0
 284 56 277 39 262 19 c 1
 257 20 253 21 253 22 c 1
 252 21 251 19 249 17 c 0
 243 15 242 15 236 15 c 0
 224 15 215 21 213 30 c 0
 211 38 206 36 206 52 c 2
 206 68 l 2
 206 113 247 466 247 511 c 0
 249 537 256 549 271 549 c 0
 291 549 308 523 308 492 c 0
717 61 m 1
 717 63 731 237 731 298 c 2
 731 315 l 2
 731 356 737 370 755 370 c 0
 784 370 796 340 796 268 c 0
 796 166 782 85 782 -17 c 0
 782 -53 788 -54 788 -90 c 0
 788 -106 772 -119 751 -119 c 0
 742 -119 735 -115 731 -108 c 0
 731 -107 731 -107 730 -107 c 1
 719 -101 715 -71 715 -5 c 2
 715 -4 l 1
 712 -4 707 -4 707 -4 c 2
 626 -4 440 -74 359 -74 c 0
 337 -74 319 -57 319 -38 c 0
 319 -19 328 24 338 91 c 0
 354 201 355 289 364 314 c 0
 369 325 373 328 381 328 c 0
 388 328 395 323 402 314 c 0
 412 301 415 287 415 243 c 0
 415 155 407 83 389 -2 c 1
 506 36 633 62 696 62 c 0
 703 62 710 61 717 61 c 1
746 -94 m 1
 749 -89 l 1
 748 -85 l 1
 738 -79 l 1
 733 -81 l 1
 738 -97 l 1
 740 -97 l 1
 746 -94 l 1
EndSplineSet
EndChar

StartChar: hce
Encoding: 983306 983306 30
Width: 1000
GlyphClass: 1
Flags: HMW
LayerCount: 2
Fore
SplineSet
172 189 m 0
 172 201 180 207 196 207 c 0
 242 207 379 80 434 -13 c 1
 454 -28 460 -43 462 -44 c 0
 464 -45 474 -48 486 -56 c 0
 494 -62 495 -62 511 -65 c 1
 528 -81 l 1
 530 -85 531 -89 531 -95 c 0
 531 -110 515 -127 501 -127 c 0
 482 -127 455 -120 442 -111 c 0
 393 -89 386 -43 305 48 c 0
 300 53 295 60 289 67 c 0
 218 148 172 164 172 189 c 0
759 253 m 0
 759 250 744 -56 744 -59 c 0
 744 -63 744 -68 744 -72 c 0
 744 -112 733 -129 707 -129 c 0
 670 -129 557 -61 470 14 c 0
 449 32 436 49 436 60 c 0
 436 69 443 76 453 76 c 0
 494 76 626 -24 679 -51 c 1
 679 -48 679 -47 679 -45 c 0
 679 -44 682 7 686 99 c 0
 692 268 702 317 728 317 c 0
 746 317 759 290 759 253 c 0
287 687 m 1
 318 685 347 671 429 671 c 0
 478 671 595 688 644 688 c 0
 676 688 697 687 703 685 c 2
 721 679 l 1
 716 673 l 1
 720 669 723 662 723 656 c 0
 723 644 715 633 704 629 c 0
 699 623 693 621 681 621 c 0
 669 621 667 623 655 623 c 0
 644 623 622 621 582 617 c 0
 582 615 583 610 583 608 c 0
 583 592 572 518 570 456 c 1
 591 458 621 459 658 459 c 0
 744 459 810 451 874 434 c 0
 888 423 893 414 893 402 c 0
 893 383 877 367 859 367 c 0
 780 367 738 393 659 393 c 0
 622 393 589 391 562 388 c 1
 559 371 548 363 528 363 c 0
 515 363 507 368 503 378 c 1
 447 369 322 328 268 328 c 0
 241 328 206 333 172 341 c 0
 170 341 166 341 164 341 c 0
 138 341 109 362 109 382 c 0
 109 393 118 401 132 401 c 0
 145 401 149 396 162 396 c 0
 185 395 209 390 255 390 c 0
 308 390 396 427 504 446 c 1
 504 498 513 576 524 611 c 1
 502 611 455 607 433 607 c 0
 342 607 268 635 268 669 c 1
 268 680 276 687 287 687 c 1
EndSplineSet
EndChar

StartChar: hca
Encoding: 983307 983307 31
Width: 1000
GlyphClass: 1
Flags: HMW
LayerCount: 2
Fore
SplineSet
182 342 m 0
 138 342 100 366 100 395 c 0
 100 408 109 418 120 418 c 0
 136 418 155 405 171 405 c 0
 235 405 374 439 515 452 c 0
 516 455 518 458 521 461 c 0
 535 547 540 572 549 589 c 1
 548 589 503 579 442 575 c 0
 412 573 383 566 382 566 c 0
 354 566 327 584 327 603 c 0
 327 613 334 622 342 625 c 1
 341 627 l 1
 357 627 l 2
 401 627 400 638 444 638 c 0
 449 638 646 670 651 670 c 0
 681 675 689 677 695 677 c 0
 697 677 698 676 717 673 c 1
 712 665 l 1
 717 661 720 654 720 647 c 0
 720 639 718 634 714 628 c 1
 714 627 l 2
 714 614 707 612 639 602 c 0
 619 599 602 597 589 595 c 1
 594 583 597 564 597 547 c 0
 597 530 597 530 585 458 c 1
 630 458 683 469 728 469 c 0
 843 469 899 454 899 422 c 0
 899 397 887 381 867 381 c 0
 858 381 849 385 842 393 c 1
 818 399 780 402 726 402 c 0
 696 402 677 401 601 393 c 0
 573 390 532 386 499 383 c 0
 334 368 337 357 257 348 c 0
 244 348 195 342 182 342 c 0
657 376 m 1
 659 380 665 382 672 382 c 0
 678 382 682 381 685 379 c 0
 699 379 711 362 711 340 c 2
 711 319 l 2
 711 308 709 268 709 257 c 2
 709 256 l 2
 709 234 708 221 708 199 c 0
 708 198 708 184 708 184 c 2
 708 135 702 87 691 55 c 0
 677 11 646 -13 602 -13 c 0
 590 -13 579 -11 559 -4 c 0
 433 42 340 158 291 194 c 0
 262 216 259 219 259 232 c 0
 259 247 270 255 290 255 c 0
 358 255 457 89 596 54 c 0
 598 53 601 53 602 53 c 1
 613 53 621 57 628 65 c 1
 638 105 643 144 643 180 c 0
 643 182 643 195 642 211 c 2
 642 219 643 218 650 389 c 1
 657 376 l 1
870 -116 m 0
 870 -126 850 -142 837 -142 c 0
 831 -142 827 -140 818 -133 c 0
 814 -131 770 -125 761 -125 c 0
 757 -125 752 -125 748 -125 c 0
 712 -125 719 -120 683 -120 c 2
 682 -120 l 2
 664 -120 646 -118 623 -115 c 0
 555 -117 555 -117 506 -122 c 0
 487 -122 300 -146 281 -146 c 0
 234 -146 185 -121 185 -97 c 0
 185 -85 196 -78 218 -78 c 0
 233 -78 247 -82 262 -82 c 0
 281 -82 329 -72 396 -65 c 0
 412 -65 539 -51 555 -51 c 2
 556 -51 l 2
 566 -51 603 -49 613 -49 c 0
 633 -49 645 -52 665 -52 c 2
 666 -52 l 2
 679 -52 805 -65 818 -65 c 0
 836 -65 862 -80 862 -90 c 2
 862 -91 l 1
 865 -94 867 -99 867 -107 c 0
 870 -113 870 -113 870 -116 c 0
EndSplineSet
EndChar

StartChar: hco
Encoding: 983308 983308 32
Width: 1000
GlyphClass: 1
Flags: HMW
LayerCount: 2
Fore
SplineSet
761 322 m 0
 779 322 794 307 794 290 c 0
 794 280 790 273 764 237 c 0
 726 185 669 113 628 67 c 0
 575 7 541 -16 509 -16 c 0
 497 -16 488 -8 488 3 c 0
 488 18 499 34 530 61 c 0
 563 89 638 178 710 275 c 0
 723 293 717 284 756 345 c 1
 757 322 l 2
 758 322 760 322 761 322 c 0
277 -13 m 1
 203 67 190 85 190 107 c 0
 190 117 196 123 206 123 c 0
 228 123 260 97 338 16 c 0
 347 6 347 6 369 -13 c 1
 370 42 385 235 392 293 c 0
 397 336 404 348 421 348 c 0
 440 348 455 326 455 297 c 0
 455 249 434 -6 434 -54 c 0
 432 -91 425 -99 399 -99 c 0
 365 -99 335 -78 277 -13 c 1
210 362 m 0
 163 362 106 391 106 414 c 0
 106 426 116 432 135 432 c 0
 159 432 178 424 202 424 c 0
 218 424 257 430 282 437 c 0
 306 442 428 455 456 455 c 1
 456 495 465 565 472 585 c 1
 464 584 457 584 441 584 c 0
 412 584 395 586 380 591 c 0
 336 606 305 633 305 656 c 0
 305 657 306 664 307 674 c 1
 392 663 377 648 445 648 c 2
 446 648 l 2
 448 648 526 662 669 665 c 0
 684 665 693 661 707 647 c 1
 704 616 692 606 652 602 c 0
 619 599 557 597 529 594 c 0
 529 591 530 588 530 585 c 0
 530 562 523 531 521 455 c 1
 530 455 538 455 547 455 c 0
 585 455 601 458 639 458 c 0
 683 458 803 433 847 433 c 0
 877 429 895 416 895 398 c 0
 895 391 892 385 885 378 c 1
 903 369 l 1
 858 365 858 364 856 364 c 0
 817 364 684 392 645 392 c 0
 606 392 580 390 541 390 c 2
 536 390 l 2
 476 390 424 387 344 380 c 0
 279 374 255 362 210 362 c 0
EndSplineSet
EndChar

StartChar: hc`v
Encoding: 983309 983309 33
Width: 1000
GlyphClass: 1
Flags: HMW
LayerCount: 2
Fore
SplineSet
297 598 m 0
 227 598 183 616 183 644 c 0
 183 656 191 663 203 663 c 0
 231 663 257 656 285 656 c 0
 317 656 341 659 400 671 c 0
 422 671 582 704 604 704 c 0
 617 704 624 702 637 694 c 1
 638 685 637 685 637 682 c 0
 637 662 633 649 625 643 c 0
 620 639 550 619 543 619 c 0
 533 619 524 622 519 628 c 1
 513 627 508 626 502 625 c 1
 505 618 506 610 506 594 c 0
 506 566 498 495 497 483 c 1
 508 485 508 486 540 493 c 0
 580 501 615 506 641 506 c 0
 650 506 651 506 673 504 c 1
 672 496 671 491 672 491 c 1
 676 487 678 481 678 474 c 0
 678 463 671 452 661 449 c 1
 654 440 645 441 618 425 c 0
 597 412 589 409 576 409 c 0
 561 409 552 415 549 427 c 1
 473 410 368 382 291 360 c 0
 220 339 196 334 175 334 c 0
 141 334 107 356 107 378 c 0
 107 389 115 394 130 394 c 0
 137 394 146 394 157 394 c 0
 181 394 200 398 247 413 c 0
 286 426 428 466 430 467 c 0
 445 598 445 598 448 616 c 1
 378 604 329 598 297 598 c 0
522 341 m 0
 522 352 534 362 548 362 c 2
 573 362 l 2
 587 362 602 365 613 371 c 0
 616 371 705 412 708 412 c 0
 711 412 712 411 722 406 c 2
 742 397 l 1
 742 392 l 1
 743 384 744 380 744 372 c 0
 744 351 721 274 718 175 c 1
 754 197 803 260 826 316 c 0
 835 337 841 350 852 367 c 1
 862 377 l 1
 872 382 869 381 873 381 c 0
 885 381 893 370 893 355 c 0
 893 272 806 139 733 111 c 0
 700 100 700 100 696 100 c 0
 689 100 673 106 664 112 c 2
 639 125 l 1
 654 126 l 1
 652 132 652 128 652 154 c 0
 652 212 658 263 671 328 c 1
 667 327 650 321 628 313 c 2
 608 306 594 303 581 303 c 0
 549 303 524 316 524 333 c 0
 523 336 522 338 522 341 c 0
254 55 m 0
 291 55 354 -19 415 -53 c 1
 415 -17 446 289 446 325 c 0
 446 333 446 345 445 353 c 2
 445 362 448 364 449 371 c 0
 452 384 459 390 471 390 c 0
 495 390 509 362 509 316 c 0
 509 272 497 108 489 45 c 0
 489 44 481 -38 480 -58 c 0
 477 -102 461 -125 431 -125 c 0
 396 -125 353 -97 266 -19 c 0
 240 3 231 17 231 33 c 0
 231 46 241 55 254 55 c 0
EndSplineSet
EndChar

StartChar: h'st
Encoding: 983310 983310 34
Width: 1000
GlyphClass: 1
Flags: HMW
LayerCount: 2
Fore
SplineSet
280 348 m 0
 199 348 138 384 138 433 c 0
 138 447 145 456 156 456 c 0
 165 456 173 451 191 435 c 0
 213 416 223 412 252 412 c 0
 281 412 325 419 400 435 c 0
 420 439 426 441 487 451 c 1
 495 521 505 565 520 599 c 1
 512 598 505 598 489 598 c 0
 447 598 419 604 398 619 c 0
 385 629 379 639 379 650 c 0
 379 664 387 672 400 672 c 0
 430 672 452 662 482 662 c 0
 510 662 581 672 614 680 c 2
 627 684 636 686 637 686 c 0
 638 686 639 686 640 686 c 0
 658 686 677 668 677 650 c 0
 677 642 673 635 660 622 c 1
 629 616 578 606 577 606 c 1
 577 605 577 603 577 602 c 0
 577 578 567 550 554 461 c 1
 586 463 640 471 706 471 c 0
 747 471 783 461 824 461 c 0
 836 459 843 457 850 453 c 2
 874 439 l 1
 861 434 l 1
 863 431 862 440 862 425 c 0
 862 411 856 401 844 398 c 0
 842 394 838 392 834 392 c 0
 833 392 832 392 832 392 c 2
 777 392 761 404 706 404 c 0
 574 404 412 348 280 348 c 0
501 464 m 1
 509 449 l 1
 514 453 l 1
 501 464 l 1
734 337 m 0
 734 304 710 258 642 155 c 1
 688 143 798 27 824 -37 c 0
 840 -71 846 -70 848 -86 c 2
 850 -108 l 1
 848 -109 846 -116 843 -120 c 0
 843 -121 832 -127 831 -127 c 0
 828 -129 824 -130 820 -130 c 0
 815 -130 814 -130 812 -129 c 2
 801 -125 l 1
 790 -110 783 -100 782 -99 c 0
 770 -80 769 -69 760 -57 c 0
 639 117 627 94 616 117 c 1
 518 -13 470 -63 356 -154 c 0
 351 -155 346 -157 340 -157 c 0
 322 -157 311 -144 311 -123 c 0
 311 -115 319 -106 368 -61 c 0
 457 22 488 56 545 133 c 0
 609 220 640 268 668 326 c 0
 682 356 690 364 707 364 c 0
 716 364 724 359 727 351 c 0
 732 347 734 343 734 337 c 0
443 247 m 1
 391 229 270 202 238 202 c 0
 188 202 158 213 153 234 c 0
 153 236 152 238 152 240 c 0
 152 254 167 264 189 264 c 0
 199 264 212 263 222 263 c 0
 249 263 271 267 308 277 c 0
 429 309 437 312 458 326 c 0
 463 326 464 326 467 326 c 0
 498 326 512 311 512 275 c 0
 512 241 501 206 479 169 c 0
 466 143 343 -28 322 -49 c 0
 306 -65 294 -77 294 -78 c 2
 285 -84 279 -87 271 -87 c 0
 260 -87 252 -79 252 -67 c 0
 252 -19 326 47 418 193 c 0
 431 215 439 231 443 247 c 1
EndSplineSet
EndChar

StartChar: hf
Encoding: 983311 983311 35
Width: 1000
GlyphClass: 1
Flags: HMW
LayerCount: 2
Fore
SplineSet
505 263 m 0
 505 234 480 37 480 8 c 0
 479 2 479 -3 479 -16 c 1
 504 3 640 126 682 168 c 0
 725 213 735 221 752 221 c 0
 763 221 770 214 770 203 c 0
 770 169 734 124 642 42 c 2
 556 -35 l 2
 510 -76 480 -95 458 -95 c 0
 449 -95 440 -91 434 -85 c 1
 417 -82 413 -69 413 -18 c 0
 413 -5 414 9 417 38 c 0
 417 69 440 233 440 264 c 0
 440 286 434 292 434 314 c 0
 434 319 434 320 437 330 c 1
 442 331 l 1
 442 337 l 1
 375 323 291 311 260 311 c 0
 227 311 207 318 190 335 c 0
 171 354 162 369 162 380 c 0
 162 391 169 398 180 398 c 0
 204 398 221 371 245 371 c 0
 277 371 415 395 484 412 c 1
 488 454 491 507 492 546 c 1
 410 549 345 580 345 616 c 0
 345 628 352 636 362 636 c 0
 378 636 418 608 454 606 c 0
 460 606 468 606 471 606 c 0
 475 606 502 607 506 607 c 0
 522 608 572 622 624 628 c 0
 637 630 637 630 640 633 c 0
 654 644 672 651 690 651 c 0
 691 651 692 651 692 651 c 2
 705 651 711 650 735 645 c 1
 741 639 l 1
 744 630 745 624 745 615 c 0
 745 593 741 588 718 581 c 0
 661 563 605 562 554 552 c 0
 554 548 554 544 554 538 c 0
 554 514 552 472 550 427 c 1
 600 438 651 443 704 443 c 0
 705 443 708 443 714 443 c 0
 744 443 769 442 798 439 c 0
 827 437 839 427 839 406 c 0
 839 387 822 373 799 373 c 0
 764 373 749 376 714 376 c 0
 632 376 611 373 498 349 c 0
 479 344 472 343 464 341 c 1
 467 341 467 341 468 340 c 0
 473 340 474 340 474 340 c 2
 492 340 505 308 505 263 c 0
EndSplineSet
EndChar

StartChar: h`fs
Encoding: 983312 983312 36
Width: 1000
GlyphClass: 1
Flags: HMW
LayerCount: 2
Fore
SplineSet
783 516 m 0
 783 451 638 319 567 319 c 0
 554 319 545 323 532 333 c 1
 526 356 525 361 525 381 c 0
 525 446 546 610 546 675 c 2
 546 676 l 2
 546 694 540 714 540 732 c 0
 540 746 546 753 557 753 c 0
 586 753 608 711 608 654 c 1
 609 643 609 633 609 630 c 0
 609 583 591 441 591 394 c 0
 591 393 591 393 591 392 c 1
 709 449 724 544 763 544 c 0
 776 544 783 534 783 516 c 0
784 251 m 1
 772 251 621 221 609 221 c 0
 601 221 549 217 541 217 c 0
 537 217 534 217 531 217 c 0
 484 217 459 221 439 232 c 1
 424 246 l 1
 424 246 418 258 417 260 c 0
 416 262 416 263 416 267 c 0
 416 280 427 285 454 285 c 0
 459 285 521 281 535 280 c 0
 566 280 755 317 786 317 c 0
 821 317 853 302 853 286 c 0
 853 284 852 281 851 279 c 0
 855 273 856 268 856 262 c 0
 856 244 856 244 789 115 c 0
 752 47 720 10 641 -58 c 0
 581 -111 515 -148 479 -148 c 0
 462 -148 446 -136 446 -122 c 0
 446 -109 452 -103 485 -86 c 0
 547 -54 553 -49 644 33 c 0
 681 67 695 84 716 120 c 0
 720 124 768 216 784 251 c 1
331 127 m 1
 373 143 435 172 451 172 c 0
 475 172 486 161 486 139 c 0
 486 134 485 135 479 106 c 1
 448 102 436 99 396 82 c 0
 353 64 345 61 257 28 c 0
 221 15 213 13 186 13 c 0
 165 13 156 19 151 34 c 0
 146 38 143 44 143 49 c 0
 143 63 156 76 172 76 c 0
 175 76 175 76 183 74 c 0
 193 77 194 75 216 84 c 0
 236 92 236 92 299 114 c 1
 285 115 276 124 276 137 c 0
 276 138 283 163 290 223 c 0
 290 240 315 397 323 429 c 1
 307 429 266 434 236 440 c 0
 208 447 200 454 200 470 c 0
 200 485 210 497 221 497 c 0
 225 497 228 496 231 494 c 0
 235 496 238 496 245 496 c 0
 265 496 295 492 315 492 c 0
 359 492 391 510 435 510 c 0
 439 510 439 510 475 505 c 1
 462 496 l 1
 467 491 469 485 469 478 c 0
 469 476 469 474 469 473 c 0
 469 471 470 469 470 467 c 0
 470 453 438 432 416 432 c 0
 410 432 404 437 398 437 c 2
 398 437 398 437 397 437 c 0
 394 437 388 436 379 434 c 0
 379 433 379 431 379 430 c 0
 379 410 360 244 351 185 c 0
 347 156 341 138 331 127 c 1
EndSplineSet
EndChar

StartChar: hf`la
Encoding: 983313 983313 37
Width: 1000
GlyphClass: 1
Flags: HMW
LayerCount: 2
Fore
SplineSet
634 465 m 0
 659 465 690 450 697 434 c 1
 702 460 705 492 705 526 c 0
 705 540 704 560 704 574 c 0
 704 599 711 610 727 610 c 0
 752 610 765 575 765 507 c 0
 765 474 762 449 754 406 c 1
 780 418 829 431 844 431 c 0
 871 431 887 413 887 380 c 0
 887 334 871 297 806 194 c 0
 759 119 725 88 691 88 c 0
 670 88 652 100 652 115 c 0
 652 140 680 132 704 159 c 0
 742 201 813 324 822 363 c 1
 729 334 730 312 701 312 c 0
 685 312 671 326 671 342 c 0
 671 355 675 353 689 402 c 1
 682 395 671 390 661 390 c 0
 657 390 655 391 651 391 c 2
 618 391 l 2
 573 391 524 379 479 379 c 0
 470 379 461 378 452 379 c 0
 406 369 196 344 163 344 c 0
 136 344 111 349 101 356 c 1
 90 364 83 376 83 385 c 0
 83 399 99 410 120 410 c 0
 132 410 150 409 162 409 c 0
 185 409 412 444 435 444 c 0
 436 450 445 587 445 604 c 0
 445 618 444 624 437 640 c 1
 388 635 367 631 366 631 c 0
 337 631 310 637 283 651 c 0
 268 666 265 671 265 680 c 0
 265 694 277 701 300 701 c 0
 310 701 346 693 356 693 c 0
 369 693 373 697 429 703 c 0
 470 707 506 714 557 727 c 0
 565 729 569 730 574 730 c 0
 592 730 603 717 603 697 c 0
 603 690 600 683 595 678 c 1
 600 674 l 1
 576 664 576 664 498 646 c 1
 505 627 507 608 507 575 c 0
 507 567 505 476 505 468 c 0
 505 461 504 461 505 446 c 1
 528 446 611 465 634 465 c 0
318 -71 m 0
 318 -9 327 241 327 303 c 0
 327 309 327 317 326 322 c 2
 326 327 327 331 329 334 c 0
 329 336 328 338 328 340 c 0
 328 352 342 363 357 363 c 0
 377 363 389 346 391 314 c 0
 391 305 392 294 392 285 c 0
 392 214 385 167 385 96 c 0
 385 75 385 50 385 29 c 0
 385 -11 385 -29 384 -50 c 1
 520 -15 552 116 594 116 c 0
 604 116 611 108 611 96 c 0
 611 8 461 -117 356 -117 c 1
 326 -102 l 1
 320 -94 318 -87 318 -71 c 0
659 64 m 0
 689 70 715 74 731 74 c 0
 735 74 740 73 747 72 c 0
 763 76 773 78 786 78 c 0
 793 78 790 78 810 80 c 1
 810 81 l 2
 810 99 824 112 842 112 c 0
 860 112 878 100 896 78 c 0
 898 76 893 80 901 74 c 0
 910 68 918 55 918 45 c 0
 918 27 896 13 868 13 c 0
 863 13 845 13 826 14 c 2
 817 14 808 13 799 13 c 0
 768 13 767 6 746 6 c 0
 741 6 738 6 730 8 c 0
 719 4 712 2 703 2 c 0
 700 2 695 2 691 3 c 2
 685 3 664 0 658 0 c 0
 637 0 610 21 610 37 c 2
 610 38 l 1
 608 41 608 42 608 47 c 0
 608 59 619 67 635 67 c 0
 643 67 651 66 659 64 c 0
EndSplineSet
EndChar

StartChar: hfi
Encoding: 983314 983314 38
Width: 1000
GlyphClass: 1
Flags: HMW
LayerCount: 2
Fore
SplineSet
333 672 m 1
 378 687 524 712 567 712 c 0
 573 712 624 711 630 711 c 0
 648 711 651 716 669 716 c 0
 690 716 710 709 720 697 c 2
 728 688 l 1
 723 684 l 1
 725 679 725 677 725 675 c 0
 725 659 711 645 695 645 c 0
 694 645 692 645 691 645 c 0
 676 638 667 635 658 635 c 0
 641 635 641 643 628 644 c 0
 612 644 587 647 571 647 c 0
 565 647 558 646 552 646 c 1
 561 637 566 623 566 608 c 1
 564 556 557 490 549 448 c 1
 555 448 561 449 567 449 c 0
 650 449 768 434 819 417 c 0
 838 410 845 402 845 387 c 0
 845 366 830 345 815 345 c 1
 803 347 747 381 577 381 c 0
 460 381 339 345 222 345 c 0
 181 345 157 360 157 384 c 0
 157 401 173 409 204 409 c 0
 205 409 218 409 218 409 c 2
 267 409 399 438 483 443 c 0
 483 444 496 516 503 588 c 0
 505 614 507 629 510 640 c 1
 508 640 505 639 503 639 c 0
 413 622 364 615 338 615 c 0
 306 615 277 638 277 664 c 0
 277 676 285 686 295 686 c 0
 301 686 305 683 308 678 c 0
 317 676 325 675 333 672 c 1
519 430 m 1
 521 429 l 1
 520 436 l 1
 519 430 l 1
498 444 m 1
 489 437 l 1
 500 425 l 1
 498 444 l 1
594 5 m 1
 658 59 769 192 802 192 c 0
 817 192 829 180 829 165 c 0
 829 146 824 140 698 14 c 0
 631 -54 594 -82 571 -82 c 0
 538 -82 528 -60 528 15 c 0
 528 116 558 338 574 358 c 0
 578 364 583 367 589 367 c 0
 607 367 616 347 616 308 c 0
 616 256 594 60 594 8 c 0
 594 7 594 6 594 5 c 1
158 -59 m 0
 158 -43 162 -37 180 -33 c 1
 210 -3 317 211 435 328 c 0
 448 341 456 347 468 353 c 1
 490 353 l 1
 492 340 491 356 491 337 c 0
 491 319 475 293 431 235 c 0
 388 179 314 52 260 -29 c 0
 224 -82 215 -91 194 -91 c 0
 175 -91 158 -76 158 -59 c 0
EndSplineSet
EndChar

StartChar: rs
Encoding: 983315 983315 39
Width: 1000
GlyphClass: 1
Flags: HMW
LayerCount: 2
Fore
SplineSet
404 260 m 1
 338 230 217 193 189 193 c 0
 172 193 164 198 164 209 c 0
 164 222 181 234 224 253 c 0
 271 274 296 284 312 290 c 0
 430 335 525 382 608 435 c 0
 652 463 666 473 734 533 c 0
 738 537 741 540 744 543 c 1
 732 545 709 545 697 547 c 0
 655 552 627 562 608 579 c 0
 595 590 589 601 589 613 c 0
 589 624 594 634 607 649 c 1
 578 646 545 639 503 636 c 0
 476 634 450 633 425 633 c 0
 378 633 337 655 337 681 c 0
 337 692 344 699 355 699 c 0
 367 699 411 693 423 693 c 0
 446 693 717 729 740 729 c 0
 750 729 759 726 772 716 c 0
 774 709 775 705 775 699 c 0
 775 685 768 675 754 668 c 0
 740 661 716 643 701 635 c 0
 682 625 672 620 665 615 c 1
 697 603 749 612 804 592 c 0
 818 578 823 568 823 554 c 0
 823 533 802 503 774 484 c 1
 701 411 593 343 454 282 c 1
 457 280 459 278 461 278 c 2
 462 278 l 2
 474 278 496 291 531 294 c 1
 570 310 592 316 655 330 c 0
 753 353 755 353 771 353 c 0
 797 353 807 352 816 348 c 1
 825 401 l 1
 837 305 837 305 837 292 c 0
 837 209 676 25 491 -103 c 0
 466 -120 434 -143 413 -156 c 0
 382 -175 359 -185 346 -185 c 0
 335 -185 327 -178 327 -167 c 0
 327 -152 342 -135 377 -110 c 0
 381 -107 382 -107 453 -56 c 0
 550 13 610 68 696 167 c 0
 727 203 758 254 770 287 c 1
 750 285 732 276 699 271 c 0
 650 263 616 255 568 239 c 0
 553 234 521 224 513 221 c 0
 508 218 496 216 482 215 c 0
 478 213 464 209 461 209 c 0
 437 209 404 239 404 260 c 1
778 316 m 1
 779 313 l 1
 797 318 l 1
 799 317 l 1
 801 319 l 1
 800 319 798 319 796 319 c 1
 797 318 l 1
 801 319 l 1
 798 323 l 1
 804 322 l 1
 806 325 l 1
 804 329 l 1
 809 324 l 1
 814 330 l 1
 803 329 l 1
 794 342 l 1
 789 336 l 1
 798 323 l 1
 784 327 l 1
 784 331 l 1
 789 336 l 1
 780 328 l 1
 796 319 l 1
 792 318 784 317 778 316 c 1
EndSplineSet
EndChar

StartChar: hfa
Encoding: 983316 983316 40
Width: 1000
GlyphClass: 1
Flags: HMW
LayerCount: 2
Fore
SplineSet
783 370 m 0
 763 370 749 382 747 400 c 1
 702 400 l 1
 608 398 l 1
 448 396 298 365 295 365 c 0
 270 361 239 358 219 358 c 0
 167 358 142 373 142 405 c 0
 142 413 145 415 162 424 c 1
 174 416 171 417 175 417 c 0
 187 417 194 415 206 415 c 0
 269 415 284 440 499 460 c 1
 502 516 514 585 527 610 c 1
 496 608 457 606 442 605 c 0
 412 608 394 609 384 609 c 0
 354 610 345 614 334 628 c 0
 330 633 328 639 328 646 c 0
 328 650 329 654 331 658 c 1
 318 668 l 1
 343 667 l 2
 344 667 345 667 346 667 c 0
 354 667 347 666 355 666 c 0
 362 666 368 665 375 665 c 2
 387 666 398 666 401 666 c 2
 416 665 428 665 431 665 c 0
 461 665 540 678 570 678 c 0
 584 678 601 677 615 677 c 0
 637 677 655 680 675 686 c 1
 677 686 l 1
 700 685 717 670 717 649 c 0
 717 636 703 621 686 617 c 0
 670 617 632 612 616 612 c 0
 602 612 583 613 569 613 c 0
 568 613 567 613 565 613 c 1
 571 601 575 584 575 566 c 0
 575 555 568 526 565 463 c 1
 612 464 659 466 696 466 c 0
 815 466 858 454 858 420 c 0
 858 399 849 391 813 380 c 0
 795 374 790 373 783 370 c 0
470 45 m 0
 437 45 425 55 425 83 c 0
 425 115 438 272 438 304 c 0
 438 306 438 309 438 311 c 0
 438 349 446 368 461 368 c 0
 466 368 470 367 475 363 c 0
 494 351 501 328 501 282 c 0
 501 258 497 191 492 123 c 1
 499 128 499 128 611 208 c 0
 663 245 679 258 700 277 c 0
 725 300 734 305 745 305 c 0
 754 305 761 301 767 294 c 0
 769 283 769 281 769 276 c 0
 769 252 757 238 698 192 c 0
 658 160 590 111 537 76 c 0
 500 52 485 45 470 45 c 0
625 -56 m 0
 525 -56 439 -93 339 -93 c 0
 312 -93 286 -74 286 -53 c 0
 286 -41 299 -32 317 -32 c 0
 320 -32 325 -33 330 -34 c 0
 374 -25 418 -19 462 -9 c 0
 525 5 568 11 609 11 c 0
 690 11 712 7 739 -11 c 0
 742 -17 744 -26 744 -34 c 0
 744 -51 730 -67 715 -67 c 0
 662 -67 678 -56 625 -56 c 0
EndSplineSet
EndChar

StartChar: hf`va
Encoding: 983317 983317 41
Width: 1000
GlyphClass: 1
Flags: HMW
LayerCount: 2
Fore
SplineSet
607 487 m 0
 552 487 527 496 527 517 c 0
 527 532 542 538 589 542 c 0
 636 546 672 555 725 575 c 1
 748 575 l 1
 759 573 l 1
 761 549 762 542 762 540 c 0
 762 533 751 480 742 358 c 0
 742 352 734 258 734 252 c 1
 735 253 773 286 842 360 c 0
 867 367 858 365 864 365 c 0
 880 365 890 353 890 334 c 0
 890 328 890 326 889 321 c 0
 817 237 767 191 732 176 c 1
 755 176 778 177 801 177 c 1
 812 176 l 1
 853 176 874 170 883 155 c 2
 891 143 l 1
 884 140 l 1
 885 139 885 137 885 133 c 0
 885 119 873 108 857 108 c 0
 851 108 850 108 850 108 c 2
 831 108 814 111 795 111 c 0
 775 111 761 110 741 110 c 2
 741 110 716 110 715 110 c 0
 689 110 671 109 645 109 c 0
 632 109 612 109 598 110 c 1
 596 110 l 1
 592 105 587 92 548 49 c 0
 535 35 507 3 495 -10 c 0
 463 -46 443 -65 421 -78 c 0
 403 -89 378 -100 370 -100 c 0
 368 -100 364 -98 362 -98 c 2
 361 -98 l 2
 359 -98 357 -98 352 -96 c 0
 350 -98 348 -98 345 -98 c 0
 329 -98 320 -80 316 -38 c 0
 316 -26 314 -18 314 -6 c 0
 314 14 316 21 317 38 c 2
 318 57 319 76 319 82 c 0
 319 87 319 92 319 96 c 0
 319 113 322 116 325 165 c 0
 327 197 335 225 338 247 c 0
 342 280 342 325 347 338 c 0
 348 342 350 345 355 350 c 1
 337 347 266 338 261 338 c 0
 251 337 242 337 232 337 c 2
 191 337 l 2
 153 337 111 357 111 375 c 0
 111 388 123 393 162 396 c 1
 195 396 l 2
 233 396 370 417 406 428 c 0
 406 430 405 431 405 433 c 0
 405 439 407 444 410 448 c 0
 410 450 410 451 410 453 c 0
 410 463 410 463 429 609 c 1
 417 608 398 607 382 607 c 0
 303 607 258 626 258 660 c 0
 258 672 265 678 279 678 c 0
 312 678 336 666 369 666 c 0
 406 666 499 688 536 688 c 1
 572 670 l 1
 572 666 l 2
 572 642 561 627 540 623 c 0
 511 617 508 609 486 607 c 0
 486 604 486 599 486 596 c 0
 486 567 478 524 474 460 c 0
 474 456 473 454 473 450 c 1
 520 462 630 485 638 485 c 0
 655 485 667 474 667 458 c 0
 667 442 656 428 634 416 c 0
 623 410 623 410 560 378 c 0
 557 377 555 377 551 377 c 0
 537 377 526 384 522 395 c 1
 459 379 435 366 375 353 c 1
 395 348 403 327 403 284 c 0
 403 258 401 240 396 211 c 0
 392 193 383 95 383 76 c 0
 383 55 382 49 378 28 c 0
 380 25 380 23 380 18 c 0
 380 10 379 -3 379 -11 c 0
 379 -20 379 -24 380 -29 c 1
 419 -10 474 68 531 116 c 1
 506 123 493 133 478 158 c 1
 487 176 l 1
 509 179 506 179 512 179 c 0
 532 179 550 175 570 175 c 1
 576 176 580 176 581 176 c 0
 599 176 614 175 632 175 c 0
 650 175 667 176 685 176 c 1
 687 177 l 1
 673 186 669 202 669 249 c 0
 669 285 672 280 678 366 c 0
 678 382 686 454 692 498 c 1
 666 491 638 487 607 487 c 0
341 37 m 1
 348 28 l 1
 353 35 l 1
 353 36 l 1
 341 37 l 1
EndSplineSet
EndChar

StartChar: h'nh
Encoding: 983318 983318 42
Width: 1000
GlyphClass: 1
Flags: HMW
LayerCount: 2
Fore
SplineSet
212 100 m 0
 172 100 140 120 140 146 c 0
 140 148 138 141 142 153 c 1
 135 158 l 1
 154 166 l 1
 162 171 l 1
 164 168 l 1
 176 168 188 156 200 156 c 0
 217 156 264 166 304 178 c 1
 310 307 316 333 336 333 c 0
 353 333 371 301 371 272 c 0
 371 251 371 235 369 192 c 1
 381 194 390 195 409 195 c 0
 411 195 424 195 424 195 c 2
 427 195 433 195 438 196 c 2
 456 196 467 184 467 164 c 0
 467 141 456 130 435 130 c 0
 427 130 418 131 410 131 c 0
 397 131 387 130 365 126 c 1
 358 47 362 34 356 -55 c 0
 355 -76 351 -87 344 -93 c 1
 340 -104 332 -111 322 -111 c 0
 306 -111 291 -97 291 -81 c 0
 291 -65 297 87 299 112 c 1
 268 104 237 100 212 100 c 0
612 265 m 1
 540 268 493 293 493 328 c 0
 493 340 500 349 510 349 c 0
 520 349 547 329 606 328 c 0
 609 328 611 328 613 328 c 0
 643 328 699 342 729 342 c 0
 743 342 750 339 759 328 c 0
 760 324 760 322 760 317 c 0
 760 300 752 289 732 281 c 0
 703 270 697 268 687 268 c 0
 681 268 678 269 672 269 c 0
 671 269 671 269 670 269 c 1
 671 266 671 263 671 255 c 0
 671 253 671 263 657 14 c 1
 670 15 679 17 698 17 c 0
 728 17 740 15 770 15 c 0
 777 15 783 15 790 15 c 0
 845 15 881 -9 881 -46 c 2
 881 -50 l 1
 865 -70 l 1
 841 -78 856 -74 850 -74 c 0
 840 -74 831 -68 827 -60 c 1
 802 -52 801 -52 791 -52 c 2
 789 -52 l 2
 780 -52 774 -51 765 -51 c 2
 765 -51 751 -51 746 -51 c 0
 731 -51 712 -49 697 -49 c 0
 651 -49 646 -53 600 -53 c 0
 592 -53 584 -53 576 -53 c 0
 536 -62 523 -64 507 -64 c 0
 498 -64 490 -64 471 -62 c 0
 464 -64 458 -65 451 -65 c 0
 433 -65 431 -61 406 -59 c 0
 383 -56 377 -53 366 -39 c 1
 362 -36 359 -31 359 -25 c 0
 359 -14 366 -6 378 -4 c 0
 388 -2 389 -4 415 -2 c 0
 416 -2 416 -2 429 -1 c 0
 431 -1 438 -1 446 -2 c 2
 473 -2 490 1 517 1 c 1
 556 11 574 14 590 14 c 0
 591 14 591 14 592 14 c 1
 592 61 607 249 612 265 c 1
378 595 m 0
 309 595 266 612 266 640 c 0
 266 652 276 658 298 658 c 0
 299 658 300 658 301 658 c 0
 323 658 343 655 365 655 c 0
 418 655 420 669 582 679 c 0
 583 679 662 685 667 685 c 0
 669 685 671 685 673 685 c 0
 702 685 716 676 716 656 c 0
 716 649 713 642 712 637 c 0
 710 625 705 623 672 620 c 0
 650 618 609 616 565 613 c 1
 567 606 568 602 568 595 c 0
 568 568 554 510 550 453 c 1
 564 453 577 454 591 454 c 0
 664 454 736 451 817 445 c 0
 859 442 868 436 871 410 c 0
 871 409 871 407 871 406 c 0
 871 393 853 375 839 375 c 0
 836 375 833 376 830 377 c 0
 757 377 669 388 596 388 c 0
 497 388 367 373 268 373 c 2
 267 373 l 2
 239 373 222 367 194 367 c 0
 146 367 121 380 121 405 c 0
 121 419 128 425 144 425 c 0
 157 425 169 422 182 422 c 0
 199 422 204 427 252 432 c 0
 254 432 298 439 414 446 c 0
 448 449 476 452 485 455 c 1
 485 476 490 516 498 553 c 0
 498 555 508 609 509 610 c 1
 466 606 414 595 378 595 c 0
EndSplineSet
EndChar

StartChar: hb
Encoding: 983319 983319 43
Width: 1000
GlyphClass: 1
Flags: HMW
LayerCount: 2
Fore
SplineSet
229 399 m 0
 157 399 103 421 103 451 c 0
 103 462 112 470 125 470 c 0
 158 470 192 460 225 460 c 0
 227 460 229 460 231 460 c 0
 386 491 467 496 490 500 c 0
 490 502 490 505 490 507 c 0
 490 537 496 595 503 632 c 1
 489 630 434 626 426 626 c 0
 344 626 310 635 295 660 c 0
 291 667 291 668 291 673 c 0
 291 685 302 692 320 692 c 0
 348 692 370 688 398 688 c 0
 487 688 592 716 681 716 c 0
 684 716 686 716 688 716 c 0
 701 716 709 714 718 708 c 1
 723 696 724 693 724 686 c 0
 724 661 713 653 675 651 c 0
 639 650 596 646 560 641 c 0
 560 637 561 632 561 628 c 0
 561 614 555 516 553 504 c 1
 567 505 580 505 608 505 c 0
 718 505 829 485 895 453 c 1
 884 441 l 1
 888 431 888 431 888 428 c 0
 888 421 887 419 879 411 c 0
 865 397 849 392 818 392 c 0
 784 392 766 401 766 417 c 0
 766 420 766 421 767 423 c 1
 713 434 669 438 615 438 c 0
 494 438 350 399 229 399 c 0
143 234 m 0
 184 234 208 223 249 223 c 0
 252 223 254 223 257 223 c 0
 300 232 343 240 386 247 c 1
 384 289 375 319 375 338 c 0
 375 353 382 363 394 363 c 0
 423 363 444 323 449 258 c 1
 516 266 577 270 635 272 c 1
 640 363 642 377 655 394 c 0
 659 401 665 405 672 405 c 0
 689 405 703 374 703 336 c 0
 703 324 702 292 701 273 c 1
 762 272 808 266 844 256 c 2
 844 256 844 256 872 248 c 0
 890 243 897 234 897 216 c 0
 897 197 886 185 868 185 c 0
 840 185 798 206 696 207 c 1
 693 160 691 119 691 81 c 0
 691 43 704 -20 704 -58 c 0
 704 -79 687 -96 668 -96 c 0
 665 -96 661 -95 657 -94 c 1
 654 -105 l 1
 639 -81 l 2
 636 -76 635 -68 630 -15 c 1
 627 -16 624 -16 618 -16 c 2
 617 -16 l 2
 555 -16 483 -72 421 -72 c 0
 406 -72 418 -71 374 -56 c 1
 378 -54 381 -53 387 -50 c 1
 384 -42 382 -32 382 -18 c 0
 382 21 390 109 390 148 c 0
 390 159 390 171 390 182 c 1
 389 182 269 162 255 162 c 0
 185 162 125 186 125 214 c 0
 125 225 133 234 143 234 c 0
616 206 m 1
 529 201 476 196 454 192 c 1
 455 179 455 168 455 142 c 0
 455 112 451 62 449 4 c 1
 452 5 452 6 493 23 c 0
 532 40 566 47 605 47 c 0
 609 47 614 47 618 47 c 0
 621 48 623 49 626 49 c 1
 626 62 626 75 626 88 c 0
 626 132 627 171 630 206 c 1
 616 206 l 1
404 -23 m 1
 406 -39 l 1
 410 -40 l 1
 412 -40 l 1
 414 -33 l 1
 404 -23 l 1
EndSplineSet
EndChar

StartChar: hd
Encoding: 983320 983320 44
Width: 1000
GlyphClass: 1
Flags: HMW
LayerCount: 2
Fore
SplineSet
807 241 m 1
 778 228 764 226 681 226 c 2
 632 226 l 2
 610 226 591 225 564 223 c 1
 545 191 526 164 508 138 c 1
 510 140 513 143 519 149 c 1
 526 143 l 1
 531 143 535 144 540 144 c 0
 606 144 675 108 731 45 c 0
 778 -8 800 -50 828 -76 c 0
 834 -82 834 -82 844 -97 c 1
 843 -99 l 1
 847 -105 848 -109 848 -115 c 0
 848 -132 835 -144 815 -144 c 0
 793 -144 779 -129 726 -54 c 1
 676 8 l 2
 636 51 581 87 540 96 c 0
 513 105 504 112 504 125 c 0
 504 130 504 132 506 135 c 1
 442 47 373 -19 313 -49 c 0
 289 -62 266 -69 251 -69 c 0
 237 -69 228 -62 228 -50 c 0
 228 -36 250 -14 291 10 c 0
 326 31 348 49 376 79 c 0
 414 119 454 169 483 214 c 1
 446 208 361 192 360 192 c 0
 331 187 313 185 295 185 c 0
 258 185 236 189 219 200 c 0
 208 207 203 215 203 224 c 0
 203 237 216 245 239 245 c 0
 245 245 257 245 270 245 c 0
 339 245 372 268 529 287 c 1
 538 304 541 336 551 347 c 0
 556 352 571 360 575 360 c 0
 587 360 601 346 601 333 c 0
 601 327 598 310 594 291 c 1
 625 292 638 293 670 293 c 0
 673 293 677 293 680 293 c 0
 714 293 756 298 790 298 c 0
 798 298 798 298 810 292 c 0
 810 289 810 287 810 284 c 0
 815 278 817 272 817 266 c 0
 817 257 813 249 806 243 c 1
 807 241 l 1
293 401 m 0
 297 401 453 414 480 416 c 1
 480 478 490 579 500 617 c 1
 482 615 421 611 401 611 c 0
 341 611 317 616 302 633 c 0
 295 640 294 642 294 648 c 0
 294 662 307 668 336 668 c 0
 345 668 357 668 369 668 c 0
 450 668 550 688 560 689 c 0
 596 691 682 700 683 700 c 0
 706 700 718 691 718 672 c 0
 718 651 707 642 676 637 c 0
 649 632 645 630 637 630 c 0
 634 630 631 630 625 630 c 0
 616 630 572 626 551 624 c 1
 554 617 555 610 555 598 c 0
 555 588 544 436 544 426 c 1
 581 430 621 433 672 434 c 1
 696 434 l 2
 749 434 784 430 823 421 c 0
 894 406 903 400 903 376 c 0
 903 355 889 342 868 342 c 0
 801 342 755 368 688 368 c 0
 642 368 570 363 538 358 c 0
 530 346 520 340 507 340 c 0
 499 340 493 343 487 351 c 0
 485 351 404 342 321 338 c 0
 315 338 263 334 257 334 c 0
 201 334 139 344 121 357 c 0
 116 361 112 363 109 365 c 0
 100 371 96 377 96 384 c 0
 96 392 97 394 115 406 c 1
 117 404 l 1
 121 404 122 405 126 405 c 0
 145 405 156 400 175 400 c 1
 180 401 l 1
 192 401 240 397 252 397 c 0
 263 397 269 399 293 401 c 0
EndSplineSet
EndChar

StartChar: hde
Encoding: 983321 983321 45
Width: 1000
GlyphClass: 1
Flags: HMW
LayerCount: 2
Fore
SplineSet
180 450 m 2
 186 450 305 456 319 457 c 0
 320 457 384 464 447 468 c 0
 484 470 478 469 482 470 c 1
 482 495 482 495 482 503 c 0
 482 568 486 601 495 620 c 1
 488 620 479 620 471 620 c 0
 463 620 454 619 446 619 c 0
 430 619 420 620 404 620 c 0
 402 620 392 620 392 620 c 2
 378 620 341 627 323 634 c 0
 299 641 280 663 280 685 c 0
 280 697 288 707 299 707 c 0
 320 707 299 701 372 686 c 0
 380 684 381 683 385 683 c 2
 397 684 411 684 418 684 c 2
 418 684 431 684 433 684 c 0
 493 684 648 699 708 699 c 0
 732 699 740 694 751 674 c 1
 745 665 742 664 740 658 c 0
 738 653 736 650 733 647 c 1
 744 636 l 1
 716 633 716 632 710 632 c 2
 692 631 674 630 668 630 c 0
 663 630 657 630 652 630 c 0
 628 625 605 624 541 622 c 1
 544 618 546 612 548 605 c 1
 548 591 l 2
 548 571 546 515 546 495 c 0
 546 485 546 479 547 472 c 1
 552 472 557 472 562 472 c 0
 585 472 595 469 655 467 c 0
 706 465 748 461 803 451 c 0
 829 446 846 445 868 441 c 0
 873 440 875 439 879 439 c 0
 898 437 907 428 913 402 c 1
 902 378 894 373 865 370 c 0
 850 369 827 363 804 363 c 0
 773 363 762 369 762 386 c 0
 762 388 762 390 762 391 c 0
 731 396 729 396 645 402 c 0
 637 402 568 406 560 406 c 0
 558 406 557 406 555 406 c 0
 539 406 533 406 525 405 c 0
 517 399 512 397 506 397 c 0
 500 397 495 399 486 403 c 0
 485 403 482 403 478 403 c 0
 412 403 342 391 276 391 c 2
 223 391 l 2
 155 391 128 396 103 411 c 0
 93 417 89 423 89 430 c 0
 89 444 108 455 133 455 c 0
 143 455 169 450 179 450 c 2
 180 450 l 2
550 141 m 1
 504 62 426 -5 381 -5 c 0
 367 -5 357 4 357 15 c 0
 357 28 370 44 395 63 c 0
 439 96 469 130 498 181 c 1
 495 181 492 181 489 181 c 0
 429 181 397 187 369 203 c 1
 359 213 l 1
 358 219 357 221 357 224 c 0
 357 234 364 241 375 243 c 1
 377 245 l 1
 381 245 381 246 385 246 c 0
 407 246 445 240 467 240 c 0
 487 240 507 242 527 246 c 1
 557 340 558 363 566 374 c 1
 570 379 577 383 582 383 c 0
 597 383 611 358 611 331 c 0
 611 312 607 289 599 262 c 1
 651 270 684 283 722 283 c 0
 746 283 757 274 757 253 c 0
 757 233 742 218 721 216 c 0
 716 216 579 193 575 192 c 1
 572 186 570 180 567 174 c 1
 571 175 574 174 575 174 c 0
 638 174 811 -14 811 -82 c 0
 811 -98 792 -112 771 -112 c 0
 753 -112 736 -96 736 -78 c 0
 736 -73 736 -71 737 -69 c 0
 716 -34 693 -3 641 61 c 0
 603 108 605 93 552 140 c 0
 551 141 551 140 550 141 c 1
155 218 m 0
 155 227 163 235 174 235 c 0
 203 235 258 154 300 49 c 0
 323 -8 326 -16 370 -108 c 0
 377 -122 379 -128 379 -135 c 0
 379 -142 376 -147 368 -152 c 0
 366 -153 366 -153 364 -155 c 0
 360 -159 353 -162 346 -162 c 0
 344 -162 343 -161 341 -161 c 1
 337 -168 l 1
 326 -161 l 2
 293 -139 254 47 189 150 c 0
 176 168 155 210 155 218 c 0
EndSplineSet
EndChar

StartChar: hk
Encoding: 983322 983322 46
Width: 1000
GlyphClass: 1
Flags: HMW
LayerCount: 2
Fore
SplineSet
455 624 m 0
 379 624 322 650 322 686 c 0
 322 699 331 710 342 710 c 0
 362 710 359 700 436 688 c 0
 451 688 543 692 601 696 c 2
 629 698 648 699 649 699 c 0
 665 699 677 694 689 684 c 0
 694 670 693 673 693 668 c 0
 693 649 676 635 651 634 c 0
 636 633 624 630 609 630 c 2
 609 630 599 630 598 630 c 0
 590 630 572 629 556 627 c 1
 556 625 548 564 545 447 c 1
 551 448 556 448 568 448 c 0
 582 448 669 440 683 440 c 2
 684 440 l 2
 760 440 821 433 841 422 c 0
 852 415 858 406 858 396 c 0
 858 394 857 391 857 389 c 1
 888 390 l 1
 843 365 l 2
 834 360 824 358 810 358 c 0
 805 358 802 358 793 359 c 0
 790 362 787 365 784 368 c 0
 751 372 719 374 686 374 c 0
 683 374 679 374 676 374 c 1
 676 373 l 1
 664 374 605 381 567 381 c 0
 489 381 331 352 253 352 c 0
 237 352 222 352 222 352 c 2
 179 352 142 370 142 390 c 0
 142 403 154 411 174 412 c 0
 178 412 182 413 186 413 c 0
 194 413 202 413 211 413 c 0
 271 413 356 421 458 436 c 1
 479 440 l 1
 479 444 480 449 480 453 c 2
 480 455 l 2
 480 508 486 578 494 625 c 1
 492 625 489 625 487 625 c 0
 476 625 466 624 455 624 c 0
835 -64 m 0
 835 -76 824 -82 804 -82 c 0
 783 -82 740 -77 665 -73 c 0
 649 -73 497 -66 481 -66 c 2
 434 -66 l 2
 416 -66 286 -71 268 -71 c 0
 224 -71 200 -69 189 -65 c 1
 189 -65 189 -65 188 -65 c 0
 184 -65 179 -63 161 -52 c 1
 166 -47 l 1
 166 -46 166 -45 165 -44 c 2
 163 -41 163 -38 163 -31 c 0
 163 -22 165 -17 170 -12 c 0
 174 -7 177 -5 184 4 c 0
 193 17 208 36 229 62 c 0
 260 100 301 160 331 208 c 1
 362 275 383 314 403 343 c 0
 410 352 413 354 420 354 c 0
 433 354 445 334 445 312 c 0
 445 297 443 292 389 177 c 1
 306 46 259 -4 258 -6 c 1
 276 -6 451 0 469 0 c 0
 497 0 529 -1 583 -3 c 0
 641 -3 808 -16 823 -21 c 1
 848 -32 l 1
 835 -38 l 1
 837 -43 837 -45 837 -48 c 0
 837 -54 837 -57 835 -60 c 0
 835 -61 835 -63 835 -64 c 0
181 -27 m 1
 187 -34 l 1
 189 -34 191 -33 194 -30 c 1
 194 -31 l 1
 197 -31 l 1
 206 -27 l 1
 203 -17 l 1
 192 -18 l 1
 190 -23 l 1
 191 -26 l 1
 193 -28 l 1
 181 -27 l 1
193 -28 m 1
 194 -30 l 1
 195 -29 l 1
 193 -28 l 1
EndSplineSet
EndChar

StartChar: hki
Encoding: 983323 983323 47
Width: 1000
GlyphClass: 1
Flags: HMW
LayerCount: 2
Fore
SplineSet
445 495 m 0
 445 534 453 605 459 614 c 1
 440 613 427 612 426 612 c 0
 348 612 291 631 280 661 c 1
 259 654 l 1
 282 685 l 2
 288 692 295 696 302 696 c 0
 347 696 368 673 413 673 c 0
 455 673 571 699 613 699 c 0
 632 699 651 683 651 667 c 0
 651 658 641 646 626 636 c 0
 615 629 613 631 601 623 c 0
 590 617 582 614 572 614 c 0
 566 614 560 616 554 621 c 1
 544 619 533 619 507 617 c 1
 512 609 514 600 514 587 c 2
 514 560 l 2
 514 528 509 500 509 468 c 2
 509 446 l 1
 516 447 522 447 539 447 c 0
 567 447 598 446 626 446 c 0
 654 446 680 447 708 447 c 0
 767 447 840 443 858 438 c 0
 874 434 880 429 889 411 c 1
 873 372 861 361 835 361 c 0
 821 361 810 367 807 378 c 1
 785 379 766 380 723 383 c 0
 695 382 666 380 634 380 c 0
 601 380 562 382 529 382 c 0
 496 382 492 367 459 367 c 0
 453 367 448 369 441 375 c 1
 390 373 374 372 331 368 c 0
 266 362 234 360 209 360 c 0
 151 360 113 378 113 406 c 0
 113 419 120 427 131 427 c 2
 142 427 l 2
 162 427 176 421 196 421 c 0
 222 421 341 437 403 438 c 0
 418 438 413 438 443 441 c 0
 444 446 445 460 445 479 c 2
 445 479 445 494 445 495 c 0
626 -55 m 0
 623 -55 355 -83 352 -83 c 0
 335 -83 327 -76 325 -60 c 0
 324 -51 322 -41 320 -34 c 1
 353 10 331 -19 342 -5 c 0
 398 63 389 69 433 125 c 0
 454 146 536 255 577 317 c 0
 599 350 611 360 628 360 c 0
 641 360 650 348 650 332 c 0
 650 324 647 316 636 295 c 0
 611 246 582 206 503 108 c 0
 476 74 475 73 466 61 c 0
 455 42 443 22 424 -7 c 1
 512 1 686 16 697 16 c 0
 742 16 780 14 789 10 c 1
 791 18 l 1
 797 9 801 3 803 0 c 0
 808 -3 815 -16 815 -23 c 0
 815 -39 796 -52 772 -52 c 0
 748 -52 718 -50 694 -50 c 0
 679 -50 665 -51 626 -55 c 0
757 -30 m 1
 775 -30 l 1
 778 -23 l 1
 774 -15 l 1
 756 -20 l 1
 755 -24 l 1
 757 -30 l 1
162 -41 m 0
 152 -41 141 -27 141 -15 c 1
 129 -15 l 1
 154 34 154 35 188 83 c 0
 195 90 204 98 211 105 c 0
 237 136 249 150 265 166 c 0
 299 200 343 259 371 307 c 0
 376 315 379 322 379 323 c 1
 380 334 l 1
 410 334 l 1
 412 322 412 325 412 314 c 0
 412 281 351 182 299 130 c 1
 286 112 245 57 243 55 c 0
 223 28 215 13 195 -32 c 1
 170 -40 168 -41 162 -41 c 0
EndSplineSet
EndChar

StartChar: tc
Encoding: 983324 983324 48
Width: 1000
GlyphClass: 1
Flags: HMW
LayerCount: 2
Fore
SplineSet
195 261 m 0
 178 261 168 268 168 281 c 0
 168 294 179 309 198 320 c 0
 272 367 452 566 502 657 c 0
 546 736 535 769 561 769 c 0
 577 769 588 754 588 733 c 0
 588 678 557 614 492 530 c 1
 506 526 524 515 541 499 c 0
 578 465 647 399 723 324 c 1
 759 298 787 281 810 272 c 2
 859 254 l 1
 831 251 l 1
 832 247 833 243 833 240 c 0
 833 222 816 208 793 208 c 0
 774 208 760 213 747 226 c 0
 732 240 710 251 681 276 c 0
 647 304 591 363 507 458 c 0
 479 486 474 492 470 502 c 1
 418 440 352 371 295 319 c 0
 245 274 223 261 195 261 c 0
531 -34 m 1
 543 47 556 183 556 238 c 0
 556 264 553 272 553 298 c 0
 553 305 553 307 554 313 c 0
 555 314 557 316 558 317 c 0
 561 333 567 339 580 339 c 0
 606 339 621 297 621 224 c 0
 621 199 607 70 607 45 c 0
 604 14 600 -18 595 -50 c 0
 595 -53 596 -56 596 -59 c 0
 596 -88 581 -104 553 -104 c 0
 489 -104 386 -58 318 -0 c 0
 277 35 248 72 215 106 c 0
 185 137 179 147 179 162 c 0
 179 174 188 182 201 182 c 0
 270 182 340 2 531 -34 c 1
EndSplineSet
EndChar

StartChar: tca
Encoding: 983325 983325 49
Width: 1000
GlyphClass: 1
Flags: HMW
LayerCount: 2
Fore
SplineSet
734 -44 m 0
 734 -62 721 -73 699 -73 c 0
 677 -73 651 -71 629 -71 c 0
 570 -71 538 -78 479 -78 c 0
 408 -78 381 -76 355 -67 c 0
 309 -56 288 -41 288 -21 c 0
 288 -12 295 -5 304 -5 c 0
 321 -5 378 -16 395 -16 c 0
 456 -16 574 -5 635 -5 c 0
 672 -5 703 -7 710 -9 c 2
 754 -24 l 1
 732 -29 l 1
 734 -33 734 -36 734 -44 c 0
577 249 m 0
 577 251 577 253 577 257 c 0
 577 364 581 381 604 381 c 0
 612 381 620 375 629 362 c 0
 637 350 640 328 640 270 c 0
 640 224 638 205 626 139 c 0
 618 89 605 71 578 71 c 0
 528 71 455 101 326 175 c 1
 320 187 318 193 318 201 c 0
 318 217 331 226 353 227 c 1
 356 228 l 1
 383 215 401 205 426 192 c 0
 477 166 518 150 560 139 c 1
 564 159 566 168 569 181 c 0
 574 199 577 226 577 249 c 0
796 370 m 0
 796 356 782 340 770 340 c 0
 752 340 683 373 631 407 c 0
 592 433 571 449 521 493 c 0
 499 512 499 512 496 515 c 1
 451 486 349 375 258 351 c 0
 244 347 242 347 237 347 c 0
 218 347 203 358 203 372 c 0
 203 405 259 399 331 460 c 0
 349 475 351 478 392 513 c 0
 477 584 483 592 531 688 c 0
 546 716 549 719 557 721 c 0
 562 726 567 728 573 728 c 0
 587 728 600 716 600 703 c 0
 600 682 557 593 527 553 c 1
 552 544 582 511 676 454 c 0
 750 408 751 423 791 399 c 1
 796 375 l 2
 796 373 796 372 796 370 c 0
EndSplineSet
EndChar

StartChar: hg
Encoding: 983326 983326 50
Width: 1000
GlyphClass: 1
Flags: HMW
LayerCount: 2
Fore
SplineSet
353 666 m 0
 382 666 377 651 406 651 c 0
 442 651 548 672 584 672 c 0
 585 672 586 672 586 672 c 1
 600 679 602 680 612 682 c 0
 614 682 615 683 617 683 c 0
 639 683 656 668 656 649 c 0
 656 641 643 629 633 626 c 2
 628 618 611 611 593 609 c 0
 581 608 577 607 540 601 c 1
 543 590 545 576 545 559 c 0
 545 527 541 492 530 426 c 1
 554 426 574 427 597 428 c 1
 644 422 715 415 768 406 c 0
 797 400 805 394 805 372 c 0
 805 360 801 351 790 338 c 0
 760 328 779 333 771 333 c 0
 752 333 765 344 671 353 c 0
 642 356 617 359 595 362 c 1
 442 360 406 334 299 334 c 0
 297 334 295 334 293 334 c 0
 243 334 195 365 195 398 c 0
 195 409 202 416 212 416 c 0
 251 416 263 396 302 396 c 0
 343 396 455 415 461 423 c 0
 469 435 487 547 488 594 c 1
 414 588 424 589 419 589 c 0
 372 589 340 605 330 635 c 1
 326 643 l 1
 329 643 l 1
 329 658 337 666 353 666 c 0
212 -43 m 2
 212 -36 l 1
 202 -36 l 1
 208 -29 l 1
 205 -28 202 -27 199 -26 c 1
 204 -25 210 -23 214 -22 c 0
 214 -20 218 -15 221 -14 c 0
 259 29 261 10 369 153 c 1
 358 153 336 153 336 153 c 2
 291 153 276 156 263 165 c 0
 256 170 252 171 248 174 c 0
 243 178 240 182 240 188 c 0
 240 202 258 212 285 212 c 0
 289 212 293 212 302 212 c 0
 335 212 380 215 415 220 c 1
 475 321 486 336 503 336 c 0
 516 336 527 321 527 303 c 0
 527 289 524 283 492 229 c 1
 493 229 589 241 596 241 c 0
 613 241 627 240 644 240 c 2
 682 240 l 1
 694 244 697 244 702 244 c 0
 720 244 732 232 732 213 c 0
 732 181 719 174 653 174 c 0
 620 174 601 174 581 175 c 1
 538 170 495 165 452 160 c 1
 386 67 340 10 305 -22 c 1
 354 -20 356 -14 432 -5 c 0
 498 3 613 12 656 12 c 0
 775 12 798 7 798 -17 c 0
 798 -22 798 -24 797 -26 c 1
 809 -24 l 1
 781 -62 785 -57 780 -60 c 0
 776 -62 770 -63 759 -63 c 0
 755 -63 745 -59 742 -56 c 0
 695 -53 689 -53 656 -53 c 0
 538 -53 401 -82 308 -86 c 0
 303 -86 298 -87 293 -87 c 0
 253 -87 212 -65 212 -43 c 2
EndSplineSet
EndChar

StartChar: hv
Encoding: 983327 983327 51
Width: 1000
GlyphClass: 1
Flags: HMW
LayerCount: 2
Fore
SplineSet
682 297 m 1
 679 152 658 198 658 -9 c 0
 658 -11 658 -14 658 -16 c 1
 690 4 712 21 777 74 c 0
 794 87 806 98 817 109 c 0
 832 122 838 125 849 125 c 0
 863 125 872 114 872 99 c 0
 872 85 865 73 843 51 c 0
 770 -22 662 -96 629 -96 c 0
 615 -96 604 -87 597 -72 c 0
 593 -59 592 -48 592 -4 c 0
 592 181 610 173 614 253 c 1
 583 247 577 245 559 241 c 0
 545 237 517 232 486 228 c 1
 394 190 441 209 439 209 c 0
 390 202 391 193 351 191 c 0
 328 190 297 189 283 189 c 0
 255 189 232 203 232 219 c 0
 232 232 240 237 270 242 c 0
 315 248 335 251 359 253 c 1
 372 258 428 275 438 277 c 0
 454 285 464 288 486 292 c 0
 491 293 643 325 645 325 c 0
 648 325 648 325 706 316 c 1
 672 306 l 1
 673 305 673 304 682 297 c 1
128 365 m 0
 128 377 136 382 156 382 c 0
 175 382 185 380 204 380 c 0
 235 380 321 396 434 423 c 0
 451 427 467 430 481 433 c 1
 480 435 480 436 480 441 c 0
 480 453 486 458 489 466 c 0
 493 477 505 560 511 580 c 1
 380 583 367 586 335 611 c 0
 326 617 320 629 320 639 c 0
 320 650 328 657 340 657 c 0
 345 657 346 657 360 652 c 2
 374 647 387 642 391 641 c 0
 410 641 429 641 448 641 c 0
 522 641 598 656 672 656 c 1
 678 661 684 663 690 663 c 0
 714 663 726 651 726 627 c 0
 726 603 706 591 665 591 c 2
 664 591 l 2
 646 591 668 588 560 582 c 1
 562 575 563 567 563 558 c 0
 563 535 554 478 554 455 c 0
 554 451 554 443 554 443 c 1
 565 444 616 449 617 449 c 0
 704 456 744 458 788 458 c 0
 800 458 813 457 825 457 c 0
 842 456 846 454 858 441 c 0
 864 435 867 427 867 419 c 0
 867 406 862 399 849 396 c 0
 845 394 833 391 830 391 c 0
 814 391 802 393 786 393 c 0
 667 393 537 379 435 356 c 0
 344 336 258 321 228 321 c 0
 205 321 164 327 160 331 c 0
 147 338 147 337 146 338 c 0
 134 347 128 356 128 365 c 0
EndSplineSet
EndChar

StartChar: hm
Encoding: 983328 983328 52
Width: 1000
GlyphClass: 1
Flags: HMW
LayerCount: 2
Fore
SplineSet
330 223 m 0
 384 223 459 195 537 145 c 1
 547 160 559 182 583 219 c 1
 550 212 520 208 490 208 c 0
 403 208 330 235 330 268 c 0
 330 280 338 287 351 287 c 0
 399 287 422 270 470 270 c 0
 525 270 606 306 661 306 c 0
 676 306 688 299 696 287 c 2
 715 258 l 1
 691 265 l 1
 691 264 l 1
 692 263 692 262 692 258 c 0
 692 251 681 234 665 216 c 1
 651 200 646 194 595 114 c 1
 620 105 669 77 721 45 c 0
 764 19 807 -18 833 -51 c 1
 845 -55 854 -63 859 -74 c 0
 865 -78 869 -83 871 -90 c 0
 877 -96 880 -102 880 -109 c 0
 880 -123 863 -139 848 -139 c 0
 832 -139 816 -128 783 -95 c 0
 781 -93 778 -89 776 -87 c 0
 722 -30 672 4 553 63 c 1
 547 59 548 58 501 21 c 0
 412 -50 328 -83 240 -83 c 0
 181 -83 128 -62 128 -39 c 0
 128 -23 141 -17 175 -17 c 0
 199 -17 207 -20 231 -20 c 0
 272 -20 308 -13 344 0 c 1
 393 25 417 41 495 101 c 1
 480 110 467 119 438 139 c 0
 416 150 382 164 360 171 c 0
 313 185 303 191 303 205 c 0
 303 216 313 223 330 223 c 0
380 587 m 0
 304 587 246 614 246 650 c 0
 246 656 247 658 257 677 c 1
 266 666 l 2
 267 666 267 666 268 666 c 0
 314 666 333 650 379 650 c 0
 445 650 626 676 683 694 c 1
 685 695 687 695 688 695 c 0
 709 695 726 680 726 661 c 0
 726 653 721 646 712 639 c 1
 703 630 l 1
 657 617 657 617 557 601 c 1
 563 581 560 592 560 590 c 0
 560 583 561 577 561 570 c 0
 561 558 560 546 557 507 c 2
 553 468 549 428 547 410 c 1
 571 413 598 415 633 415 c 0
 724 415 779 409 844 393 c 0
 873 385 883 377 888 357 c 1
 880 331 861 317 834 317 c 0
 810 317 789 326 781 340 c 0
 733 340 677 349 629 349 c 0
 536 349 337 300 244 300 c 0
 183 300 115 325 115 348 c 0
 115 358 121 364 133 365 c 0
 135 365 136 366 138 366 c 0
 141 366 148 366 157 366 c 0
 183 366 199 361 225 361 c 0
 313 361 368 388 481 401 c 1
 491 513 498 571 505 594 c 1
 456 590 410 587 380 587 c 0
EndSplineSet
EndChar

StartChar: hom
Encoding: 983329 983329 53
Width: 1000
GlyphClass: 1
Flags: HMW
LayerCount: 2
Fore
SplineSet
403 193 m 0
 342 193 310 206 310 232 c 0
 310 245 319 255 329 255 c 0
 331 255 332 254 334 254 c 0
 347 254 344 255 357 255 c 2
 366 255 l 2
 433 255 527 265 573 276 c 1
 578 305 627 372 693 441 c 0
 733 483 752 509 780 557 c 0
 780 558 804 598 816 620 c 0
 819 627 826 632 833 632 c 0
 845 632 858 612 858 594 c 0
 858 549 821 489 742 403 c 0
 741 402 662 313 632 283 c 1
 648 279 659 267 659 252 c 0
 659 239 655 232 597 153 c 0
 560 103 560 103 547 90 c 1
 573 76 660 6 686 -23 c 0
 687 -24 747 -87 750 -91 c 1
 776 -101 759 -100 797 -116 c 1
 797 -135 802 -124 802 -143 c 0
 802 -150 800 -156 797 -160 c 1
 829 -176 l 1
 771 -173 l 2
 753 -172 739 -166 727 -154 c 1
 713 -149 702 -140 693 -126 c 0
 612 -43 594 -26 556 2 c 0
 527 26 509 37 488 42 c 1
 467 27 462 24 447 13 c 0
 348 -61 295 -81 203 -81 c 0
 157 -81 142 -73 142 -49 c 0
 142 -34 152 -22 168 -20 c 1
 182 -20 l 2
 239 -20 301 -5 345 20 c 1
 419 74 l 1
 406 82 355 119 310 142 c 0
 270 163 263 168 263 178 c 0
 263 187 270 193 281 193 c 0
 364 193 427 133 475 114 c 1
 493 126 511 145 532 175 c 0
 538 183 547 195 556 207 c 1
 505 198 445 193 403 193 c 0
180 359 m 0
 197 359 186 362 203 362 c 0
 212 362 222 362 226 362 c 0
 250 362 326 381 418 393 c 1
 407 404 403 411 403 419 c 0
 403 428 408 435 417 439 c 1
 429 557 433 583 441 604 c 1
 427 602 410 601 390 601 c 0
 354 601 336 606 319 622 c 0
 306 634 300 646 300 658 c 0
 300 670 306 677 316 677 c 0
 332 677 368 664 384 664 c 0
 422 664 478 676 551 699 c 1
 580 697 592 689 592 673 c 0
 592 663 586 653 573 643 c 1
 569 631 534 615 510 615 c 2
 507 615 l 2
 502 615 500 615 491 613 c 1
 494 602 496 590 496 577 c 0
 496 565 495 553 492 525 c 0
 492 494 481 410 475 399 c 1
 522 403 550 405 566 405 c 0
 601 405 615 395 615 369 c 0
 615 348 591 329 565 329 c 0
 557 329 549 333 544 339 c 1
 480 331 447 331 370 319 c 0
 255 300 249 299 229 299 c 0
 180 299 152 314 152 339 c 0
 152 352 157 356 180 359 c 0
EndSplineSet
EndChar

StartChar: hme
Encoding: 983330 983330 54
Width: 1000
GlyphClass: 1
Flags: HMW
LayerCount: 2
Fore
SplineSet
735 395 m 0
 664 395 396 372 325 372 c 0
 270 372 240 377 221 390 c 0
 208 400 204 406 204 415 c 0
 204 429 216 435 245 435 c 0
 261 435 282 434 298 434 c 0
 324 434 366 441 392 441 c 0
 436 444 476 448 530 452 c 1
 531 453 l 1
 528 460 527 467 527 481 c 0
 527 519 537 580 549 611 c 1
 514 608 485 606 457 606 c 0
 398 606 372 614 342 641 c 0
 332 656 332 657 332 664 c 0
 332 674 340 682 352 682 c 0
 388 682 395 663 431 663 c 0
 448 663 514 670 571 677 c 0
 638 686 641 682 662 685 c 0
 665 685 668 686 671 686 c 0
 691 686 702 675 702 656 c 0
 702 648 701 642 699 637 c 1
 699 636 l 2
 699 632 697 628 694 625 c 0
 691 623 659 617 650 617 c 0
 636 617 638 619 624 619 c 0
 616 619 609 619 605 619 c 1
 606 611 605 609 605 604 c 0
 605 593 604 585 600 554 c 0
 597 534 597 534 588 456 c 1
 650 460 691 462 729 462 c 0
 846 462 883 451 883 418 c 0
 883 397 863 380 839 380 c 0
 829 380 820 384 812 393 c 1
 802 394 771 395 735 395 c 0
372 222 m 0
 372 234 396 249 417 249 c 0
 453 249 530 208 611 147 c 1
 666 238 671 248 682 284 c 1
 613 263 592 259 565 259 c 0
 559 259 553 259 547 259 c 0
 541 258 529 257 517 257 c 0
 481 257 461 264 433 285 c 0
 414 300 408 309 408 322 c 0
 408 336 417 347 428 347 c 0
 434 347 447 342 465 333 c 0
 467 332 469 330 471 329 c 0
 487 320 492 319 508 319 c 0
 517 319 527 320 541 321 c 0
 546 321 550 322 555 322 c 0
 630 327 691 357 708 357 c 0
 733 357 750 337 750 307 c 0
 750 264 721 200 661 108 c 1
 687 87 716 74 750 45 c 0
 766 32 772 25 817 -33 c 0
 853 -79 853 -79 853 -90 c 0
 853 -97 850 -105 845 -111 c 1
 862 -119 l 1
 839 -121 823 -123 822 -123 c 2
 821 -123 821 -123 820 -123 c 0
 815 -124 814 -124 812 -124 c 2
 807 -124 802 -122 798 -118 c 0
 791 -111 791 -111 790 -110 c 0
 744 -43 697 9 673 21 c 0
 653 33 638 43 620 57 c 1
 599 35 544 -15 509 -42 c 0
 490 -57 478 -63 465 -63 c 0
 451 -63 440 -54 440 -41 c 0
 440 -25 448 -15 504 34 c 0
 543 69 553 78 570 96 c 1
 432 208 372 197 372 222 c 0
118 259 m 0
 118 270 127 277 140 277 c 0
 177 277 255 210 299 139 c 0
 309 124 403 -14 405 -16 c 0
 424 -44 426 -48 426 -62 c 0
 426 -79 413 -93 397 -93 c 0
 381 -93 364 -77 342 -43 c 0
 316 -6 260 84 246 110 c 0
 228 144 207 171 178 197 c 0
 175 199 156 216 132 237 c 2
 120 249 118 252 118 259 c 0
376 -48 m 1
 387 -59 l 2
 389 -59 389 -59 390 -58 c 1
 378 -47 l 1
 376 -48 l 1
EndSplineSet
EndChar

StartChar: hr
Encoding: 983331 983331 55
Width: 1000
GlyphClass: 1
Flags: HMW
LayerCount: 2
Fore
SplineSet
360 256 m 0
 340 256 309 262 277 272 c 1
 238 280 219 295 219 319 c 0
 219 332 230 343 243 343 c 0
 250 343 255 340 258 336 c 0
 259 336 328 320 351 320 c 0
 429 320 514 360 592 360 c 0
 601 360 610 360 614 360 c 0
 621 360 623 361 630 361 c 0
 655 361 670 347 670 323 c 0
 670 319 668 313 666 308 c 0
 662 300 656 298 641 286 c 0
 585 244 585 244 538 218 c 1
 552 217 562 216 566 216 c 0
 659 210 712 178 712 127 c 0
 712 114 707 98 700 87 c 1
 655 30 633 10 589 -14 c 0
 464 -85 393 -115 313 -131 c 0
 311 -131 242 -144 224 -148 c 0
 201 -144 191 -135 191 -118 c 0
 191 -112 192 -108 195 -103 c 0
 212 -66 306 -92 460 -9 c 0
 466 -3 571 46 596 69 c 0
 626 99 639 114 645 128 c 1
 600 173 420 133 420 201 c 0
 420 222 438 240 479 261 c 0
 489 265 501 272 520 283 c 1
 426 260 400 256 360 256 c 0
716 655 m 0
 716 634 702 619 684 619 c 0
 669 619 675 624 649 625 c 0
 634 625 614 626 599 626 c 0
 574 626 552 619 492 618 c 1
 494 611 495 604 495 596 c 0
 495 581 490 471 490 456 c 0
 490 455 490 454 490 453 c 1
 541 453 616 461 667 461 c 0
 778 461 877 452 893 440 c 0
 901 434 906 424 906 415 c 0
 906 391 879 372 847 372 c 0
 835 372 824 377 817 388 c 1
 782 391 697 394 638 394 c 0
 528 394 316 367 206 367 c 0
 204 367 202 367 200 367 c 0
 157 367 135 373 114 391 c 0
 101 402 96 412 96 423 c 0
 96 433 102 441 111 442 c 1
 112 443 l 1
 142 438 135 439 146 436 c 0
 157 433 177 431 192 431 c 0
 239 431 337 438 409 446 c 1
 411 451 415 454 423 458 c 1
 430 566 432 589 435 614 c 1
 408 610 380 608 352 608 c 0
 334 608 305 605 287 605 c 0
 254 605 230 610 194 624 c 1
 182 641 170 642 170 657 c 0
 170 669 185 679 201 679 c 0
 228 679 262 670 289 670 c 2
 307 670 l 2
 313 670 577 691 583 691 c 0
 592 691 603 691 613 691 c 0
 658 691 676 690 691 686 c 2
 726 676 l 1
 711 670 l 1
 714 664 716 660 716 655 c 0
EndSplineSet
EndChar

StartChar: hra
Encoding: 983332 983332 56
Width: 1000
GlyphClass: 1
Flags: HMW
LayerCount: 2
Fore
SplineSet
173 -46 m 0
 186 -46 197 -50 236 -68 c 1
 243 -66 251 -65 257 -65 c 0
 259 -65 259 -65 261 -65 c 0
 327 -65 329 -54 450 -48 c 0
 540 -43 540 -43 543 -43 c 0
 580 -43 612 -44 641 -47 c 0
 644 -47 651 -47 651 -47 c 2
 712 -47 775 -56 842 -75 c 0
 867 -83 872 -89 872 -111 c 0
 872 -112 872 -114 872 -116 c 1
 884 -117 l 1
 866 -135 l 2
 862 -139 850 -143 838 -144 c 1
 825 -144 820 -136 761 -124 c 0
 713 -114 675 -118 606 -112 c 0
 577 -110 567 -109 563 -109 c 0
 535 -109 478 -111 423 -115 c 0
 387 -117 303 -131 264 -131 c 0
 260 -131 260 -131 252 -130 c 0
 244 -132 243 -132 239 -132 c 0
 224 -132 196 -118 164 -94 c 0
 147 -84 141 -77 141 -67 c 0
 141 -55 154 -46 173 -46 c 0
282 340 m 0
 282 353 293 358 325 358 c 0
 349 358 364 356 388 356 c 0
 396 356 403 356 410 356 c 0
 415 356 457 355 462 355 c 0
 514 355 533 367 609 374 c 0
 626 376 619 377 626 377 c 0
 638 377 659 352 659 337 c 0
 659 314 615 295 580 260 c 1
 628 248 681 254 713 229 c 0
 727 218 734 205 734 190 c 0
 734 151 676 90 613 61 c 0
 573 44 552 39 529 39 c 0
 505 39 494 46 494 60 c 0
 494 69 499 76 511 84 c 0
 558 116 612 111 663 184 c 1
 638 192 575 191 535 211 c 0
 515 221 505 236 505 252 c 0
 505 264 512 280 525 297 c 1
 503 293 488 292 470 292 c 0
 448 292 409 296 387 296 c 0
 386 296 386 296 385 296 c 0
 323 296 282 313 282 340 c 0
247 363 m 0
 171 363 128 381 128 413 c 0
 128 425 137 436 147 436 c 0
 175 436 201 425 229 425 c 0
 277 425 333 444 453 459 c 0
 476 461 482 462 485 464 c 0
 487 470 494 546 502 585 c 1
 476 584 416 583 404 583 c 0
 360 583 314 617 314 649 c 0
 314 660 321 668 331 668 c 2
 332 668 l 2
 365 668 372 647 405 647 c 0
 409 647 670 657 674 657 c 0
 726 657 757 642 757 616 c 0
 757 601 741 585 727 585 c 0
 703 585 696 591 672 591 c 0
 647 591 595 586 570 586 c 0
 568 586 565 586 563 586 c 0
 562 570 559 542 552 462 c 1
 556 462 686 464 690 464 c 0
 754 464 808 459 822 452 c 0
 838 442 845 433 845 420 c 0
 845 400 832 386 814 386 c 0
 729 386 765 397 680 397 c 0
 512 397 435 392 337 375 c 0
 283 365 270 363 247 363 c 0
EndSplineSet
EndChar

StartChar: DJE
Encoding: 983333 983333 57
Width: 1000
GlyphClass: 1
Flags: HMW
LayerCount: 2
Fore
SplineSet
708 -101 m 0
 708 -116 689 -134 673 -134 c 0
 653 -134 637 -119 634 -97 c 1
 608 -46 585 -16 542 21 c 0
 495 62 485 57 397 125 c 0
 396 125 395 124 394 124 c 0
 393 124 393 125 378 126 c 1
 386 160 385 154 387 177 c 1
 405 163 405 163 406 163 c 0
 408 163 408 163 410 163 c 0
 431 163 529 111 579 73 c 0
 585 68 588 66 592 64 c 0
 633 35 708 -71 708 -101 c 0
497 673 m 2
 506 673 548 651 557 651 c 0
 598 651 745 680 786 680 c 0
 818 680 838 673 849 657 c 2
 862 639 l 1
 860 639 l 1
 861 637 861 636 861 633 c 0
 861 620 853 600 831 504 c 0
 801 372 797 304 783 278 c 0
 775 264 764 258 746 258 c 0
 690 258 606 317 606 356 c 0
 606 369 614 377 627 377 c 0
 659 377 697 335 732 325 c 1
 737 345 744 410 770 523 c 0
 777 552 785 584 793 617 c 1
 792 617 l 2
 769 617 749 614 726 614 c 0
 710 613 577 596 576 596 c 0
 567 595 565 594 562 594 c 0
 522 594 471 625 471 650 c 0
 471 654 472 658 474 662 c 1
 470 665 l 1
 476 667 l 1
 479 687 l 1
 496 673 l 1
 497 673 l 2
215 476 m 1
 243 463 243 463 246 456 c 0
 252 456 257 455 263 455 c 0
 305 455 344 458 366 464 c 1
 371 479 395 579 395 585 c 0
 409 650 407 681 413 698 c 0
 413 699 413 699 413 700 c 0
 413 709 421 715 432 715 c 2
 442 715 l 2
 457 715 468 696 468 671 c 0
 468 629 465 611 438 484 c 1
 464 494 530 517 531 517 c 0
 541 520 547 521 553 521 c 0
 567 521 580 506 580 490 c 0
 580 465 542 446 416 409 c 0
 414 405 413 400 411 396 c 1
 464 389 510 367 557 324 c 0
 559 324 560 325 562 325 c 0
 573 325 582 319 589 307 c 0
 598 294 602 285 602 279 c 0
 602 264 581 243 565 243 c 0
 536 243 493 335 391 350 c 1
 329 237 245 98 216 60 c 0
 195 30 170 9 156 9 c 0
 146 9 138 17 138 28 c 0
 138 64 269 243 339 394 c 1
 326 393 312 392 300 392 c 2
 284 392 l 2
 230 392 198 408 198 435 c 0
 198 446 211 451 211 462 c 2
 215 476 l 1
EndSplineSet
EndChar

StartChar: h'dj
Encoding: 983334 983334 58
Width: 1000
GlyphClass: 1
Flags: HMW
LayerCount: 2
Fore
SplineSet
490 429 m 0
 490 472 509 550 509 593 c 2
 509 594 l 2
 509 605 511 617 513 626 c 1
 505 626 470 623 462 623 c 0
 443 623 431 626 406 635 c 0
 390 641 388 641 378 644 c 0
 350 652 338 660 326 680 c 1
 318 685 313 693 313 702 c 1
 294 715 l 1
 338 726 338 726 341 726 c 0
 351 726 362 719 380 701 c 0
 381 701 381 701 382 701 c 0
 408 701 435 684 461 684 c 0
 469 684 477 684 491 686 c 2
 559 694 612 699 620 700 c 0
 632 704 672 710 684 710 c 0
 703 710 709 706 715 687 c 1
 716 682 716 679 716 678 c 0
 716 676 715 674 715 672 c 0
 721 660 718 667 718 665 c 0
 718 656 711 649 699 645 c 0
 675 638 600 635 565 629 c 1
 568 620 570 610 570 599 c 0
 570 544 555 485 555 430 c 1
 646 439 682 442 699 442 c 0
 707 442 760 441 768 441 c 0
 769 441 777 441 777 441 c 2
 818 441 834 437 839 423 c 0
 839 416 845 412 845 405 c 0
 845 394 837 383 826 378 c 0
 823 373 820 372 814 372 c 0
 802 372 788 375 776 375 c 0
 773 375 770 375 765 375 c 0
 743 375 720 376 698 376 c 0
 570 376 402 335 240 330 c 0
 238 330 237 330 236 330 c 0
 209 330 186 339 173 355 c 0
 167 357 164 362 164 368 c 0
 164 376 165 378 181 401 c 1
 192 391 192 391 193 390 c 0
 200 389 206 389 220 389 c 0
 236 389 261 394 277 394 c 0
 321 397 363 401 421 411 c 0
 436 413 463 418 490 422 c 0
 490 424 490 427 490 429 c 0
343 698 m 1
 352 709 l 1
 341 721 l 1
 339 721 l 1
 330 710 l 1
 341 698 l 1
 343 698 l 1
489 171 m 0
 503 171 516 154 516 137 c 0
 516 135 515 134 515 132 c 1
 518 132 l 1
 514 128 l 1
 512 123 508 119 503 116 c 0
 496 109 495 109 478 104 c 0
 460 99 430 92 399 82 c 1
 392 68 383 53 373 38 c 1
 375 37 377 36 377 35 c 1
 411 32 505 -9 527 -30 c 0
 533 -35 537 -46 537 -55 c 1
 537 -71 522 -86 505 -86 c 0
 489 -86 468 -58 411 -35 c 0
 393 -27 374 -14 364 -4 c 1
 345 -14 l 1
 346 -8 348 -3 349 1 c 1
 321 -40 277 -92 246 -123 c 0
 227 -142 214 -149 198 -149 c 0
 180 -149 166 -135 166 -119 c 0
 166 -110 171 -103 182 -96 c 0
 201 -85 272 1 313 62 c 1
 279 59 267 58 251 58 c 0
 195 58 176 62 165 77 c 1
 151 75 l 1
 160 108 159 105 163 113 c 2
 170 125 l 1
 180 119 l 1
 187 119 194 118 201 118 c 0
 262 118 312 124 352 135 c 1
 374 179 390 224 405 288 c 0
 405 290 406 291 406 293 c 0
 407 298 407 298 412 308 c 1
 439 308 l 1
 459 326 462 328 470 328 c 0
 497 328 520 308 547 308 c 0
 611 308 700 362 764 362 c 0
 797 362 816 345 816 317 c 0
 816 310 815 304 813 297 c 0
 808 234 803 203 787 127 c 0
 785 116 758 -13 758 -14 c 0
 758 -21 738 -97 735 -101 c 0
 727 -114 713 -122 698 -122 c 0
 655 -122 573 3 573 67 c 0
 573 80 579 88 590 88 c 0
 604 88 619 72 650 24 c 0
 661 6 674 -19 686 -35 c 1
 695 -1 698 13 707 60 c 0
 743 242 743 242 750 297 c 1
 727 292 649 253 552 253 c 0
 501 253 460 270 450 296 c 1
 450 295 450 295 450 294 c 0
 450 292 449 292 449 290 c 0
 454 275 455 269 455 257 c 0
 455 237 446 196 433 159 c 1
 490 173 479 171 489 171 c 0
EndSplineSet
EndChar

StartChar: hz
Encoding: 983335 983335 59
Width: 1000
GlyphClass: 1
Flags: HMW
LayerCount: 2
Fore
SplineSet
192 128 m 1
 209 150 213 153 221 153 c 0
 245 153 238 149 262 149 c 0
 395 149 497 172 678 182 c 0
 690 206 703 248 706 272 c 1
 705 272 705 272 704 272 c 0
 697 272 696 271 689 271 c 0
 666 271 660 273 637 273 c 2
 603 273 l 2
 556 273 395 250 348 250 c 0
 330 250 310 251 289 254 c 0
 256 259 256 269 246 272 c 2
 232 276 l 1
 240 295 241 297 247 305 c 2
 259 321 l 1
 266 308 l 1
 268 308 271 308 274 308 c 2
 290 307 307 307 314 307 c 0
 396 307 520 338 602 338 c 0
 609 338 617 338 624 338 c 0
 648 338 658 336 682 336 c 0
 684 336 696 336 709 337 c 2
 748 337 771 315 771 278 c 0
 771 247 760 213 718 108 c 0
 700 65 706 80 671 -12 c 0
 652 -61 638 -80 621 -80 c 0
 609 -80 602 -69 602 -50 c 0
 602 -22 618 33 650 114 c 1
 580 111 453 95 386 90 c 0
 353 88 326 87 299 87 c 0
 245 87 222 93 209 109 c 0
 205 114 203 119 202 120 c 2
 192 128 l 1
624 654 m 0
 617 654 603 648 570 642 c 1
 570 612 556 514 556 484 c 0
 556 481 556 477 556 474 c 1
 563 475 569 475 584 475 c 0
 599 475 634 472 671 467 c 0
 677 468 699 470 707 470 c 0
 736 470 774 462 847 440 c 0
 860 436 868 425 868 413 c 0
 868 390 848 370 825 370 c 0
 805 370 807 382 790 387 c 0
 774 393 723 404 709 404 c 0
 695 404 688 401 674 401 c 0
 642 401 615 409 583 409 c 0
 562 409 548 408 505 401 c 0
 451 394 280 372 274 372 c 0
 259 370 250 370 231 370 c 0
 182 370 158 376 141 393 c 0
 140 394 140 393 126 401 c 1
 137 420 137 420 153 444 c 1
 161 430 l 1
 167 430 171 429 177 429 c 0
 209 429 240 432 327 443 c 0
 353 446 359 448 386 451 c 0
 416 455 444 458 472 462 c 1
 476 471 482 477 492 480 c 1
 492 481 l 2
 492 521 499 576 511 640 c 1
 489 640 455 632 433 632 c 0
 394 632 350 651 338 674 c 0
 332 678 331 680 331 685 c 0
 331 694 345 707 356 707 c 0
 370 707 408 691 422 691 c 0
 447 691 450 697 525 703 c 0
 563 706 623 717 642 725 c 0
 663 732 656 730 661 730 c 0
 682 730 699 715 699 697 c 0
 699 677 686 663 664 659 c 0
 658 658 631 654 630 654 c 0
 627 654 625 654 624 654 c 0
EndSplineSet
EndChar

StartChar: h`mr
Encoding: 983336 983336 60
Width: 1000
GlyphClass: 1
Flags: HMW
LayerCount: 2
Fore
SplineSet
652 247 m 1
 572 224 554 220 516 220 c 0
 453 220 415 232 407 255 c 0
 405 256 405 256 394 266 c 1
 412 282 412 282 437 297 c 1
 439 283 l 2
 459 283 483 276 503 276 c 0
 533 276 560 281 592 292 c 0
 629 304 732 333 740 333 c 0
 749 333 758 329 766 322 c 2
 790 299 l 1
 774 300 l 1
 775 299 775 297 775 293 c 0
 775 287 772 282 767 278 c 0
 763 269 724 243 692 191 c 0
 683 178 677 165 675 158 c 1
 677 158 681 158 685 158 c 0
 705 158 742 161 762 161 c 0
 782 161 791 158 800 148 c 0
 810 138 817 123 817 112 c 0
 817 39 730 -57 616 -109 c 0
 584 -124 460 -155 433 -155 c 0
 409 -155 399 -149 399 -136 c 0
 399 -85 522 -92 616 -38 c 0
 689 4 734 50 751 102 c 1
 697 98 697 98 688 98 c 0
 635 98 611 116 611 154 c 0
 611 173 631 218 652 247 c 1
227 135 m 0
 160 135 114 150 114 172 c 0
 114 180 115 182 128 203 c 1
 139 196 139 196 140 195 c 0
 157 198 158 198 168 198 c 0
 176 198 185 197 193 195 c 0
 209 196 224 197 240 198 c 1
 238 204 237 220 237 237 c 1
 237 264 245 317 257 369 c 0
 260 383 265 400 269 419 c 1
 216 419 168 437 150 465 c 0
 149 467 149 465 148 466 c 0
 147 467 147 467 134 476 c 1
 158 498 159 499 167 499 c 0
 172 499 176 497 178 494 c 0
 212 484 239 479 266 479 c 0
 298 479 325 483 381 495 c 0
 383 493 385 491 387 489 c 0
 398 485 406 475 406 464 c 0
 406 439 383 426 330 422 c 1
 330 420 305 280 299 216 c 0
 298 207 298 202 297 198 c 1
 299 198 300 198 302 198 c 0
 316 198 330 202 344 202 c 0
 366 202 370 195 387 194 c 0
 394 194 400 192 406 188 c 2
 425 175 l 1
 422 174 l 1
 426 169 429 161 429 155 c 0
 429 137 408 121 385 121 c 0
 373 121 369 123 339 137 c 1
 324 134 319 133 310 133 c 0
 294 133 277 135 261 135 c 0
 251 135 238 135 227 135 c 0
615 633 m 0
 571 633 537 648 537 667 c 0
 537 680 547 692 558 692 c 0
 578 692 577 688 597 688 c 0
 619 688 696 709 718 709 c 0
 736 714 749 716 758 716 c 0
 776 716 791 700 791 682 c 0
 791 662 784 651 702 535 c 1
 747 508 858 414 883 382 c 0
 886 379 888 374 888 369 c 0
 888 355 871 338 858 338 c 0
 854 338 853 338 851 339 c 0
 848 337 845 336 843 336 c 0
 824 336 762 421 666 482 c 1
 567 342 494 295 375 295 c 0
 368 295 363 296 356 296 c 0
 341 302 333 311 333 323 c 0
 333 386 444 311 561 447 c 0
 576 465 594 489 610 513 c 1
 500 581 427 581 404 596 c 1
 385 581 l 1
 393 632 395 638 408 638 c 0
 412 638 414 637 417 634 c 0
 418 634 418 634 419 634 c 0
 492 634 561 613 646 565 c 1
 662 586 675 604 704 646 c 1
 651 634 642 633 615 633 c 0
EndSplineSet
EndChar

StartChar: hun
Encoding: 983337 983337 61
Width: 1000
GlyphClass: 1
Flags: HMW
LayerCount: 2
Fore
SplineSet
606 632 m 1
 591 639 591 640 591 649 c 0
 591 663 599 675 610 675 c 0
 615 675 616 675 617 674 c 0
 659 674 695 648 777 558 c 0
 805 526 805 526 876 404 c 0
 885 387 888 380 888 371 c 0
 888 348 873 333 850 333 c 0
 830 333 814 348 814 368 c 0
 814 370 814 371 814 372 c 0
 814 384 768 462 739 500 c 0
 698 553 656 595 606 632 c 1
546 425 m 0
 611 425 645 412 645 388 c 0
 645 370 626 351 608 351 c 0
 574 351 579 360 545 360 c 0
 530 360 422 357 407 357 c 0
 358 355 318 340 242 334 c 0
 238 334 234 333 230 333 c 0
 219 333 219 336 208 336 c 2
 204 336 l 2
 185 336 125 365 120 376 c 0
 118 379 118 380 117 380 c 2
 107 386 l 1
 117 402 116 401 134 426 c 1
 142 414 l 1
 155 413 169 410 203 399 c 0
 206 399 212 399 212 399 c 2
 220 399 227 398 234 396 c 0
 287 404 284 404 313 409 c 0
 315 409 378 421 380 422 c 0
 387 437 396 486 407 570 c 1
 382 566 375 565 365 565 c 0
 315 565 289 571 266 586 c 0
 259 590 256 596 256 603 c 0
 256 623 265 629 296 629 c 0
 310 629 317 628 331 628 c 0
 388 628 447 638 478 654 c 0
 489 661 501 664 514 664 c 0
 536 664 552 652 552 634 c 0
 552 603 547 600 463 579 c 1
 451 441 451 441 446 423 c 1
 521 425 521 425 546 425 c 0
525 -126 m 0
 500 -126 492 -99 492 -17 c 0
 492 26 494 72 497 125 c 1
 494 125 492 125 489 125 c 0
 453 125 388 114 352 114 c 0
 337 114 323 116 317 118 c 1
 316 118 l 2
 303 118 290 123 279 133 c 1
 254 135 234 150 229 171 c 1
 209 177 l 1
 227 189 l 1
 225 202 l 1
 234 196 l 1
 240 203 245 206 251 206 c 0
 262 206 268 192 279 192 c 2
 279 192 279 192 280 192 c 0
 293 192 305 188 315 181 c 0
 316 181 319 181 320 181 c 0
 332 181 334 178 346 178 c 0
 379 178 457 191 490 191 c 0
 494 191 497 191 501 191 c 0
 507 283 510 306 521 328 c 1
 519 341 l 1
 565 341 l 1
 564 329 l 2
 564 326 572 323 572 294 c 0
 572 272 570 261 566 191 c 1
 574 192 580 192 596 192 c 0
 610 192 629 191 643 191 c 0
 649 191 656 191 663 191 c 0
 679 191 688 190 704 190 c 0
 705 190 715 190 728 191 c 2
 754 191 795 181 804 172 c 0
 808 168 811 159 811 149 c 0
 811 141 809 134 804 119 c 1
 794 114 786 112 777 112 c 0
 749 112 751 125 723 125 c 0
 718 125 711 125 693 125 c 0
 668 125 629 126 604 126 c 0
 580 126 572 126 562 125 c 1
 555 17 554 -12 554 -33 c 0
 554 -43 555 -73 555 -83 c 0
 555 -109 543 -126 525 -126 c 0
EndSplineSet
EndChar

StartChar: hn
Encoding: 983338 983338 62
Width: 1000
GlyphClass: 1
Flags: HMW
LayerCount: 2
Fore
SplineSet
216 347 m 0
 197 351 181 366 181 381 c 0
 181 392 192 404 203 404 c 0
 208 404 212 402 216 398 c 0
 223 401 240 404 251 404 c 2
 251 404 268 404 269 404 c 0
 313 404 315 427 491 446 c 1
 492 460 503 558 503 589 c 0
 504 599 506 605 507 610 c 1
 495 608 482 607 471 607 c 0
 416 607 341 618 320 630 c 1
 319 630 313 630 304 629 c 1
 309 667 311 671 327 671 c 0
 329 671 331 671 332 671 c 2
 337 672 344 672 348 672 c 0
 375 672 444 669 471 669 c 2
 471 669 472 669 473 669 c 0
 589 688 628 694 645 694 c 0
 655 694 661 693 666 690 c 2
 696 673 l 1
 674 669 l 1
 676 662 676 663 676 661 c 0
 676 653 671 645 663 641 c 1
 657 631 632 619 615 619 c 0
 607 619 605 623 597 623 c 0
 589 623 577 621 557 618 c 1
 564 600 565 593 565 557 c 0
 565 539 564 528 562 507 c 0
 561 496 558 474 556 451 c 1
 564 451 579 451 579 451 c 2
 693 451 745 446 806 428 c 0
 822 423 829 416 829 404 c 2
 829 394 l 2
 829 376 816 365 795 365 c 0
 781 365 734 384 641 386 c 1
 541 386 l 1
 410 371 l 1
 329 356 308 344 272 344 c 0
 264 344 224 347 216 347 c 0
522 110 m 1
 505 109 328 97 326 97 c 0
 317 97 309 97 301 97 c 0
 287 97 281 95 267 95 c 0
 251 95 250 101 234 101 c 0
 217 101 213 102 191 110 c 1
 181 93 l 1
 165 148 170 128 170 135 c 0
 170 138 170 138 174 170 c 1
 190 151 l 1
 196 152 200 153 205 153 c 0
 209 153 210 153 219 151 c 0
 228 154 236 155 243 155 c 0
 253 155 261 154 267 151 c 1
 272 153 265 152 296 154 c 0
 324 154 398 166 524 174 c 1
 524 184 525 194 525 204 c 0
 525 236 512 294 512 326 c 2
 506 347 l 2
 506 354 518 363 528 363 c 0
 545 363 555 355 564 333 c 0
 576 302 586 232 586 179 c 1
 621 182 651 184 679 184 c 0
 737 184 745 183 770 171 c 0
 781 166 790 154 790 145 c 0
 790 125 773 107 753 107 c 0
 744 107 739 109 726 115 c 0
 725 116 724 117 723 118 c 0
 709 119 698 119 671 119 c 0
 649 119 636 118 586 115 c 1
 583 1 582 -37 582 -67 c 0
 582 -110 578 -126 565 -136 c 0
 559 -141 554 -143 548 -143 c 0
 532 -143 518 -126 518 -105 c 0
 518 -89 520 -84 520 -68 c 0
 520 -58 519 -9 519 1 c 0
 519 38 520 74 522 110 c 1
EndSplineSet
EndChar

StartChar: h'np
Encoding: 983339 983339 63
Width: 1000
GlyphClass: 1
Flags: HMW
LayerCount: 2
Fore
SplineSet
856 349 m 0
 856 332 822 317 785 317 c 0
 781 317 781 318 777 318 c 0
 765 328 764 329 760 336 c 0
 758 336 698 346 696 346 c 0
 676 349 665 350 642 350 c 0
 577 350 481 337 479 337 c 2
 425 334 l 1
 374 328 361 327 349 327 c 0
 332 327 314 328 297 330 c 0
 293 330 289 330 285 330 c 0
 255 330 227 337 199 351 c 1
 182 368 l 1
 181 372 l 2
 180 373 180 373 162 389 c 1
 191 397 191 397 197 397 c 0
 224 397 248 385 275 385 c 2
 275 385 283 385 284 385 c 0
 300 385 311 384 327 384 c 0
 341 384 492 402 513 406 c 1
 513 486 518 558 526 582 c 1
 526 583 l 1
 501 582 485 581 474 581 c 0
 401 581 312 622 312 656 c 0
 312 669 322 679 335 679 c 1
 336 678 l 1
 356 710 l 1
 356 669 l 1
 380 649 424 635 466 635 c 0
 490 635 627 648 651 648 c 0
 680 648 693 639 693 618 c 0
 693 595 675 584 638 584 c 2
 571 584 l 1
 571 583 572 583 572 582 c 0
 577 564 578 554 578 518 c 0
 578 492 576 442 576 416 c 0
 576 415 576 414 576 413 c 1
 577 413 l 2
 595 413 623 414 641 414 c 0
 699 414 716 407 794 399 c 0
 824 397 837 392 850 380 c 2
 868 364 l 1
 852 361 l 1
 855 356 856 352 856 349 c 0
529 409 m 1
 522 407 519 403 518 398 c 1
 522 390 l 1
 535 393 l 1
 533 408 l 1
 529 409 l 1
507 116 m 1
 497 113 494 112 485 112 c 0
 483 112 481 112 478 112 c 0
 464 112 444 109 407 103 c 1
 405 83 403 67 399 -9 c 0
 395 -80 389 -93 363 -93 c 0
 353 -93 343 -84 341 -72 c 0
 336 -67 335 -57 335 -21 c 0
 335 1 339 58 343 95 c 1
 342 95 339 95 338 95 c 0
 326 95 315 96 303 96 c 0
 281 96 265 90 243 90 c 0
 201 90 179 96 163 111 c 1
 155 107 l 1
 146 130 146 130 143 153 c 1
 157 154 156 154 157 154 c 0
 158 154 159 154 160 154 c 0
 164 155 168 156 172 156 c 0
 199 156 210 148 237 148 c 0
 269 148 280 157 312 157 c 0
 315 157 327 157 340 156 c 2
 342 156 345 157 347 157 c 1
 347 161 351 230 351 234 c 2
 351 261 l 2
 351 270 354 279 354 288 c 0
 355 299 359 304 377 311 c 1
 392 311 l 1
 393 308 394 304 395 301 c 1
 409 287 413 273 413 238 c 0
 413 224 412 200 411 167 c 1
 470 177 469 178 481 178 c 0
 489 178 504 171 512 171 c 1
 514 203 516 226 516 232 c 0
 518 249 521 257 521 262 c 0
 523 271 523 272 531 282 c 1
 564 282 l 1
 567 240 576 260 576 202 c 0
 576 154 562 7 560 -26 c 1
 573 -23 597 -19 616 -15 c 0
 679 0 676 26 699 26 c 0
 703 26 704 26 706 25 c 1
 708 159 710 235 714 260 c 0
 718 285 723 290 723 303 c 0
 723 305 723 305 724 318 c 1
 770 318 l 1
 765 300 765 300 765 299 c 0
 765 298 765 297 766 296 c 1
 772 282 774 267 774 220 c 0
 774 104 768 -99 764 -113 c 0
 764 -124 750 -136 737 -136 c 0
 712 -136 706 -120 706 -51 c 2
 706 -51 706 -46 706 -37 c 1
 653 -90 581 -74 561 -94 c 0
 554 -101 546 -104 536 -104 c 0
 511 -104 495 -84 495 -55 c 0
 495 6 505 76 507 116 c 1
EndSplineSet
EndChar

StartChar: hri
Encoding: 983340 983340 64
Width: 1000
GlyphClass: 1
Flags: HMW
LayerCount: 2
Fore
SplineSet
300 650 m 0
 300 662 310 669 326 669 c 1
 347 671 l 1
 344 664 l 1
 357 661 383 659 409 659 c 0
 453 659 600 689 644 689 c 0
 667 689 684 677 684 660 c 1
 684 642 644 618 613 618 c 0
 609 618 606 621 602 621 c 0
 591 621 580 620 569 618 c 1
 570 616 570 614 570 608 c 0
 570 564 558 516 552 463 c 1
 589 463 754 469 791 469 c 0
 843 469 871 455 871 430 c 0
 871 418 864 406 852 396 c 0
 851 395 850 395 821 374 c 0
 817 373 815 373 809 373 c 0
 792 373 780 385 780 402 c 2
 780 403 l 1
 776 403 770 403 765 403 c 0
 753 403 753 403 599 399 c 0
 540 397 533 396 475 382 c 0
 348 352 283 340 249 340 c 0
 200 340 148 359 137 381 c 0
 133 383 131 387 131 392 c 0
 131 401 137 408 150 414 c 2
 183 430 l 1
 172 409 l 1
 245 395 226 398 239 398 c 0
 264 398 264 398 487 452 c 1
 493 516 517 610 517 612 c 1
 487 612 447 600 417 600 c 0
 352 600 300 622 300 650 c 0
609 302 m 1
 589 298 575 297 559 297 c 0
 515 297 490 307 469 333 c 1
 484 364 l 1
 494 361 495 361 503 358 c 1
 503 357 506 357 511 357 c 0
 570 357 579 358 635 374 c 0
 673 384 679 386 687 386 c 0
 704 386 723 366 723 348 c 0
 723 340 720 334 702 314 c 0
 682 290 662 266 645 244 c 1
 663 244 705 252 723 252 c 0
 728 252 733 252 744 250 c 0
 752 253 761 254 770 254 c 0
 810 254 842 222 842 182 c 0
 842 138 817 95 752 29 c 0
 662 -63 601 -111 539 -140 c 0
 523 -147 513 -150 504 -150 c 0
 491 -150 483 -144 483 -134 c 0
 483 -97 560 -70 655 22 c 0
 737 101 778 155 778 182 c 0
 778 188 777 189 771 189 c 0
 763 189 754 187 746 187 c 0
 740 187 730 188 724 188 c 0
 693 188 672 181 641 181 c 0
 606 181 589 186 576 202 c 0
 570 209 566 218 566 227 c 0
 566 243 576 260 609 302 c 1
423 342 m 0
 432 342 436 340 455 327 c 1
 446 316 446 316 445 315 c 0
 443 313 443 306 433 287 c 0
 431 285 386 194 301 76 c 0
 288 58 267 25 257 6 c 0
 234 -37 220 -52 202 -52 c 0
 186 -51 177 -45 172 -34 c 0
 168 -31 162 -29 158 -26 c 1
 162 -23 166 -21 169 -19 c 1
 169 -19 169 -18 169 -17 c 0
 169 1 177 16 192 22 c 1
 224 70 225 71 258 115 c 0
 301 171 313 188 339 231 c 0
 365 273 365 273 397 319 c 1
 408 330 l 1
 409 337 415 342 423 342 c 0
EndSplineSet
EndChar

StartChar: vno
Encoding: 983341 983341 65
Width: 1000
GlyphClass: 1
Flags: HMW
LayerCount: 2
Fore
SplineSet
441 -139 m 0
 429 -139 420 -132 420 -121 c 0
 420 -108 426 -103 489 -64 c 0
 547 -28 551 -25 597 19 c 0
 690 107 666 85 682 99 c 0
 776 185 779 204 780 205 c 1
 780 205 780 205 772 217 c 1
 787 225 784 224 801 231 c 1
 819 231 l 1
 819 224 l 1
 828 218 834 206 834 193 c 0
 834 174 815 142 784 109 c 0
 772 97 760 85 748 73 c 0
 741 67 741 67 639 -27 c 0
 588 -75 556 -98 524 -113 c 0
 510 -113 455 -139 441 -139 c 0
144 172 m 1
 166 201 166 201 174 201 c 0
 178 201 180 200 182 199 c 0
 226 199 369 218 371 218 c 1
 375 236 382 304 384 346 c 0
 384 352 385 367 386 383 c 2
 386 387 385 388 385 392 c 0
 385 403 398 414 412 414 c 0
 419 414 423 410 426 402 c 0
 429 394 438 383 442 361 c 0
 444 351 445 340 445 330 c 0
 445 309 442 269 438 229 c 1
 459 232 480 234 509 234 c 0
 550 234 566 224 566 199 c 0
 566 176 542 162 502 162 c 0
 486 162 481 166 465 166 c 0
 458 166 453 165 431 162 c 1
 428 132 427 102 427 50 c 0
 427 8 431 -37 431 -79 c 0
 431 -96 427 -106 419 -110 c 0
 413 -118 407 -121 399 -121 c 0
 387 -121 376 -113 371 -100 c 0
 365 -85 362 -30 362 43 c 0
 362 79 363 110 366 154 c 1
 316 149 271 146 261 146 c 0
 256 146 237 146 216 147 c 2
 214 147 204 147 204 147 c 2
 184 147 171 152 160 165 c 1
 160 166 153 168 144 172 c 1
723 594 m 1
 722 590 l 1
 722 587 l 1
 731 581 l 1
 734 581 l 1
 738 595 l 1
 723 594 l 1
332 561 m 0
 397 561 593 595 659 618 c 0
 661 618 663 617 665 617 c 0
 673 617 683 619 690 621 c 1
 699 625 705 626 713 626 c 0
 722 626 730 622 733 615 c 0
 736 610 740 610 745 603 c 0
 748 600 749 594 749 588 c 0
 749 583 749 581 748 578 c 0
 748 561 721 364 720 354 c 1
 782 416 770 427 804 475 c 0
 815 490 822 495 832 495 c 0
 843 495 849 486 849 469 c 0
 849 429 821 372 780 327 c 1
 780 327 737 284 736 283 c 0
 728 277 717 268 712 265 c 1
 715 264 l 1
 683 253 683 253 681 253 c 0
 664 253 652 274 652 304 c 0
 652 396 671 465 680 555 c 1
 658 551 637 543 578 532 c 0
 435 506 413 503 361 503 c 0
 297 503 239 518 216 541 c 1
 199 539 l 1
 205 566 205 566 216 591 c 1
 229 580 229 580 229 580 c 1
 266 568 302 561 332 561 c 0
EndSplineSet
EndChar

StartChar: rv
Encoding: 983342 983342 66
Width: 1000
GlyphClass: 1
Flags: HMW
LayerCount: 2
Fore
SplineSet
561 -104 m 1
 564 -105 l 1
 567 -104 l 1
 574 -93 l 1
 570 -86 l 1
 561 -104 l 1
380 173 m 0
 347 161 317 163 271 156 c 1
 268 156 l 1
 261 157 238 160 234 160 c 0
 232 160 223 160 214 159 c 2
 205 159 198 161 193 164 c 0
 192 164 192 164 191 164 c 0
 182 164 174 170 171 178 c 0
 170 178 170 179 156 192 c 1
 171 199 l 1
 184 211 188 213 202 214 c 0
 219 215 232 219 247 219 c 0
 249 219 250 219 252 219 c 0
 308 219 362 237 414 239 c 0
 442 239 477 250 558 285 c 0
 563 287 603 302 609 304 c 2
 611 304 l 1
 633 303 649 290 649 273 c 0
 649 250 639 153 631 97 c 0
 627 63 616 -15 615 -19 c 1
 698 58 740 141 801 162 c 0
 806 164 811 165 816 165 c 0
 827 165 834 158 834 147 c 0
 834 134 829 125 802 96 c 0
 789 82 730 12 698 -24 c 0
 644 -81 605 -113 587 -113 c 0
 553 -112 544 -103 544 -75 c 0
 544 -52 545 -39 548 -25 c 0
 552 -5 555 13 559 48 c 2
 574 170 l 2
 577 197 579 213 580 224 c 1
 520 195 440 173 396 173 c 0
 391 173 385 173 380 173 c 0
280 277 m 0
 249 277 230 287 230 304 c 0
 230 356 353 308 477 417 c 0
 518 452 520 454 540 469 c 0
 587 505 616 534 627 555 c 1
 619 559 609 561 599 561 c 0
 547 561 506 545 454 545 c 0
 418 545 400 557 400 582 c 0
 400 594 407 605 419 614 c 0
 430 622 435 627 459 654 c 1
 394 647 394 646 387 646 c 0
 347 646 314 658 291 681 c 1
 271 683 l 1
 306 731 l 1
 315 712 l 1
 354 703 363 701 381 701 c 0
 406 701 554 733 579 733 c 0
 587 733 594 730 598 724 c 1
 608 721 615 712 615 702 c 0
 615 685 612 681 586 666 c 0
 530 634 520 627 504 609 c 1
 553 614 576 623 601 623 c 0
 620 623 639 618 658 607 c 0
 679 605 691 590 691 565 c 0
 691 524 659 480 587 425 c 0
 567 410 572 414 520 371 c 0
 477 335 457 322 421 308 c 0
 372 288 320 277 280 277 c 0
EndSplineSet
EndChar

StartChar: hur
Encoding: 983343 983343 67
Width: 1000
GlyphClass: 1
Flags: HMW
LayerCount: 2
Fore
SplineSet
757 360 m 0
 757 362 757 364 757 365 c 0
 757 372 752 384 733 417 c 0
 733 425 668 531 650 553 c 0
 606 606 606 606 599 613 c 1
 583 603 l 1
 587 640 587 640 591 650 c 2
 597 663 l 1
 693 604 740 548 820 394 c 0
 835 370 835 370 835 369 c 0
 836 365 837 362 837 359 c 0
 837 358 837 358 835 325 c 1
 836 323 l 1
 835 322 l 1
 834 318 l 1
 832 322 l 1
 814 321 814 321 810 321 c 0
 791 321 779 325 770 334 c 0
 769 335 769 337 767 338 c 0
 761 342 757 350 757 360 c 0
668 322 m 0
 668 290 640 295 602 251 c 1
 668 235 643 241 674 235 c 0
 704 229 730 198 730 166 c 0
 730 114 654 29 528 -61 c 0
 452 -113 364 -148 310 -148 c 0
 274 -148 260 -142 260 -125 c 0
 260 -109 272 -102 328 -85 c 0
 442 -49 525 4 619 102 c 0
 643 126 666 158 666 168 c 0
 664 171 663 172 661 175 c 1
 653 176 638 178 626 181 c 0
 625 181 653 178 557 194 c 0
 533 198 521 212 521 234 c 0
 521 240 523 247 526 253 c 1
 463 234 429 227 393 227 c 0
 340 227 291 241 280 260 c 0
 280 261 279 260 279 261 c 0
 277 263 276 268 276 272 c 0
 276 279 279 282 300 301 c 1
 268 293 244 289 223 289 c 0
 194 289 163 304 163 318 c 0
 164 334 172 343 186 343 c 0
 244 349 281 358 326 375 c 0
 337 379 358 387 381 395 c 1
 380 398 380 401 380 407 c 0
 380 435 394 512 409 562 c 1
 354 551 314 546 281 546 c 0
 246 546 233 549 224 561 c 0
 222 562 222 562 205 572 c 1
 231 595 231 595 239 595 c 0
 242 595 245 594 247 592 c 0
 311 597 455 626 458 635 c 0
 467 651 483 659 508 659 c 0
 531 659 547 643 547 619 c 0
 547 618 547 619 547 614 c 0
 529 592 519 587 469 576 c 1
 455 510 454 499 444 412 c 1
 465 417 487 420 513 422 c 0
 515 429 524 435 533 435 c 0
 537 435 549 430 553 430 c 0
 560 426 567 414 568 405 c 0
 573 399 575 393 575 387 c 0
 575 372 559 358 542 358 c 0
 535 358 528 359 521 359 c 0
 488 359 424 342 303 302 c 1
 307 295 310 290 311 290 c 1
 337 290 369 285 395 285 c 2
 396 285 l 2
 444 285 588 354 636 354 c 0
 656 354 668 342 668 322 c 0
EndSplineSet
EndChar

StartChar: h'rm
Encoding: 983344 983344 68
Width: 1000
GlyphClass: 1
Flags: HMW
LayerCount: 2
Fore
SplineSet
306 644 m 1
 308 678 311 686 327 686 c 0
 334 687 346 690 364 690 c 0
 382 690 451 683 469 683 c 0
 529 683 600 703 660 703 c 0
 677 703 690 689 690 671 c 0
 690 662 688 664 686 654 c 0
 684 641 680 639 637 635 c 0
 636 635 589 629 572 627 c 1
 577 619 578 609 578 589 c 0
 578 577 577 564 573 531 c 2
 569 499 565 466 563 450 c 1
 574 450 585 450 596 450 c 0
 679 450 747 441 845 418 c 0
 889 407 905 396 905 377 c 0
 905 370 902 363 895 355 c 1
 906 349 l 1
 878 342 871 340 867 340 c 0
 866 340 866 340 865 340 c 0
 855 340 847 344 841 350 c 1
 726 377 678 384 595 384 c 0
 474 384 365 366 244 366 c 0
 161 366 123 377 103 406 c 1
 81 408 l 1
 99 428 101 430 112 439 c 2
 125 449 l 1
 130 436 l 1
 143 434 164 426 192 426 c 0
 242 426 420 438 499 446 c 1
 499 448 525 616 525 620 c 2
 525 620 525 621 525 623 c 1
 516 622 510 622 495 622 c 0
 447 622 343 636 320 645 c 1
 306 644 l 1
798 -98 m 1
 793 -76 l 1
 790 -77 l 1
 785 -86 l 1
 797 -98 l 1
 798 -98 l 1
403 -106 m 0
 387 -106 378 -99 378 -86 c 0
 378 -72 393 -57 420 -41 c 0
 447 -25 468 -4 531 35 c 1
 556 56 579 80 597 109 c 1
 544 152 489 158 488 159 c 1
 482 106 427 44 312 -42 c 0
 276 -70 242 -86 222 -86 c 0
 209 -86 200 -77 200 -66 c 0
 200 -35 276 1 370 89 c 0
 400 118 414 134 422 152 c 1
 403 161 397 164 373 174 c 0
 335 189 327 197 327 218 c 0
 327 230 332 242 341 253 c 1
 314 249 287 247 274 247 c 0
 226 247 174 265 162 286 c 1
 162 286 162 286 144 298 c 1
 180 317 178 316 183 316 c 0
 185 316 186 316 189 314 c 0
 190 314 190 314 191 314 c 0
 211 314 243 305 263 305 c 0
 299 305 402 333 438 333 c 0
 454 333 464 327 464 316 c 0
 464 314 462 311 462 309 c 2
 462 308 l 2
 462 306 463 304 463 302 c 0
 463 299 463 298 462 296 c 1
 475 295 l 1
 406 228 l 1
 411 228 467 196 468 196 c 0
 476 201 486 204 498 204 c 0
 536 204 584 188 626 161 c 1
 659 222 664 230 684 263 c 1
 597 265 552 280 519 319 c 0
 517 324 509 327 509 337 c 0
 509 349 520 361 531 361 c 0
 535 361 539 359 542 355 c 0
 559 349 581 332 618 326 c 0
 638 324 635 324 645 324 c 0
 680 324 701 331 736 331 c 0
 741 331 741 330 803 316 c 1
 769 310 l 1
 774 306 776 302 776 296 c 0
 776 290 774 286 768 280 c 0
 739 225 734 224 677 118 c 1
 743 50 801 -23 815 -57 c 1
 822 -75 l 1
 816 -75 l 1
 816 -76 816 -77 816 -78 c 0
 816 -93 804 -103 785 -103 c 0
 770 -103 761 -97 753 -81 c 0
 737 -49 699 1 643 62 c 1
 620 29 593 3 557 -22 c 0
 540 -34 513 -53 500 -62 c 0
 457 -95 432 -106 403 -106 c 0
EndSplineSet
EndChar

StartChar: pt
Encoding: 983345 983345 69
Width: 1000
GlyphClass: 1
Flags: HMW
LayerCount: 2
Fore
SplineSet
616 420 m 1
 610 411 l 1
 616 404 l 1
 616 409 616 415 616 420 c 1
320 349 m 0
 320 429 365 565 365 645 c 0
 365 679 362 666 361 691 c 0
 361 692 361 694 361 696 c 0
 361 705 362 705 382 718 c 1
 404 718 l 1
 402 710 l 1
 421 698 427 679 427 635 c 0
 427 571 421 529 395 397 c 1
 412 404 429 416 467 429 c 0
 506 442 563 455 585 455 c 0
 600 455 612 453 617 450 c 1
 619 553 626 669 626 671 c 0
 626 703 628 712 639 725 c 0
 639 726 638 727 636 742 c 1
 652 743 653 742 655 742 c 0
 659 742 662 741 666 741 c 1
 674 740 680 735 680 727 c 0
 680 725 679 723 678 721 c 0
 685 694 687 674 687 623 c 0
 687 573 683 475 683 425 c 0
 683 424 683 389 683 389 c 2
 683 379 683 383 681 332 c 1
 676 332 672 332 667 332 c 0
 664 327 657 324 649 324 c 0
 641 324 635 327 628 334 c 0
 619 342 616 351 616 377 c 2
 616 391 l 1
 608 389 604 389 599 389 c 0
 558 389 497 375 464 357 c 0
 453 346 377 320 356 320 c 0
 345 320 334 325 327 333 c 2
 320 341 l 1
 322 343 l 1
 320 346 320 347 320 349 c 0
604 405 m 1
 610 408 l 1
 606 415 l 1
 605 415 603 415 602 415 c 1
 604 405 l 1
508 331 m 0
 508 340 516 348 527 348 c 0
 543 348 554 334 554 314 c 0
 554 277 537 225 505 164 c 1
 539 151 591 121 639 86 c 2
 688 50 l 1
 753 -8 753 -8 763 -24 c 1
 776 -36 l 1
 801 -54 806 -60 806 -69 c 0
 806 -75 805 -74 805 -80 c 0
 804 -95 793 -105 779 -105 c 0
 777 -105 774 -104 772 -104 c 0
 769 -105 768 -106 766 -106 c 0
 755 -106 729 -87 714 -67 c 0
 695 -42 522 101 512 101 c 0
 501 110 492 118 484 126 c 1
 454 75 420 36 337 -36 c 0
 333 -40 271 -96 268 -99 c 0
 246 -118 225 -129 212 -129 c 0
 201 -129 193 -122 193 -111 c 0
 193 -53 346 38 409 130 c 0
 499 264 499 311 508 329 c 0
 508 330 508 330 508 331 c 0
EndSplineSet
EndChar

StartChar: pt`v
Encoding: 983346 983346 70
Width: 1000
GlyphClass: 1
Flags: HMW
LayerCount: 2
Fore
SplineSet
736 39 m 0
 709 39 691 66 691 108 c 0
 691 109 691 174 691 189 c 0
 691 205 693 239 701 330 c 1
 657 299 601 279 561 279 c 0
 520 279 497 290 497 310 c 0
 497 311 498 312 498 313 c 2
 477 323 l 1
 512 336 514 337 526 337 c 0
 532 337 530 336 536 336 c 0
 539 336 544 337 547 337 c 1
 540 342 536 349 536 359 c 0
 536 361 536 360 537 371 c 1
 470 367 305 296 260 296 c 0
 238 296 222 311 222 332 c 0
 222 381 247 507 247 556 c 2
 247 588 l 2
 247 606 246 619 244 643 c 0
 244 646 243 648 243 651 c 0
 243 654 241 657 241 660 c 0
 241 669 245 672 262 680 c 2
 274 685 l 1
 280 671 280 671 283 665 c 0
 299 639 303 614 303 548 c 0
 303 509 299 456 289 367 c 1
 379 391 475 435 524 435 c 0
 532 435 536 435 540 434 c 1
 540 436 555 625 559 651 c 0
 560 656 561 658 561 659 c 2
 560 662 560 664 560 665 c 0
 560 677 572 688 586 688 c 0
 593 688 593 688 606 671 c 0
 613 664 617 648 617 630 c 0
 617 605 617 605 602 380 c 0
 600 356 600 354 597 348 c 1
 667 372 708 426 733 426 c 0
 755 426 769 407 769 378 c 0
 769 333 756 233 756 188 c 0
 756 158 756 145 757 130 c 1
 814 182 845 237 870 237 c 0
 885 237 899 223 899 208 c 0
 899 197 893 186 879 168 c 0
 814 87 761 39 736 39 c 0
636 -31 m 0
 636 -49 622 -65 606 -65 c 0
 564 -65 569 -15 478 52 c 0
 404 101 404 101 379 107 c 0
 376 105 374 105 372 105 c 0
 371 105 371 105 370 105 c 0
 310 19 213 -49 149 -49 c 0
 115 -49 102 -43 102 -26 c 0
 102 13 188 -7 283 99 c 0
 313 131 376 230 408 293 c 0
 408 294 415 306 424 324 c 1
 423 325 424 332 425 342 c 1
 466 342 l 1
 467 336 466 335 467 326 c 0
 477 291 472 313 472 304 c 0
 472 274 449 224 401 151 c 1
 403 151 405 152 407 152 c 0
 422 152 432 148 492 115 c 0
 551 85 636 -1 636 -31 c 0
EndSplineSet
EndChar

StartChar: |pc
Encoding: 983347 983347 71
Width: 1000
GlyphClass: 1
Flags: HMW
LayerCount: 2
Fore
SplineSet
767 667 m 0
 767 622 755 495 755 450 c 0
 755 434 755 425 757 400 c 1
 750 398 l 1
 749 385 741 376 729 376 c 0
 725 376 724 376 722 377 c 1
 719 371 712 364 705 361 c 1
 708 359 710 359 712 358 c 1
 704 350 l 1
 709 341 711 330 711 306 c 0
 711 244 705 198 705 136 c 2
 705 125 l 2
 705 91 701 67 701 33 c 0
 701 7 704 4 704 -22 c 0
 704 -27 704 -47 704 -47 c 2
 704 -61 705 -71 705 -85 c 0
 705 -102 703 -109 693 -120 c 1
 686 -121 679 -121 677 -121 c 2
 665 -121 662 -121 657 -120 c 0
 656 -120 654 -120 653 -120 c 0
 637 -120 588 -78 526 -11 c 0
 516 0 408 115 407 116 c 0
 361 164 351 178 351 196 c 0
 351 208 359 216 370 216 c 0
 387 216 408 202 447 164 c 0
 485 127 544 67 578 30 c 0
 602 4 621 -15 638 -31 c 1
 638 -30 638 -28 638 -27 c 0
 638 -2 635 9 635 34 c 0
 635 76 639 115 639 157 c 0
 641 260 647 329 654 343 c 0
 654 345 653 347 653 349 c 0
 653 355 655 360 660 364 c 1
 659 364 659 364 658 364 c 0
 640 364 604 355 554 346 c 1
 483 323 458 307 449 307 c 0
 448 307 447 307 446 307 c 0
 444 305 441 305 435 305 c 0
 425 305 430 307 420 307 c 0
 408 307 403 316 403 335 c 0
 403 370 422 461 429 622 c 0
 429 633 429 638 429 644 c 0
 429 672 426 697 421 706 c 2
 415 717 l 1
 446 732 l 1
 456 728 458 726 460 720 c 1
 480 704 493 670 493 632 c 0
 493 567 485 467 473 385 c 1
 534 408 621 429 656 429 c 0
 665 429 674 428 689 425 c 1
 688 432 689 439 689 449 c 0
 689 453 689 456 689 459 c 0
 689 477 691 500 699 601 c 0
 705 666 706 673 720 703 c 0
 728 717 732 720 742 720 c 0
 757 720 766 712 766 697 c 2
 766 696 l 2
 766 684 767 679 767 667 c 0
703 390 m 1
 705 401 l 1
 696 395 l 1
 698 392 l 1
 703 390 l 1
244 481 m 2
 244 487 l 2
 244 499 244 502 246 507 c 0
 245 508 245 510 245 514 c 0
 245 521 248 526 258 542 c 1
 298 535 307 518 307 452 c 0
 307 404 298 298 298 250 c 0
 298 220 298 207 299 191 c 0
 308 186 313 173 313 150 c 0
 313 149 302 79 301 76 c 0
 299 69 296 63 291 58 c 2
 252 23 l 1
 265 58 l 1
 260 60 258 60 256 62 c 1
 243 22 l 1
 236 100 235 100 235 117 c 0
 235 121 235 126 235 131 c 0
 235 171 232 199 232 239 c 0
 232 265 244 455 244 481 c 2
679 347 m 1
 679 345 l 1
 691 333 l 1
 700 337 l 1
 701 339 l 1
 689 351 l 1
 679 347 l 1
EndSplineSet
EndChar

StartChar: p'sk
Encoding: 983348 983348 72
Width: 1000
GlyphClass: 1
Flags: HMW
LayerCount: 2
Fore
SplineSet
259 384 m 1
 277 473 289 581 289 648 c 0
 289 668 287 669 287 689 c 1
 273 689 l 1
 288 708 l 1
 288 718 299 728 311 728 c 1
 317 728 324 726 328 722 c 0
 332 718 336 714 340 710 c 0
 350 688 354 667 354 630 c 0
 354 579 343 482 329 407 c 1
 381 411 453 450 610 450 c 0
 626 450 629 450 633 449 c 1
 633 511 638 537 641 624 c 0
 645 719 650 743 669 744 c 1
 672 751 l 1
 699 749 711 742 711 728 c 0
 713 725 714 721 714 718 c 0
 714 660 700 492 700 434 c 0
 700 432 700 420 701 407 c 1
 701 365 696 354 679 353 c 0
 674 353 674 351 669 351 c 0
 659 351 650 357 642 370 c 1
 638 372 636 375 635 379 c 1
 629 379 622 381 616 384 c 0
 612 384 606 384 606 384 c 2
 463 384 420 349 318 339 c 2
 304 337 292 336 290 336 c 0
 281 336 274 338 263 344 c 1
 262 343 l 1
 262 345 l 1
 236 358 l 1
 256 363 l 1
 256 365 255 367 255 369 c 0
 255 370 256 370 257 384 c 1
 259 384 l 1
490 324 m 0
 521 324 543 295 543 253 c 0
 543 222 525 178 499 145 c 1
 449 58 387 -23 321 -87 c 0
 274 -132 240 -155 219 -155 c 0
 200 -155 186 -144 186 -129 c 0
 186 -94 262 -97 400 112 c 0
 456 196 477 235 477 256 c 1
 431 245 242 214 217 214 c 0
 174 214 142 227 113 256 c 1
 102 264 l 1
 116 282 116 282 132 299 c 1
 140 288 l 1
 155 287 186 278 210 278 c 0
 234 278 376 301 452 318 c 0
 468 321 477 324 490 324 c 0
644 11 m 2
 702 11 758 18 816 18 c 0
 855 18 871 16 880 8 c 2
 891 -1 l 1
 887 -5 l 1
 890 -8 892 -14 892 -19 c 0
 892 -26 888 -32 881 -36 c 0
 878 -38 877 -38 874 -41 c 0
 868 -47 863 -49 854 -49 c 0
 824 -49 810 -43 780 -43 c 0
 774 -43 728 -44 722 -44 c 0
 721 -44 713 -44 713 -44 c 2
 698 -44 683 -46 663 -51 c 0
 659 -51 658 -50 654 -50 c 0
 628 -50 614 -56 588 -56 c 0
 580 -56 576 -56 559 -54 c 0
 537 -60 518 -63 501 -63 c 0
 470 -63 449 -56 443 -44 c 0
 441 -44 441 -44 440 -43 c 1
 441 -43 441 -42 442 -42 c 1
 441 -39 441 -39 441 -36 c 0
 441 -34 441 -34 438 -25 c 1
 448 -15 423 -22 493 38 c 0
 565 100 605 164 634 264 c 1
 629 272 628 276 628 281 c 0
 628 287 630 292 633 296 c 1
 592 311 l 1
 659 313 l 2
 660 313 660 313 660 313 c 2
 686 313 703 295 703 268 c 0
 703 215 626 79 557 10 c 1
 558 10 l 2
 568 10 579 9 589 9 c 0
 605 9 619 11 635 11 c 2
 644 11 l 2
EndSplineSet
EndChar

StartChar: p'ske
Encoding: 983349 983349 73
Width: 1000
GlyphClass: 1
Flags: HMW
LayerCount: 2
Fore
SplineSet
180 143 m 0
 180 154 150 216 150 227 c 0
 150 239 159 249 171 249 c 0
 196 249 210 230 235 164 c 0
 259 93 275 65 295 -1 c 0
 301 -21 306 -17 310 -34 c 0
 312 -41 313 -51 313 -63 c 0
 313 -84 310 -87 283 -94 c 0
 279 -98 277 -99 272 -99 c 1
 261 -99 251 -88 247 -73 c 0
 247 -71 246 -70 246 -68 c 0
 238 -25 210 67 180 143 c 0
367 190 m 0
 341 190 308 207 308 221 c 0
 308 240 327 254 353 254 c 0
 363 254 369 253 379 253 c 0
 407 253 489 271 521 285 c 0
 547 294 554 296 569 296 c 0
 596 296 615 278 615 252 c 0
 615 210 502 19 430 -61 c 0
 396 -99 381 -110 367 -110 c 0
 354 -110 342 -98 342 -86 c 0
 342 -63 374 -45 436 44 c 0
 471 93 514 173 533 223 c 1
 518 217 510 220 483 213 c 0
 459 213 391 190 367 190 c 0
529 -58 m 1
 512 -47 l 1
 505 -57 l 1
 506 -60 l 1
 525 -66 l 1
 529 -58 l 1
701 272 m 1
 711 283 l 1
 701 295 l 1
 691 283 l 1
 701 272 l 1
813 -85 m 0
 792 -85 804 -80 783 -80 c 0
 729 -80 631 -84 577 -84 c 0
 537 -84 516 -83 495 -82 c 0
 487 -82 479 -75 476 -66 c 0
 471 -62 469 -57 469 -50 c 0
 469 -41 470 -37 483 -17 c 0
 489 -8 490 -6 503 18 c 0
 524 57 545 70 589 125 c 0
 654 206 684 297 697 307 c 0
 699 309 701 310 705 310 c 0
 708 310 709 310 710 309 c 0
 729 309 740 299 740 283 c 0
 740 260 707 184 675 134 c 0
 627 59 583 29 556 -21 c 1
 560 -21 565 -21 573 -21 c 0
 615 -21 741 -14 783 -14 c 0
 791 -14 804 -14 816 -15 c 2
 833 -15 851 -35 851 -54 c 0
 851 -71 834 -85 813 -85 c 0
285 343 m 1
 302 350 l 1
 302 352 l 1
 284 362 l 1
 279 353 l 1
 285 343 l 1
317 401 m 1
 357 414 520 435 586 435 c 0
 590 435 608 435 630 434 c 2
 640 434 642 434 649 434 c 1
 651 485 656 522 656 599 c 0
 656 641 655 664 653 677 c 2
 650 695 l 1
 654 694 l 1
 655 708 668 722 680 722 c 0
 709 722 723 701 723 656 c 0
 723 618 714 459 714 421 c 0
 714 413 714 396 715 378 c 2
 715 368 719 363 719 353 c 0
 719 337 702 320 686 320 c 0
 677 320 668 324 661 332 c 1
 650 331 l 1
 649 350 649 346 649 350 c 2
 649 356 l 2
 649 361 649 363 648 367 c 1
 640 368 642 368 634 368 c 2
 607 370 571 371 548 371 c 0
 490 371 419 361 367 346 c 0
 358 343 339 337 322 332 c 2
 312 329 305 328 297 328 c 0
 291 328 284 326 278 326 c 0
 259 326 247 335 244 349 c 1
 229 354 l 1
 242 366 l 1
 240 376 l 1
 244 374 l 1
 264 446 275 535 275 626 c 0
 275 632 275 652 274 674 c 2
 274 698 283 711 300 711 c 0
 321 711 340 686 340 658 c 0
 340 616 323 429 317 401 c 1
EndSplineSet
EndChar

StartChar: p'ska
Encoding: 983350 983350 74
Width: 1000
GlyphClass: 1
Flags: HMW
LayerCount: 2
Fore
SplineSet
566 119 m 1
 578 119 736 137 748 137 c 0
 762 137 769 131 794 128 c 0
 796 129 803 130 805 130 c 0
 825 130 841 114 841 96 c 0
 841 68 824 57 780 57 c 0
 757 57 763 68 740 68 c 0
 728 68 610 55 598 55 c 0
 573 52 574 52 565 52 c 2
 564 52 l 2
 547 52 537 41 520 41 c 0
 507 41 496 47 489 56 c 0
 480 60 475 71 475 86 c 0
 475 98 480 110 490 120 c 0
 497 128 501 135 513 164 c 0
 513 165 549 247 553 257 c 0
 574 310 571 327 583 355 c 0
 583 356 583 356 583 357 c 0
 583 375 594 386 611 386 c 0
 620 386 628 383 636 378 c 1
 634 383 634 388 634 401 c 2
 634 409 l 1
 610 409 591 413 567 413 c 0
 515 413 419 377 367 377 c 0
 346 377 331 392 331 412 c 0
 331 424 335 436 340 473 c 0
 340 499 350 569 350 595 c 0
 350 647 328 665 328 717 c 0
 328 738 338 753 353 753 c 0
 364 753 381 740 391 726 c 0
 403 708 411 667 411 620 c 0
 411 587 408 553 398 449 c 1
 424 453 476 464 536 471 c 0
 567 475 594 476 627 476 c 0
 629 476 630 476 632 476 c 0
 639 476 642 476 644 475 c 1
 649 512 651 541 651 568 c 0
 651 594 648 662 648 688 c 0
 648 698 649 698 650 718 c 1
 656 718 l 1
 660 731 670 739 683 739 c 0
 704 739 715 722 715 689 c 0
 715 660 707 482 702 385 c 2
 702 384 l 2
 702 371 684 357 668 357 c 0
 663 357 648 363 644 367 c 1
 647 358 648 352 648 345 c 0
 648 336 625 260 614 233 c 0
 608 217 585 167 585 166 c 0
 582 158 581 158 566 119 c 1
467 314 m 1
 417 308 402 301 339 288 c 0
 324 288 266 278 251 278 c 0
 198 278 159 297 159 324 c 0
 159 342 171 357 186 357 c 0
 188 357 187 357 194 355 c 1
 195 359 l 1
 230 345 245 342 271 342 c 0
 272 342 357 355 372 357 c 0
 389 362 389 362 472 383 c 0
 474 383 477 384 479 384 c 0
 489 384 495 382 514 370 c 0
 530 361 536 345 536 317 c 0
 536 277 525 240 499 195 c 0
 419 48 411 37 385 37 c 0
 372 37 363 47 363 62 c 0
 363 72 366 81 379 102 c 0
 402 143 415 167 456 249 c 0
 463 271 467 293 467 314 c 1
711 -30 m 0
 744 -32 763 -47 763 -71 c 0
 763 -85 754 -96 741 -96 c 2
 741 -96 738 -96 737 -96 c 0
 731 -96 727 -97 721 -97 c 0
 652 -97 623 -87 554 -87 c 0
 551 -87 477 -88 474 -88 c 0
 431 -88 383 -86 318 -82 c 0
 267 -79 247 -74 232 -57 c 1
 204 -55 l 1
 246 -14 234 -27 246 -13 c 1
 256 -26 256 -26 256 -26 c 1
 261 -26 267 -25 272 -25 c 0
 276 -25 280 -25 285 -25 c 0
 291 -25 330 -24 336 -24 c 0
 350 -24 376 -24 400 -24 c 0
 456 -24 503 -22 559 -22 c 0
 601 -22 669 -30 711 -30 c 0
EndSplineSet
EndChar

StartChar: p'sko
Encoding: 983351 983351 75
Width: 1000
GlyphClass: 1
Flags: HMW
LayerCount: 2
Fore
SplineSet
252 250 m 0
 225 250 209 280 182 280 c 0
 177 282 173 288 173 294 c 0
 173 303 176 306 199 325 c 1
 206 313 l 2
 209 308 223 304 241 304 c 0
 256 304 290 312 329 315 c 0
 348 316 347 316 367 325 c 0
 394 337 418 345 430 345 c 0
 445 345 458 332 458 317 c 0
 458 262 344 8 287 -62 c 0
 258 -98 242 -109 220 -109 c 0
 208 -109 199 -101 199 -89 c 0
 199 -52 248 -40 313 100 c 0
 329 137 344 176 376 262 c 1
 362 258 353 257 345 257 c 0
 310 257 287 250 252 250 c 0
829 294 m 0
 829 168 708 -129 656 -129 c 0
 646 -129 639 -122 639 -110 c 0
 639 -95 648 -69 677 -7 c 0
 751 153 771 331 772 334 c 0
 774 340 777 342 794 350 c 1
 813 350 l 1
 812 342 l 1
 823 333 829 317 829 294 c 0
508 -10 m 0
 553 -7 575 -3 576 -3 c 0
 587 -3 582 -2 631 -17 c 1
 622 -21 l 1
 626 -26 626 -28 628 -40 c 0
 628 -42 629 -44 629 -46 c 0
 629 -60 616 -74 603 -74 c 2
 602 -74 l 2
 588 -74 590 -68 576 -68 c 0
 564 -68 435 -81 423 -81 c 0
 410 -81 402 -79 395 -73 c 2
 370 -49 l 1
 382 -50 l 1
 381 -48 381 -47 381 -44 c 0
 381 -36 383 -27 389 -10 c 0
 390 -7 445 167 493 295 c 0
 513 348 524 366 539 366 c 0
 553 366 564 357 564 344 c 0
 564 321 559 303 518 175 c 0
 489 85 458 -13 457 -15 c 1
 478 -12 502 -10 508 -10 c 0
596 472 m 0
 607 472 616 466 627 466 c 1
 631 669 632 688 642 712 c 1
 643 714 645 721 648 729 c 1
 686 729 l 1
 686 725 687 720 687 716 c 0
 687 698 697 682 697 664 c 0
 697 616 693 522 693 474 c 0
 693 420 694 393 698 353 c 1
 683 332 671 323 658 323 c 0
 641 323 619 360 611 400 c 0
 602 402 603 404 596 404 c 0
 591 404 466 376 451 371 c 0
 390 353 351 345 325 345 c 0
 322 345 321 346 318 346 c 0
 302 359 308 353 306 357 c 1
 295 347 l 1
 311 438 317 468 322 495 c 0
 334 555 338 589 338 625 c 0
 338 628 338 642 337 659 c 2
 337 663 338 667 338 671 c 0
 336 673 335 677 335 680 c 0
 335 689 345 697 358 697 c 0
 388 697 399 669 399 597 c 0
 399 557 394 524 373 417 c 1
 414 427 464 443 465 443 c 0
 501 453 502 449 565 466 c 0
 580 470 588 472 596 472 c 0
EndSplineSet
EndChar

StartChar: pf
Encoding: 983352 983352 76
Width: 1000
GlyphClass: 1
Flags: HMW
LayerCount: 2
Fore
SplineSet
338 -18 m 0
 338 89 369 127 369 234 c 0
 369 256 365 272 365 294 c 0
 365 295 365 296 365 296 c 1
 357 305 l 1
 365 312 370 316 373 319 c 1
 341 306 325 302 309 302 c 0
 293 302 282 310 282 320 c 1
 275 325 272 331 272 338 c 0
 272 354 282 365 299 445 c 0
 317 530 330 608 330 632 c 0
 330 671 323 685 323 686 c 0
 323 692 323 692 335 715 c 1
 370 704 376 700 382 682 c 0
 389 663 392 642 392 621 c 0
 392 581 366 429 351 380 c 1
 417 407 440 410 481 428 c 0
 508 440 524 443 573 443 c 0
 576 445 586 448 589 448 c 0
 593 448 603 446 606 445 c 0
 610 445 610 445 611 445 c 0
 613 445 614 444 616 444 c 0
 619 510 635 656 635 658 c 0
 637 675 640 685 650 705 c 1
 664 703 674 701 675 701 c 0
 688 697 699 673 699 651 c 0
 699 567 681 469 681 385 c 0
 681 373 681 355 682 342 c 2
 682 322 667 307 648 307 c 0
 641 307 634 310 630 317 c 1
 629 317 l 1
 622 329 l 2
 619 336 617 345 615 376 c 0
 612 376 609 375 606 375 c 0
 597 375 562 378 553 378 c 0
 535 378 535 378 503 366 c 0
 429 338 393 326 392 326 c 1
 395 325 397 324 399 322 c 0
 421 315 432 281 432 223 c 0
 432 145 402 69 402 -9 c 0
 402 -15 402 -22 402 -28 c 1
 422 -22 441 -14 455 -5 c 0
 506 25 635 157 707 157 c 0
 720 157 729 150 729 140 c 0
 729 132 724 123 714 113 c 0
 688 88 669 81 614 37 c 0
 608 33 539 -23 537 -25 c 0
 488 -64 469 -74 415 -91 c 0
 401 -95 391 -97 379 -97 c 0
 346 -97 338 -83 338 -18 c 0
EndSplineSet
EndChar

StartChar: p'nki
Encoding: 983353 983353 77
Width: 1000
GlyphClass: 1
Flags: HMW
LayerCount: 2
Fore
SplineSet
628 -76 m 0
 610 -76 591 -61 591 -46 c 0
 591 -27 618 38 654 104 c 1
 669 153 698 247 698 248 c 0
 711 293 715 308 719 329 c 0
 721 340 724 346 725 349 c 1
 719 360 l 1
 742 369 747 370 753 370 c 0
 759 370 764 367 766 362 c 0
 775 355 781 344 781 333 c 0
 781 281 728 109 686 22 c 0
 681 11 676 1 672 -8 c 1
 729 5 769 11 798 11 c 0
 842 11 819 3 863 3 c 1
 871 -24 869 -17 869 -23 c 0
 869 -43 856 -55 831 -58 c 0
 815 -56 804 -55 792 -55 c 0
 788 -55 784 -56 774 -58 c 0
 764 -58 669 -76 659 -76 c 0
 654 -76 649 -75 642 -74 c 0
 639 -76 636 -76 628 -76 c 0
630 410 m 0
 619 406 635 407 597 398 c 0
 596 398 573 392 492 372 c 1
 493 369 493 368 493 363 c 0
 493 349 488 338 468 306 c 0
 440 262 406 210 377 168 c 1
 381 169 386 169 406 172 c 0
 407 172 466 178 487 180 c 1
 490 220 492 253 492 284 c 0
 492 286 492 287 492 289 c 0
 492 302 497 314 497 327 c 0
 499 339 502 341 521 346 c 1
 540 346 l 1
 540 339 541 339 541 332 c 0
 553 321 556 307 556 254 c 0
 556 231 555 216 554 194 c 1
 589 203 602 205 613 205 c 0
 631 205 641 194 641 174 c 0
 641 161 633 150 618 143 c 0
 595 133 581 134 548 126 c 1
 536 -12 533 -32 526 -40 c 0
 524 -50 513 -57 502 -57 c 0
 489 -57 481 -51 477 -39 c 0
 471 -35 469 -30 469 -20 c 0
 469 -19 476 40 481 115 c 1
 458 113 434 112 411 112 c 0
 410 112 411 112 410 112 c 0
 395 112 388 109 373 109 c 0
 360 109 351 114 346 123 c 1
 345 123 l 1
 313 76 246 -15 216 -53 c 0
 198 -76 192 -80 179 -80 c 0
 157 -80 143 -70 137 -51 c 1
 125 -43 l 1
 136 -28 130 -36 159 -5 c 1
 164 -17 l 1
 165 -15 233 72 282 143 c 0
 283 145 323 201 411 330 c 0
 430 358 425 351 430 357 c 1
 411 352 372 342 370 342 c 0
 366 342 366 343 335 355 c 1
 337 356 l 1
 335 368 335 368 335 371 c 0
 335 410 365 595 365 634 c 0
 365 654 359 654 359 674 c 0
 359 685 369 695 380 695 c 0
 405 695 415 671 415 605 c 0
 415 574 411 499 405 416 c 1
 539 452 602 467 616 467 c 0
 624 467 629 464 632 459 c 1
 632 492 638 684 638 717 c 0
 631 722 623 725 615 729 c 1
 643 735 l 1
 645 741 l 1
 653 737 l 1
 656 738 660 742 668 742 c 0
 695 742 700 725 700 636 c 0
 700 594 698 522 698 480 c 0
 698 477 698 440 698 440 c 2
 698 404 697 389 695 383 c 0
 695 382 695 381 695 380 c 0
 695 373 691 368 684 362 c 1
 657 354 l 1
 642 354 633 367 632 388 c 0
 632 394 632 401 632 410 c 1
 631 410 631 410 630 410 c 0
EndSplineSet
EndChar

StartChar: zt
Encoding: 983354 983354 78
Width: 1000
GlyphClass: 1
Flags: HMW
LayerCount: 2
Fore
SplineSet
296 551 m 1
 316 546 355 543 398 543 c 0
 455 543 565 551 622 551 c 0
 633 551 641 550 648 549 c 1
 658 564 673 600 687 641 c 1
 643 636 494 630 430 630 c 0
 371 630 341 636 313 654 c 0
 300 662 291 672 291 679 c 0
 291 691 302 704 313 704 c 0
 343 704 381 689 411 689 c 0
 456 689 673 701 696 705 c 0
 703 707 706 707 709 707 c 0
 736 707 756 688 756 664 c 0
 756 633 665 397 620 311 c 1
 605 301 601 300 593 300 c 0
 576 300 569 310 566 338 c 1
 592 397 600 416 628 488 c 1
 621 488 613 487 606 487 c 0
 575 485 514 484 444 484 c 0
 328 484 279 492 260 516 c 0
 254 522 249 532 249 538 c 0
 249 549 260 556 275 556 c 0
 276 556 276 556 299 555 c 1
 296 551 l 1
501 409 m 1
 534 403 540 399 540 386 c 0
 540 384 539 383 539 381 c 0
 539 377 540 373 540 369 c 0
 540 336 521 292 472 213 c 1
 475 212 477 210 480 208 c 0
 492 208 504 203 517 193 c 0
 615 115 636 115 686 67 c 0
 726 42 749 24 759 10 c 1
 777 7 787 -3 796 -26 c 1
 780 -51 772 -56 753 -56 c 0
 736 -56 718 -46 705 -31 c 0
 698 -24 694 -18 684 -10 c 1
 683 -10 l 2
 682 -9 621 37 583 62 c 0
 557 79 485 139 455 169 c 1
 446 160 l 1
 446 164 445 167 445 171 c 1
 358 45 299 -6 237 -6 c 0
 221 -6 206 7 206 22 c 0
 206 32 213 44 220 48 c 0
 227 52 239 51 258 59 c 0
 313 82 423 233 481 363 c 0
 487 376 487 376 496 391 c 0
 498 394 498 394 501 409 c 1
EndSplineSet
EndChar

StartChar: p'nk
Encoding: 983355 983355 79
Width: 1000
GlyphClass: 1
Flags: HMW
LayerCount: 2
Fore
SplineSet
351 -72 m 0
 334 -71 320 -54 320 -34 c 0
 320 -16 329 50 334 101 c 1
 297 98 267 97 253 97 c 0
 210 97 164 118 156 141 c 0
 152 144 149 148 149 153 c 0
 149 164 162 177 173 177 c 0
 196 177 231 161 254 161 c 0
 270 161 283 162 342 166 c 1
 345 191 348 224 350 248 c 0
 352 271 353 277 355 283 c 1
 338 280 314 273 303 273 c 0
 300 273 296 274 288 277 c 0
 284 277 281 278 275 283 c 1
 264 287 l 1
 269 289 l 1
 262 296 260 300 260 309 c 0
 260 367 296 549 296 607 c 0
 296 615 296 626 295 635 c 2
 295 641 296 647 296 653 c 0
 296 654 296 654 296 655 c 0
 296 667 307 675 322 675 c 0
 329 675 334 672 337 665 c 0
 338 662 343 658 347 650 c 0
 353 636 356 614 356 574 c 0
 356 515 347 434 331 345 c 1
 461 368 599 403 637 403 c 0
 639 403 640 402 642 402 c 1
 642 426 654 609 654 633 c 0
 654 641 653 649 653 657 c 0
 653 662 654 665 655 668 c 1
 643 680 l 1
 667 682 671 682 674 682 c 0
 678 683 683 683 687 683 c 1
 695 683 l 2
 706 683 715 668 716 648 c 0
 716 642 716 633 716 625 c 0
 716 576 707 396 707 347 c 0
 707 345 707 343 707 341 c 1
 708 341 709 337 709 326 c 0
 709 299 695 283 673 283 c 0
 665 283 658 287 653 294 c 0
 652 295 650 295 649 296 c 1
 652 288 653 285 653 281 c 0
 653 250 536 22 516 -34 c 1
 564 -34 l 1
 599 -26 619 -24 707 -19 c 0
 720 -19 769 -16 782 -16 c 0
 800 -16 811 -17 826 -19 c 1
 831 -24 l 1
 838 -27 842 -31 847 -41 c 1
 849 -43 l 1
 848 -43 l 1
 849 -46 851 -49 851 -53 c 0
 851 -70 834 -85 816 -85 c 0
 802 -85 796 -82 782 -82 c 0
 766 -82 738 -84 722 -84 c 0
 716 -84 643 -90 637 -90 c 0
 616 -92 601 -95 571 -101 c 1
 456 -98 444 -94 444 -55 c 0
 444 -31 451 -12 493 76 c 0
 532 156 577 257 578 259 c 0
 592 291 594 292 603 297 c 1
 607 305 617 311 628 311 c 0
 633 311 639 308 643 304 c 1
 642 307 641 310 641 315 c 2
 641 337 l 1
 631 337 l 2
 624 337 499 310 492 310 c 0
 458 303 431 297 403 292 c 1
 397 284 l 1
 400 276 401 270 401 253 c 0
 401 224 400 199 398 177 c 1
 421 182 444 185 466 185 c 0
 470 185 474 185 504 184 c 1
 492 173 l 1
 498 168 501 161 501 154 c 0
 501 148 500 142 497 137 c 1
 497 137 497 137 497 136 c 0
 497 128 484 121 469 121 c 0
 446 120 417 115 392 109 c 0
 392 108 384 14 383 -12 c 0
 381 -58 374 -72 351 -72 c 0
EndSplineSet
EndChar

StartChar: p'ns
Encoding: 983356 983356 80
Width: 1000
GlyphClass: 1
Flags: HMW
LayerCount: 2
Fore
SplineSet
374 357 m 0
 374 360 388 511 395 612 c 0
 395 615 396 615 400 671 c 0
 400 673 399 673 399 675 c 0
 399 676 399 677 399 678 c 0
 398 679 399 679 389 696 c 1
 423 702 423 702 424 702 c 0
 432 702 438 696 438 688 c 2
 438 687 l 1
 449 678 453 655 453 597 c 0
 453 547 442 446 442 396 c 1
 529 425 601 441 649 441 c 0
 655 441 661 440 667 440 c 1
 667 447 668 450 668 457 c 0
 668 458 668 477 668 477 c 2
 668 520 680 601 680 644 c 0
 681 654 682 659 688 679 c 2
 690 688 694 700 696 708 c 1
 708 706 707 705 710 705 c 0
 714 704 719 705 725 701 c 0
 731 697 733 693 735 682 c 0
 740 666 744 641 744 620 c 0
 744 588 738 589 735 501 c 0
 730 362 730 362 723 354 c 0
 713 343 702 337 690 337 c 0
 670 337 652 353 652 371 c 0
 652 373 652 375 652 377 c 1
 530 368 437 321 405 321 c 1
 375 345 l 1
 374 348 374 351 374 357 c 0
222 83 m 0
 183 83 148 103 148 125 c 0
 148 135 161 148 172 148 c 0
 175 148 175 148 177 147 c 0
 180 148 184 149 189 149 c 0
 195 149 198 149 201 148 c 0
 209 150 213 151 218 151 c 0
 222 151 222 150 226 150 c 0
 259 150 261 164 387 170 c 1
 388 185 393 243 393 245 c 0
 395 272 397 271 400 294 c 0
 400 316 426 317 426 317 c 0
 433 317 439 312 441 304 c 0
 441 269 455 273 455 238 c 0
 455 218 454 193 452 169 c 1
 466 167 483 166 489 166 c 0
 532 162 550 157 552 147 c 0
 562 140 565 134 565 125 c 0
 565 107 550 94 530 94 c 0
 515 94 527 97 448 103 c 1
 445 55 443 10 442 -7 c 0
 440 -52 440 -53 436 -73 c 1
 429 -73 l 1
 425 -80 415 -85 405 -85 c 0
 385 -85 377 -70 377 -33 c 0
 377 0 379 51 382 104 c 1
 255 98 304 86 249 86 c 0
 248 86 248 86 247 86 c 0
 235 86 234 83 222 83 c 0
658 233 m 0
 608 233 570 255 570 284 c 0
 570 296 582 309 592 309 c 0
 609 309 628 294 645 294 c 0
 670 294 723 302 780 304 c 0
 788 308 795 310 803 310 c 0
 834 310 854 283 854 240 c 0
 854 127 701 -148 638 -148 c 0
 628 -148 620 -139 620 -129 c 0
 620 -82 758 59 788 219 c 0
 790 229 790 233 790 239 c 0
 790 240 790 241 790 242 c 1
 769 239 685 233 658 233 c 0
EndSplineSet
EndChar

StartChar: p'nse
Encoding: 983357 983357 81
Width: 1000
GlyphClass: 1
Flags: HMW
LayerCount: 2
Fore
SplineSet
541 401 m 1
 551 387 556 363 556 323 c 0
 556 309 556 298 554 262 c 1
 565 264 576 265 587 265 c 0
 607 265 615 260 616 249 c 0
 620 244 622 239 622 232 c 0
 622 217 608 205 584 200 c 0
 578 199 563 196 549 193 c 1
 542 114 539 37 538 22 c 0
 536 -24 535 -41 532 -50 c 1
 532 -51 l 2
 532 -61 521 -69 507 -69 c 0
 501 -69 501 -69 476 -62 c 1
 469 -44 468 -41 468 -32 c 0
 468 -27 469 -21 472 -13 c 0
 473 54 476 115 482 175 c 1
 444 168 418 164 407 164 c 0
 390 164 363 170 345 178 c 1
 338 189 337 190 324 199 c 1
 331 224 335 229 348 231 c 0
 349 231 350 232 351 232 c 0
 356 233 365 234 373 234 c 0
 387 234 392 230 406 230 c 0
 419 230 470 240 486 246 c 0
 486 285 494 364 501 390 c 0
 501 391 501 392 503 395 c 1
 495 394 486 392 480 391 c 2
 478 391 431 383 429 383 c 0
 414 380 382 370 362 370 c 0
 352 370 344 373 338 378 c 2
 313 398 l 1
 322 398 l 1
 322 400 321 403 321 405 c 0
 321 411 322 416 324 432 c 0
 324 433 341 547 343 562 c 0
 343 569 357 668 357 675 c 0
 357 679 357 679 354 686 c 1
 370 701 371 702 381 704 c 2
 401 709 l 1
 398 693 l 1
 411 684 414 675 414 639 c 0
 414 614 412 588 405 536 c 0
 403 521 397 483 392 442 c 1
 440 455 622 482 662 482 c 0
 668 482 674 482 679 482 c 1
 684 534 686 656 699 691 c 0
 703 702 703 702 705 725 c 1
 718 724 718 724 719 724 c 0
 723 724 723 724 726 725 c 1
 743 725 l 1
 756 691 757 685 757 669 c 0
 757 621 747 522 747 474 c 0
 747 470 748 426 748 422 c 0
 748 387 742 379 718 376 c 0
 717 376 716 375 715 375 c 0
 698 375 683 394 683 416 c 1
 681 416 678 416 675 416 c 0
 642 416 606 412 556 404 c 1
 552 403 546 402 541 401 c 1
666 274 m 0
 619 274 579 296 579 322 c 0
 579 333 592 346 602 346 c 0
 606 346 608 343 612 343 c 0
 614 343 616 343 619 343 c 0
 637 343 637 338 655 338 c 0
 671 338 683 340 707 347 c 0
 726 347 791 365 810 365 c 0
 841 365 859 347 859 314 c 0
 859 288 854 265 840 228 c 0
 805 134 748 40 747 38 c 0
 685 -49 622 -109 593 -109 c 0
 581 -109 573 -101 573 -90 c 0
 573 -51 626 -30 696 83 c 0
 737 148 782 249 793 298 c 1
 750 292 697 274 666 274 c 0
144 251 m 0
 144 262 156 275 165 275 c 0
 171 275 177 272 178 268 c 1
 179 267 l 1
 204 254 252 189 281 127 c 0
 290 108 298 93 314 67 c 0
 330 43 347 -2 347 -20 c 0
 347 -34 342 -41 327 -51 c 1
 291 -40 290 -39 281 -17 c 0
 264 24 259 28 238 83 c 0
 207 166 153 232 150 238 c 1
 146 242 144 246 144 251 c 0
EndSplineSet
EndChar

StartChar: pg
Encoding: 983358 983358 82
Width: 1000
GlyphClass: 1
Flags: HMW
LayerCount: 2
Fore
SplineSet
772 37 m 1
 772 32 777 28 777 23 c 0
 777 8 760 -8 743 -8 c 0
 725 -8 709 1 691 1 c 2
 675 1 l 2
 663 1 654 5 642 5 c 2
 641 5 l 2
 584 5 557 4 533 -1 c 0
 511 -5 290 -32 276 -32 c 0
 269 -32 263 -31 258 -30 c 1
 261 -22 l 1
 257 -21 252 -17 250 -13 c 0
 244 -10 240 -3 240 3 c 0
 240 8 241 13 245 20 c 0
 250 31 321 158 336 184 c 1
 316 181 273 171 257 171 c 0
 227 171 184 190 164 213 c 1
 151 210 l 1
 156 250 157 251 174 255 c 0
 177 255 180 256 183 256 c 0
 205 256 230 238 252 238 c 0
 278 238 317 250 375 256 c 1
 413 330 427 350 444 350 c 0
 457 350 469 339 469 327 c 0
 469 315 460 285 451 264 c 1
 567 276 593 278 640 278 c 0
 775 278 846 263 846 235 c 2
 846 229 l 2
 846 219 841 209 834 203 c 1
 838 199 l 1
 808 193 809 192 802 192 c 0
 792 192 787 194 776 200 c 0
 768 206 701 212 638 212 c 0
 606 212 606 212 416 193 c 1
 348 66 348 66 331 39 c 1
 447 55 538 67 544 67 c 0
 565 67 611 71 632 71 c 0
 656 71 656 68 680 68 c 2
 683 68 l 2
 709 68 733 64 760 54 c 1
 776 39 l 1
 772 37 l 1
315 671 m 2
 315 686 l 2
 315 698 327 710 338 710 c 0
 342 710 345 709 348 706 c 0
 373 699 384 670 384 605 c 0
 384 603 384 602 384 600 c 0
 384 539 378 475 367 424 c 1
 369 424 555 457 581 457 c 0
 596 457 604 456 610 455 c 1
 610 457 610 460 610 462 c 0
 610 551 617 639 628 688 c 0
 630 697 630 697 632 706 c 1
 651 708 652 707 654 707 c 0
 671 707 687 680 687 651 c 0
 687 587 677 538 677 474 c 0
 677 452 679 402 679 380 c 0
 679 356 677 354 648 343 c 1
 636 347 l 1
 628 354 628 352 623 356 c 0
 615 362 614 366 612 388 c 1
 601 388 590 389 579 389 c 0
 563 389 535 382 519 382 c 0
 421 370 394 358 368 358 c 0
 360 358 347 358 336 357 c 2
 322 357 312 360 304 365 c 2
 266 391 l 1
 296 389 l 1
 296 391 296 392 296 393 c 0
 296 483 319 521 319 611 c 0
 319 640 315 642 315 671 c 2
EndSplineSet
EndChar

StartChar: pc
Encoding: 983359 983359 83
Width: 1000
GlyphClass: 1
Flags: HMW
LayerCount: 2
Fore
SplineSet
659 -56 m 1
 669 -39 l 1
 660 -33 l 1
 657 -34 l 1
 652 -53 l 1
 658 -56 l 1
 659 -56 l 1
675 370 m 0
 693 370 708 350 708 324 c 0
 708 222 685 -41 674 -60 c 0
 668 -71 651 -79 633 -79 c 0
 586 -79 359 34 258 67 c 0
 214 82 201 92 201 108 c 0
 201 122 214 128 242 128 c 0
 275 128 301 120 419 72 c 0
 613 -7 613 -7 616 -7 c 1
 616 -6 630 91 633 138 c 0
 643 337 643 337 653 356 c 0
 657 365 664 370 675 370 c 0
746 449 m 1
 736 464 l 1
 734 464 l 1
 723 453 l 1
 724 451 l 1
 735 442 l 1
 746 449 l 1
385 374 m 0
 385 401 422 621 422 648 c 2
 422 681 l 2
 422 687 421 688 421 694 c 0
 421 704 436 718 447 718 c 0
 464 718 485 681 485 649 c 0
 485 612 472 512 456 421 c 1
 580 452 667 468 727 470 c 1
 727 477 727 482 727 489 c 0
 727 588 733 651 746 688 c 2
 748 697 751 706 753 711 c 1
 765 712 766 713 771 713 c 0
 777 713 780 713 792 711 c 1
 793 701 793 699 793 696 c 0
 793 692 793 690 793 688 c 0
 793 669 797 668 797 649 c 0
 797 589 793 525 793 465 c 0
 793 444 793 413 793 412 c 0
 793 390 778 373 758 373 c 0
 748 373 739 380 735 391 c 0
 733 393 731 395 729 397 c 0
 729 401 728 400 728 404 c 1
 554 389 451 344 420 344 c 0
 397 344 385 354 385 374 c 0
EndSplineSet
EndChar

StartChar: pej
Encoding: 983360 983360 84
Width: 1000
GlyphClass: 1
Flags: HMW
LayerCount: 2
Fore
SplineSet
581 421 m 1
 657 446 709 460 728 460 c 2
 729 460 l 1
 729 463 729 466 729 470 c 0
 729 498 726 617 726 645 c 0
 726 676 728 689 733 704 c 1
 719 717 l 1
 746 722 747 723 751 723 c 0
 758 723 758 723 786 714 c 1
 777 706 l 1
 789 691 793 641 793 485 c 0
 793 410 792 386 786 371 c 0
 775 350 770 345 758 345 c 0
 751 345 747 347 738 356 c 0
 734 361 734 361 727 367 c 1
 727 375 726 376 726 384 c 0
 726 390 727 394 727 400 c 1
 706 391 563 351 551 351 c 0
 537 351 527 357 526 365 c 1
 517 372 513 381 513 390 c 0
 513 411 519 433 524 515 c 0
 531 603 534 622 547 660 c 0
 550 672 557 678 570 678 c 0
 582 678 587 675 592 663 c 0
 596 652 598 645 598 636 c 0
 598 630 583 445 581 421 c 1
741 341 m 0
 783 341 806 323 806 290 c 0
 806 265 793 214 768 138 c 0
 751 89 749 91 709 -22 c 0
 670 -136 658 -151 604 -151 c 0
 557 -151 472 -112 415 -64 c 0
 396 -48 389 -38 389 -25 c 0
 389 -8 401 5 416 5 c 0
 426 5 432 2 452 -13 c 0
 477 -38 575 -84 604 -84 c 2
 610 -84 l 1
 612 -81 616 -77 619 -73 c 0
 627 -63 655 27 683 101 c 0
 711 174 733 244 738 274 c 1
 731 274 708 267 653 265 c 0
 546 236 414 210 372 210 c 0
 298 210 250 228 232 263 c 0
 231 263 231 263 212 272 c 1
 242 296 242 296 248 296 c 0
 253 296 256 294 258 291 c 0
 279 282 323 274 356 274 c 0
 380 274 384 275 501 298 c 1
 474 299 440 326 433 353 c 0
 430 363 409 387 372 424 c 0
 304 492 216 534 206 544 c 1
 202 541 l 1
 195 555 194 557 194 562 c 0
 194 567 195 573 200 593 c 1
 278 569 311 552 378 501 c 0
 397 487 409 477 433 453 c 0
 485 400 519 362 535 339 c 1
 527 335 l 2
 527 334 527 333 527 332 c 0
 527 317 522 306 514 301 c 1
 589 316 594 318 613 322 c 0
 638 328 725 341 741 341 c 0
EndSplineSet
EndChar

StartChar: pj
Encoding: 983361 983361 85
Width: 1000
GlyphClass: 1
Flags: HMW
LayerCount: 2
Fore
SplineSet
595 -64 m 0
 591 -64 586 -66 582 -70 c 2
 564 -88 l 1
 591 -91 591 -91 593 -91 c 0
 598 -91 598 -91 627 -78 c 1
 599 -64 599 -64 595 -64 c 0
562 347 m 0
 637 347 623 364 698 364 c 2
 719 364 l 1
 734 366 734 366 735 366 c 0
 750 366 768 356 787 337 c 0
 795 329 798 320 798 308 c 0
 798 286 791 265 766 215 c 0
 753 190 735 148 722 115 c 1
 654 -12 658 -70 636 -94 c 1
 631 -111 622 -121 609 -125 c 0
 605 -129 598 -131 590 -131 c 0
 572 -131 478 -95 434 -71 c 1
 409 -46 409 -46 409 -34 c 0
 409 -19 420 -8 436 -8 c 0
 457 -8 557 -61 578 -61 c 1
 580 -58 581 -55 586 -49 c 0
 603 15 627 74 662 142 c 1
 699 238 726 274 729 297 c 1
 728 297 726 297 724 297 c 0
 710 297 709 298 695 298 c 0
 649 298 621 281 575 281 c 0
 574 281 570 281 565 282 c 1
 527 282 527 274 489 274 c 0
 488 274 488 274 487 274 c 0
 431 274 396 252 340 252 c 0
 297 252 273 257 237 274 c 0
 216 284 204 294 204 302 c 0
 204 306 198 294 221 337 c 1
 231 326 l 1
 233 326 236 327 238 327 c 0
 267 327 284 315 313 315 c 0
 391 315 400 340 478 340 c 0
 483 340 494 340 503 339 c 2
 521 339 537 347 555 347 c 0
 557 347 560 347 562 347 c 0
389 440 m 1
 515 480 579 497 609 497 c 1
 609 532 l 2
 609 619 610 684 613 722 c 1
 613 739 l 2
 613 742 613 742 614 755 c 1
 619 756 630 757 641 759 c 1
 650 759 655 753 657 742 c 0
 661 725 670 727 673 709 c 0
 674 697 675 679 675 655 c 0
 675 541 676 480 677 443 c 0
 677 439 678 436 678 432 c 0
 678 409 667 393 650 393 c 0
 643 393 635 396 627 401 c 1
 621 392 l 1
 614 418 616 409 612 431 c 1
 574 431 387 364 349 364 c 0
 333 364 320 380 314 406 c 1
 335 498 348 595 349 670 c 0
 350 700 351 706 355 710 c 1
 347 720 l 1
 361 727 l 2
 367 733 372 735 379 735 c 0
 400 735 412 713 412 673 c 0
 412 607 403 516 389 440 c 1
EndSplineSet
EndChar

StartChar: p'st
Encoding: 983362 983362 86
Width: 1000
GlyphClass: 1
Flags: HMW
LayerCount: 2
Fore
SplineSet
678 358 m 0
 661 358 643 373 639 389 c 1
 634 387 631 387 623 387 c 2
 620 387 l 2
 547 387 455 342 382 342 c 0
 366 342 349 357 349 370 c 0
 349 371 349 371 349 371 c 2
 349 373 348 376 348 378 c 0
 348 414 369 437 374 531 c 0
 375 550 375 572 375 628 c 0
 375 661 375 667 372 687 c 1
 356 694 l 1
 369 706 l 1
 369 707 l 2
 369 717 380 724 394 724 c 0
 425 724 440 681 440 592 c 0
 440 499 439 491 423 418 c 1
 508 442 559 452 605 452 c 0
 624 452 632 450 641 443 c 1
 641 447 641 451 641 456 c 0
 641 507 653 673 659 698 c 0
 659 700 660 700 660 702 c 0
 662 714 666 718 679 721 c 0
 682 721 682 721 684 722 c 1
 701 722 l 1
 707 683 717 706 717 668 c 0
 717 616 708 491 708 439 c 0
 708 427 709 418 710 388 c 1
 707 370 l 1
 676 359 693 358 678 358 c 0
309 -91 m 0
 290 -91 278 -83 278 -71 c 0
 278 -57 288 -49 331 -24 c 0
 359 -9 500 135 557 206 c 0
 575 229 617 295 631 323 c 0
 636 332 642 336 653 336 c 0
 667 336 671 333 675 318 c 0
 677 314 678 308 678 302 c 0
 678 271 646 211 602 156 c 0
 574 121 537 83 434 -18 c 0
 379 -73 348 -91 309 -91 c 0
270 223 m 0
 232 223 200 243 200 268 c 0
 200 279 212 290 223 290 c 0
 227 290 232 288 235 285 c 0
 247 284 266 283 271 283 c 0
 329 283 404 322 462 322 c 0
 478 322 493 320 500 316 c 2
 535 299 l 1
 517 296 l 1
 518 293 520 282 520 276 c 0
 520 258 506 230 447 132 c 0
 413 76 380 41 335 11 c 0
 281 -25 257 -37 238 -37 c 0
 223 -37 214 -29 214 -17 c 0
 214 -10 219 0 225 8 c 1
 235 18 237 19 247 29 c 0
 347 95 371 122 444 256 c 1
 376 247 349 223 270 223 c 0
577 50 m 2
 557 67 555 69 555 75 c 0
 555 78 555 78 564 107 c 1
 575 101 578 100 581 100 c 0
 583 100 584 100 586 100 c 0
 628 100 694 48 742 -23 c 1
 751 -29 760 -39 767 -52 c 0
 790 -75 802 -95 802 -110 c 0
 802 -131 785 -149 764 -149 c 0
 760 -149 759 -148 748 -146 c 1
 737 -106 706 -87 682 -52 c 0
 665 -29 641 -2 618 17 c 0
 612 22 595 36 577 50 c 2
EndSplineSet
EndChar

StartChar: |pv
Encoding: 983363 983363 87
Width: 1000
GlyphClass: 1
Flags: HMW
LayerCount: 2
Fore
SplineSet
591 -57 m 1
 585 -67 l 1
 593 -75 l 1
 591 -57 l 1
247 297 m 0
 247 306 264 319 276 319 c 0
 280 319 283 318 287 316 c 0
 291 316 293 317 297 317 c 0
 310 317 369 314 382 314 c 0
 394 314 395 314 507 332 c 0
 535 338 567 336 578 345 c 0
 586 351 595 354 604 354 c 0
 623 354 641 337 642 319 c 0
 642 313 642 305 642 296 c 0
 642 248 614 63 614 15 c 0
 614 9 615 3 616 -7 c 1
 671 34 748 109 776 150 c 0
 793 173 806 184 817 184 c 0
 830 184 837 174 837 156 c 0
 837 126 819 95 769 43 c 0
 701 -28 625 -86 599 -86 c 0
 567 -86 556 -66 548 7 c 1
 555 114 571 181 577 276 c 1
 562 273 554 272 545 272 c 2
 544 272 l 2
 520 272 420 252 396 252 c 0
 374 252 284 263 270 268 c 1
 269 266 l 1
 245 291 249 287 247 292 c 0
 247 293 247 295 247 297 c 0
177 543 m 0
 177 554 189 567 199 567 c 0
 206 567 209 562 211 561 c 0
 236 555 250 519 250 463 c 0
 250 461 226 73 226 69 c 0
 224 53 220 47 209 45 c 0
 205 45 202 44 198 44 c 0
 180 44 163 59 163 75 c 0
 163 88 166 100 166 113 c 0
 166 115 166 118 166 122 c 0
 166 218 184 378 184 474 c 0
 184 506 177 511 177 543 c 0
339 626 m 0
 339 651 325 704 325 729 c 0
 325 740 339 753 350 753 c 0
 355 753 360 751 362 748 c 0
 385 740 399 703 403 644 c 0
 403 638 403 624 403 610 c 0
 403 567 398 516 386 445 c 1
 490 479 559 493 621 493 c 0
 628 493 632 493 636 492 c 1
 638 519 647 680 647 686 c 0
 647 688 646 689 646 691 c 0
 646 705 657 716 672 716 c 0
 680 716 690 707 697 693 c 0
 705 679 708 660 708 623 c 0
 708 597 705 522 701 472 c 0
 698 433 696 424 690 413 c 0
 689 412 690 411 689 410 c 0
 685 402 676 397 666 397 c 0
 649 397 634 411 632 428 c 0
 631 428 629 428 627 428 c 0
 565 428 408 366 346 366 c 0
 344 366 344 367 305 380 c 1
 320 384 l 1
 313 390 306 397 304 399 c 1
 316 434 322 458 327 490 c 0
 327 520 339 596 339 626 c 0
EndSplineSet
EndChar

StartChar: |pva
Encoding: 983364 983364 88
Width: 1000
GlyphClass: 1
Flags: HMW
LayerCount: 2
Fore
SplineSet
656 695 m 1
 668 711 l 1
 658 718 l 1
 654 718 l 1
 649 699 l 1
 656 695 l 1
157 408 m 0
 157 434 155 451 148 478 c 0
 148 480 147 483 147 485 c 0
 147 496 160 510 171 510 c 0
 177 510 177 510 186 501 c 0
 210 489 220 461 220 409 c 0
 220 349 207 152 198 69 c 0
 195 39 186 29 164 29 c 0
 155 29 144 35 137 44 c 1
 132 44 l 1
 132 48 157 371 157 408 c 0
618 275 m 1
 535 253 448 240 386 240 c 0
 359 240 354 244 327 244 c 0
 321 244 314 243 308 243 c 0
 304 243 299 244 292 245 c 1
 289 235 l 1
 271 244 278 240 246 259 c 1
 258 271 258 271 260 273 c 0
 266 287 295 298 327 298 c 0
 344 298 354 297 371 297 c 0
 446 297 568 322 619 347 c 0
 620 347 621 349 622 349 c 1
 614 355 610 362 608 377 c 1
 492 364 494 346 394 326 c 0
 373 322 363 319 355 319 c 0
 328 319 318 336 318 380 c 0
 318 404 352 626 352 650 c 1
 351 658 351 669 350 677 c 1
 376 683 376 684 378 684 c 0
 384 684 390 679 393 672 c 0
 396 665 400 662 406 646 c 0
 410 636 412 626 412 613 c 0
 412 590 405 529 385 392 c 1
 415 399 519 434 581 439 c 0
 584 439 587 439 590 439 c 0
 600 439 604 439 608 437 c 1
 610 470 620 622 620 648 c 0
 620 664 618 677 618 693 c 0
 618 694 618 695 618 696 c 0
 617 698 617 698 617 702 c 0
 617 705 618 707 619 710 c 2
 621 723 l 1
 624 720 l 1
 627 726 631 728 641 728 c 0
 676 728 684 714 684 651 c 0
 684 605 673 452 673 406 c 0
 673 392 675 392 675 378 c 0
 675 374 672 367 668 365 c 1
 668 361 l 2
 668 358 667 354 665 351 c 1
 678 345 685 329 685 309 c 0
 685 270 678 199 678 160 c 0
 678 143 679 126 682 106 c 1
 692 114 699 123 717 147 c 0
 750 190 762 205 818 273 c 0
 826 277 833 278 841 278 c 0
 857 278 867 267 867 250 c 0
 867 245 867 241 865 232 c 0
 854 217 779 119 778 118 c 0
 728 53 703 33 671 33 c 0
 631 33 612 75 612 160 c 0
 612 196 614 235 618 275 c 1
323 -88 m 0
 305 -88 286 -76 286 -64 c 0
 286 -53 298 -38 308 -38 c 0
 309 -38 309 -38 310 -38 c 0
 319 -27 335 -22 364 -22 c 0
 382 -22 393 -23 411 -23 c 0
 453 -23 495 -17 537 -17 c 0
 552 -17 655 -19 670 -19 c 0
 671 -19 682 -19 682 -19 c 2
 698 -19 701 -20 726 -25 c 0
 743 -28 753 -41 753 -61 c 0
 753 -79 740 -94 724 -94 c 0
 699 -94 705 -84 680 -84 c 0
 676 -84 673 -84 669 -84 c 0
 632 -84 579 -81 542 -81 c 0
 504 -81 462 -86 424 -86 c 0
 402 -86 379 -81 357 -81 c 0
 341 -81 339 -88 323 -88 c 0
EndSplineSet
EndChar

StartChar: |pr
Encoding: 983365 983365 89
Width: 1000
GlyphClass: 1
Flags: HMW
LayerCount: 2
Fore
SplineSet
401 631 m 0
 401 648 390 676 390 693 c 0
 390 704 402 718 411 718 c 0
 443 718 461 692 465 641 c 0
 465 634 465 624 465 615 c 0
 465 559 461 526 444 432 c 1
 457 435 476 442 503 446 c 0
 506 446 548 453 553 454 c 0
 587 461 604 473 642 473 c 0
 656 473 666 471 680 471 c 0
 684 471 687 471 691 471 c 0
 697 471 704 470 710 467 c 1
 710 468 710 470 710 471 c 0
 710 555 715 629 726 694 c 0
 729 711 728 711 730 732 c 1
 743 730 l 1
 746 731 746 731 750 731 c 0
 762 731 768 726 773 711 c 0
 782 684 782 684 782 654 c 0
 782 636 784 677 774 507 c 1
 776 470 777 434 777 397 c 2
 777 396 l 2
 777 371 776 367 764 352 c 0
 763 352 753 351 740 350 c 1
 725 350 716 359 716 374 c 0
 716 375 716 375 716 376 c 0
 713 382 712 391 711 412 c 1
 706 407 695 405 675 405 c 0
 668 405 652 406 637 407 c 2
 622 407 601 397 567 390 c 0
 540 384 531 385 485 375 c 0
 477 375 414 361 406 361 c 0
 399 361 393 362 388 365 c 2
 369 375 l 1
 366 375 l 1
 367 377 l 1
 332 396 l 1
 369 391 l 1
 398 546 401 570 401 631 c 0
232 455 m 0
 232 475 228 479 228 499 c 0
 227 501 226 506 226 510 c 0
 226 522 236 534 247 534 c 0
 282 534 298 508 298 450 c 0
 298 360 269 134 267 49 c 1
 258 50 l 1
 254 43 246 39 236 39 c 0
 223 39 212 47 209 59 c 0
 204 63 202 70 202 83 c 0
 202 142 232 396 232 455 c 0
485 272 m 0
 432 272 382 296 382 321 c 0
 382 333 392 344 402 344 c 0
 423 344 459 333 480 333 c 0
 527 333 609 380 656 380 c 0
 666 380 674 373 677 362 c 0
 677 361 678 361 686 343 c 1
 687 343 l 1
 687 342 l 1
 691 333 l 1
 679 329 l 1
 659 293 614 253 603 239 c 1
 667 255 667 255 685 255 c 0
 704 255 721 253 737 248 c 0
 738 248 740 248 741 248 c 0
 773 248 798 226 798 198 c 0
 798 158 774 122 713 71 c 0
 601 -25 412 -132 328 -146 c 0
 311 -148 303 -149 296 -149 c 0
 257 -149 245 -144 245 -127 c 0
 245 -96 317 -97 389 -63 c 0
 423 -47 464 -24 510 5 c 0
 625 77 714 149 733 187 c 1
 729 188 724 189 715 191 c 0
 708 191 694 194 687 194 c 0
 685 194 683 194 681 194 c 0
 674 194 667 193 649 188 c 2
 604 176 564 167 551 167 c 0
 526 167 510 181 510 203 c 0
 510 221 523 243 556 281 c 1
 542 277 499 272 485 272 c 0
EndSplineSet
EndChar

StartChar: |pr`n
Encoding: 983366 983366 90
Width: 1000
GlyphClass: 1
Flags: HMW
LayerCount: 2
Fore
SplineSet
173 499 m 0
 169 511 169 511 169 514 c 0
 169 525 181 539 192 539 c 0
 197 539 198 538 209 533 c 0
 234 522 249 478 249 410 c 0
 249 386 226 99 226 75 c 0
 224 47 213 32 195 32 c 0
 185 32 177 37 169 48 c 0
 164 53 162 62 162 84 c 0
 162 171 183 337 183 424 c 0
 183 443 173 480 173 499 c 0
236 -132 m 0
 209 -132 195 -124 195 -109 c 0
 195 -91 208 -84 293 -60 c 0
 356 -42 400 -11 477 69 c 0
 525 119 560 161 571 181 c 1
 566 181 516 177 511 177 c 0
 494 177 480 181 464 190 c 0
 452 206 449 211 449 222 c 0
 449 239 468 262 519 306 c 1
 445 288 419 284 375 284 c 0
 336 284 318 292 286 324 c 0
 279 331 277 335 277 341 c 0
 277 353 289 366 299 366 c 0
 303 366 307 364 312 359 c 0
 345 351 365 347 376 347 c 0
 423 347 529 384 576 384 c 0
 578 384 580 384 582 384 c 1
 580 389 580 393 578 401 c 1
 547 396 538 403 455 383 c 0
 439 379 363 364 360 364 c 0
 340 364 326 379 326 401 c 0
 326 458 361 557 361 614 c 0
 361 645 353 650 353 681 c 0
 353 682 353 683 353 684 c 2
 346 691 l 1
 365 710 368 712 377 712 c 0
 380 712 383 710 386 710 c 0
 410 696 426 659 426 615 c 0
 426 569 423 549 399 437 c 1
 429 442 457 453 499 459 c 0
 520 462 539 464 577 466 c 0
 577 536 585 693 590 709 c 0
 594 721 595 723 610 728 c 0
 613 729 615 730 618 730 c 0
 633 730 648 703 648 677 c 2
 648 643 l 2
 648 614 644 564 643 469 c 0
 643 462 642 456 642 449 c 0
 642 429 645 410 645 390 c 0
 645 383 638 366 633 361 c 1
 638 356 640 348 640 339 c 0
 640 329 638 323 633 317 c 1
 635 316 l 1
 637 318 674 320 696 324 c 1
 696 325 l 2
 696 347 699 449 699 471 c 0
 699 477 699 492 698 505 c 2
 698 515 701 519 701 529 c 0
 701 531 700 533 700 535 c 0
 700 546 713 558 726 558 c 0
 731 558 735 556 738 552 c 0
 748 552 761 526 762 506 c 2
 763 498 763 490 763 486 c 2
 762 466 762 448 762 443 c 2
 762 443 762 412 762 407 c 0
 762 394 762 392 761 336 c 1
 773 337 783 338 790 338 c 0
 820 338 831 333 836 319 c 2
 852 270 l 1
 837 286 l 1
 833 280 828 278 816 276 c 0
 812 273 812 273 801 273 c 0
 798 273 796 273 793 273 c 0
 785 273 781 273 764 271 c 1
 764 265 763 260 763 254 c 2
 764 235 764 218 764 213 c 0
 764 199 762 91 762 77 c 0
 762 64 763 51 765 39 c 0
 765 37 765 34 765 32 c 0
 765 17 750 2 734 2 c 0
 710 3 699 10 697 27 c 1
 697 63 l 2
 697 79 698 197 698 213 c 2
 698 259 l 1
 667 256 665 256 659 256 c 0
 632 256 620 264 608 289 c 0
 610 293 611 297 613 299 c 1
 591 280 562 257 546 243 c 1
 555 244 563 244 585 244 c 1
 588 243 l 1
 590 243 l 1
 623 231 638 213 638 188 c 0
 638 150 589 83 487 -15 c 0
 404 -96 327 -132 236 -132 c 0
EndSplineSet
EndChar

StartChar: ptt
Encoding: 983367 983367 91
Width: 1000
GlyphClass: 1
Flags: HMW
LayerCount: 2
Fore
SplineSet
693 380 m 1
 693 369 l 1
 698 368 l 1
 701 374 l 1
 700 378 l 1
 693 380 l 1
306 333 m 0
 306 405 335 525 335 597 c 0
 335 625 328 700 325 703 c 0
 325 704 324 704 314 716 c 1
 318 718 329 724 341 730 c 2
 342 731 344 731 348 731 c 0
 352 731 353 730 357 728 c 0
 379 720 388 704 395 659 c 0
 399 636 401 608 401 579 c 0
 401 540 394 482 376 369 c 1
 396 375 599 413 610 413 c 0
 614 413 617 413 623 411 c 0
 627 412 640 415 642 415 c 0
 650 415 659 413 666 409 c 1
 666 419 666 431 666 444 c 0
 666 478 668 659 668 693 c 0
 668 707 673 708 673 722 c 0
 673 735 684 744 700 744 c 0
 708 744 714 739 716 732 c 1
 731 716 733 702 733 603 c 0
 733 552 732 502 732 451 c 0
 732 431 735 391 735 371 c 0
 735 347 723 329 706 329 c 0
 689 329 674 340 672 354 c 1
 665 350 655 347 647 347 c 0
 644 347 643 347 641 347 c 0
 637 347 628 346 624 346 c 0
 620 346 615 347 608 348 c 0
 546 331 601 348 511 331 c 0
 510 331 452 323 379 302 c 0
 359 296 352 295 347 295 c 0
 324 295 306 311 306 333 c 0
301 50 m 1
 228 -48 161 -95 98 -95 c 0
 81 -95 69 -85 69 -71 c 0
 69 -24 147 -78 292 154 c 0
 318 194 347 247 364 284 c 1
 392 278 399 273 399 259 c 0
 399 256 398 254 398 251 c 0
 398 250 398 247 398 244 c 0
 398 208 374 152 334 98 c 1
 374 72 449 -25 449 -50 c 0
 449 -64 430 -80 413 -80 c 0
 405 -80 396 -76 391 -70 c 1
 381 -59 390 -64 351 -13 c 0
 340 1 327 19 321 27 c 0
 314 36 309 42 301 50 c 1
400 -55 m 1
 412 -53 l 1
 409 -47 l 1
 400 -55 l 1
721 61 m 1
 669 -26 615 -80 579 -80 c 0
 576 -80 573 -80 571 -80 c 0
 570 -90 569 -95 568 -105 c 1
 559 -102 l 1
 553 -110 547 -113 539 -113 c 0
 527 -113 518 -107 512 -97 c 0
 507 -93 505 -89 505 -82 c 0
 505 -80 505 -78 505 -76 c 0
 505 -51 512 128 515 197 c 0
 520 284 525 299 549 299 c 0
 563 299 569 295 574 283 c 0
 582 264 583 259 583 250 c 0
 583 247 576 74 573 -12 c 0
 573 -14 573 -16 573 -18 c 1
 575 -16 576 -15 581 -12 c 0
 604 7 624 31 646 64 c 0
 725 185 727 268 762 268 c 0
 770 268 773 267 786 263 c 1
 786 257 787 258 787 252 c 0
 787 246 784 242 784 236 c 2
 784 236 784 236 784 235 c 0
 784 202 773 164 749 114 c 1
 760 110 775 101 791 87 c 0
 800 80 803 75 830 36 c 0
 869 -17 872 -22 877 -30 c 0
 887 -47 901 -46 920 -78 c 0
 928 -91 931 -99 931 -107 c 0
 931 -110 931 -111 930 -113 c 1
 938 -117 l 1
 927 -130 l 2
 921 -137 911 -142 901 -142 c 0
 884 -142 872 -132 863 -113 c 0
 852 -90 842 -98 813 -58 c 0
 780 -12 774 4 752 31 c 0
 742 44 734 52 721 61 c 1
875 -115 m 1
 897 -110 l 1
 898 -108 l 1
 894 -101 l 1
 886 -99 l 1
 874 -111 l 1
 874 -113 875 -113 875 -115 c 1
EndSplineSet
EndChar

